<svg xmlns="http://www.w3.org/2000/svg" xmlns:xlink="http://www.w3.org/1999/xlink" width="1080" zoomAndPan="magnify" viewBox="0 0 810 809.999993" height="1080" preserveAspectRatio="xMidYMid meet" version="1.0"><defs><filter x="0%" y="0%" width="100%" height="100%" id="157c5c61de"><feColorMatrix values="0 0 0 0 1 0 0 0 0 1 0 0 0 0 1 0 0 0 1 0" color-interpolation-filters="sRGB"/></filter><mask id="f7da52a4ea"><g filter="url(#157c5c61de)"><rect x="-81" width="972" fill="#000000" y="-80.999999" height="971.999992" fill-opacity="0.3"/></g></mask><clipPath id="c7288ad813"><path d="M 1 0.878906 L 140.960938 0.878906 L 140.960938 128.320312 L 1 128.320312 Z M 1 0.878906 " clip-rule="nonzero"/></clipPath><clipPath id="3f0078ed2f"><rect x="0" width="141" y="0" height="129"/></clipPath><mask id="240213d569"><g filter="url(#157c5c61de)"><rect x="-81" width="972" fill="#000000" y="-80.999999" height="971.999992" fill-opacity="0.3"/></g></mask><clipPath id="06cd6b7093"><path d="M 1 0.878906 L 141 0.878906 L 141 128.320312 L 1 128.320312 Z M 1 0.878906 " clip-rule="nonzero"/></clipPath><clipPath id="c7b26e41b2"><rect x="0" width="142" y="0" height="129"/></clipPath><mask id="187b87da0c"><g filter="url(#157c5c61de)"><rect x="-81" width="972" fill="#000000" y="-80.999999" height="971.999992" fill-opacity="0.3"/></g></mask><clipPath id="2d6c3241e7"><path d="M 1 0.878906 L 141 0.878906 L 141 128.320312 L 1 128.320312 Z M 1 0.878906 " clip-rule="nonzero"/></clipPath><clipPath id="6c39d84daf"><rect x="0" width="142" y="0" height="129"/></clipPath><clipPath id="9eaef9887b"><path d="M 1 288 L 284 288 L 284 669.550781 L 1 669.550781 Z M 1 288 " clip-rule="nonzero"/></clipPath><clipPath id="8dc79a5caf"><path d="M 263 197.050781 L 546 197.050781 L 546 669.550781 L 263 669.550781 Z M 263 197.050781 " clip-rule="nonzero"/></clipPath><clipPath id="ddbf07233b"><path d="M 526 341 L 809 341 L 809 669.550781 L 526 669.550781 Z M 526 341 " clip-rule="nonzero"/></clipPath></defs><path fill="#0f936d" d="M 273.421875 207.015625 L 535.925781 207.015625 L 535.925781 659.820312 L 273.421875 659.820312 Z M 273.421875 207.015625 " fill-opacity="1" fill-rule="nonzero"/><path fill="#fadb5d" d="M 536.089844 351.742188 L 798.589844 351.742188 L 798.589844 659.984375 L 536.089844 659.984375 Z M 536.089844 351.742188 " fill-opacity="1" fill-rule="nonzero"/><path fill="#dde7b8" d="M 10.917969 298.328125 L 273.421875 298.328125 L 273.421875 659.820312 L 10.917969 659.820312 Z M 10.917969 298.328125 " fill-opacity="1" fill-rule="nonzero"/><g mask="url(#f7da52a4ea)"><g transform="matrix(1, 0, 0, 1, 370, 500)"><g clip-path="url(#3f0078ed2f)"><g clip-path="url(#c7288ad813)"><path fill="#000000" d="M 1.269531 128.292969 L 140.117188 128.292969 L 140.117188 0.882812 C 140.117188 0.882812 126.230469 38.453125 84.414062 78.308594 C 42.597656 118.167969 1.269531 128.292969 1.269531 128.292969 Z M 1.269531 128.292969 " fill-opacity="1" fill-rule="nonzero"/></g></g></g></g><g mask="url(#240213d569)"><g transform="matrix(1, 0, 0, 1, 626, 500)"><g clip-path="url(#c7b26e41b2)"><g clip-path="url(#06cd6b7093)"><path fill="#000000" d="M 1.726562 128.292969 L 140.574219 128.292969 L 140.574219 0.882812 C 140.574219 0.882812 126.691406 38.453125 84.871094 78.308594 C 43.054688 118.167969 1.726562 128.292969 1.726562 128.292969 Z M 1.726562 128.292969 " fill-opacity="1" fill-rule="nonzero"/></g></g></g></g><g mask="url(#187b87da0c)"><g transform="matrix(1, 0, 0, 1, 107, 500)"><g clip-path="url(#6c39d84daf)"><g clip-path="url(#2d6c3241e7)"><path fill="#000000" d="M 1.273438 128.292969 L 140.121094 128.292969 L 140.121094 0.882812 C 140.121094 0.882812 126.238281 38.453125 84.421875 78.308594 C 42.601562 118.167969 1.273438 128.292969 1.273438 128.292969 Z M 1.273438 128.292969 " fill-opacity="1" fill-rule="nonzero"/></g></g></g></g><path fill="#e6e6e6" d="M 724.429688 472.949219 C 724.429688 474.816406 724.339844 476.679688 724.15625 478.535156 C 723.972656 480.394531 723.699219 482.238281 723.335938 484.070312 C 722.972656 485.902344 722.519531 487.710938 721.976562 489.496094 C 721.433594 491.285156 720.804688 493.039062 720.089844 494.765625 C 719.375 496.488281 718.578125 498.175781 717.699219 499.824219 C 716.820312 501.46875 715.859375 503.070312 714.824219 504.621094 C 713.785156 506.171875 712.675781 507.671875 711.488281 509.113281 C 710.304688 510.558594 709.054688 511.941406 707.734375 513.261719 C 706.414062 514.582031 705.03125 515.832031 703.585938 517.015625 C 702.144531 518.203125 700.644531 519.3125 699.09375 520.351562 C 697.542969 521.386719 695.941406 522.347656 694.296875 523.226562 C 692.648438 524.105469 690.964844 524.902344 689.238281 525.617188 C 687.511719 526.332031 685.757812 526.960938 683.96875 527.503906 C 682.183594 528.046875 680.375 528.5 678.542969 528.863281 C 676.710938 529.226562 674.867188 529.5 673.007812 529.683594 C 671.152344 529.867188 669.289062 529.957031 667.421875 529.957031 C 665.554688 529.957031 663.691406 529.867188 661.832031 529.683594 C 659.976562 529.5 658.128906 529.226562 656.300781 528.863281 C 654.46875 528.5 652.660156 528.046875 650.871094 527.503906 C 649.085938 526.960938 647.328125 526.332031 645.605469 525.617188 C 643.878906 524.902344 642.195312 524.105469 640.546875 523.226562 C 638.902344 522.347656 637.300781 521.386719 635.75 520.351562 C 634.195312 519.3125 632.699219 518.203125 631.253906 517.015625 C 629.8125 515.832031 628.429688 514.582031 627.109375 513.261719 C 625.789062 511.941406 624.539062 510.558594 623.351562 509.113281 C 622.167969 507.671875 621.058594 506.171875 620.019531 504.621094 C 618.984375 503.070312 618.023438 501.46875 617.144531 499.824219 C 616.265625 498.175781 615.464844 496.488281 614.75 494.765625 C 614.039062 493.039062 613.410156 491.285156 612.867188 489.496094 C 612.324219 487.710938 611.871094 485.902344 611.507812 484.070312 C 611.144531 482.238281 610.871094 480.394531 610.6875 478.535156 C 610.503906 476.679688 610.414062 474.816406 610.414062 472.949219 C 610.414062 471.082031 610.503906 469.21875 610.6875 467.359375 C 610.871094 465.503906 611.144531 463.65625 611.507812 461.828125 C 611.871094 459.996094 612.324219 458.1875 612.867188 456.398438 C 613.410156 454.613281 614.039062 452.855469 614.75 451.132812 C 615.464844 449.40625 616.265625 447.722656 617.144531 446.074219 C 618.023438 444.429688 618.984375 442.828125 620.019531 441.277344 C 621.058594 439.722656 622.167969 438.226562 623.351562 436.78125 C 624.539062 435.339844 625.789062 433.957031 627.109375 432.636719 C 628.429688 431.316406 629.8125 430.066406 631.253906 428.878906 C 632.699219 427.695312 634.195312 426.585938 635.75 425.546875 C 637.300781 424.511719 638.902344 423.550781 640.546875 422.671875 C 642.195312 421.792969 643.878906 420.992188 645.605469 420.277344 C 647.328125 419.566406 649.085938 418.9375 650.871094 418.394531 C 652.660156 417.851562 654.46875 417.398438 656.300781 417.035156 C 658.128906 416.671875 659.976562 416.398438 661.832031 416.214844 C 663.691406 416.03125 665.554688 415.941406 667.421875 415.941406 C 669.289062 415.941406 671.152344 416.03125 673.007812 416.214844 C 674.867188 416.398438 676.710938 416.671875 678.542969 417.035156 C 680.375 417.398438 682.183594 417.851562 683.96875 418.394531 C 685.757812 418.9375 687.511719 419.566406 689.238281 420.277344 C 690.964844 420.992188 692.648438 421.792969 694.296875 422.671875 C 695.941406 423.550781 697.542969 424.511719 699.09375 425.546875 C 700.644531 426.585938 702.144531 427.695312 703.585938 428.878906 C 705.03125 430.066406 706.414062 431.316406 707.734375 432.636719 C 709.054688 433.957031 710.304688 435.339844 711.488281 436.78125 C 712.675781 438.226562 713.785156 439.722656 714.824219 441.277344 C 715.859375 442.828125 716.820312 444.429688 717.699219 446.074219 C 718.578125 447.722656 719.375 449.40625 720.089844 451.132812 C 720.804688 452.855469 721.433594 454.613281 721.976562 456.398438 C 722.519531 458.1875 722.972656 459.996094 723.335938 461.828125 C 723.699219 463.65625 723.972656 465.503906 724.15625 467.359375 C 724.339844 469.21875 724.429688 471.082031 724.429688 472.949219 Z M 724.429688 472.949219 " fill-opacity="1" fill-rule="nonzero"/><path fill="#e6e6e6" d="M 461.4375 324.300781 C 461.4375 326.167969 461.347656 328.03125 461.164062 329.886719 C 460.980469 331.746094 460.707031 333.589844 460.34375 335.421875 C 459.976562 337.253906 459.523438 339.0625 458.984375 340.847656 C 458.441406 342.636719 457.8125 344.390625 457.097656 346.117188 C 456.382812 347.84375 455.585938 349.527344 454.707031 351.175781 C 453.824219 352.820312 452.867188 354.421875 451.828125 355.972656 C 450.792969 357.527344 449.679688 359.023438 448.496094 360.464844 C 447.3125 361.910156 446.058594 363.292969 444.738281 364.613281 C 443.417969 365.933594 442.039062 367.183594 440.59375 368.367188 C 439.152344 369.554688 437.652344 370.664062 436.101562 371.703125 C 434.546875 372.738281 432.949219 373.699219 431.300781 374.578125 C 429.65625 375.457031 427.96875 376.253906 426.246094 376.96875 C 424.519531 377.683594 422.765625 378.3125 420.976562 378.855469 C 419.191406 379.398438 417.382812 379.851562 415.550781 380.214844 C 413.71875 380.578125 411.875 380.851562 410.015625 381.035156 C 408.15625 381.21875 406.296875 381.308594 404.429688 381.308594 C 402.5625 381.308594 400.699219 381.21875 398.839844 381.035156 C 396.980469 380.851562 395.136719 380.578125 393.304688 380.214844 C 391.476562 379.851562 389.667969 379.398438 387.878906 378.855469 C 386.09375 378.3125 384.335938 377.683594 382.613281 376.96875 C 380.886719 376.253906 379.199219 375.457031 377.554688 374.578125 C 375.90625 373.699219 374.308594 372.738281 372.753906 371.703125 C 371.203125 370.664062 369.707031 369.554688 368.261719 368.367188 C 366.820312 367.183594 365.4375 365.933594 364.117188 364.613281 C 362.796875 363.292969 361.542969 361.910156 360.359375 360.464844 C 359.175781 359.023438 358.0625 357.527344 357.027344 355.972656 C 355.988281 354.421875 355.03125 352.820312 354.152344 351.175781 C 353.269531 349.527344 352.472656 347.84375 351.757812 346.117188 C 351.042969 344.390625 350.414062 342.636719 349.875 340.847656 C 349.332031 339.0625 348.878906 337.253906 348.515625 335.421875 C 348.148438 333.589844 347.875 331.746094 347.695312 329.886719 C 347.511719 328.03125 347.417969 326.167969 347.417969 324.300781 C 347.417969 322.433594 347.511719 320.570312 347.695312 318.710938 C 347.875 316.855469 348.148438 315.007812 348.515625 313.179688 C 348.878906 311.347656 349.332031 309.539062 349.875 307.75 C 350.414062 305.964844 351.042969 304.207031 351.757812 302.484375 C 352.472656 300.757812 353.269531 299.074219 354.152344 297.425781 C 355.03125 295.78125 355.988281 294.179688 357.027344 292.628906 C 358.0625 291.074219 359.175781 289.578125 360.359375 288.132812 C 361.542969 286.691406 362.796875 285.308594 364.117188 283.988281 C 365.4375 282.667969 366.820312 281.417969 368.261719 280.230469 C 369.707031 279.046875 371.203125 277.9375 372.753906 276.898438 C 374.308594 275.863281 375.90625 274.902344 377.554688 274.023438 C 379.199219 273.144531 380.886719 272.34375 382.613281 271.632812 C 384.335938 270.917969 386.09375 270.289062 387.878906 269.746094 C 389.667969 269.203125 391.476562 268.75 393.304688 268.386719 C 395.136719 268.023438 396.980469 267.75 398.839844 267.566406 C 400.699219 267.382812 402.5625 267.292969 404.429688 267.292969 C 406.296875 267.292969 408.15625 267.382812 410.015625 267.566406 C 411.875 267.75 413.71875 268.023438 415.550781 268.386719 C 417.382812 268.75 419.191406 269.203125 420.976562 269.746094 C 422.765625 270.289062 424.519531 270.917969 426.246094 271.632812 C 427.96875 272.34375 429.65625 273.144531 431.300781 274.023438 C 432.949219 274.902344 434.546875 275.863281 436.101562 276.898438 C 437.652344 277.9375 439.152344 279.046875 440.59375 280.230469 C 442.039062 281.417969 443.417969 282.667969 444.738281 283.988281 C 446.058594 285.308594 447.3125 286.691406 448.496094 288.132812 C 449.679688 289.578125 450.792969 291.074219 451.828125 292.628906 C 452.867188 294.179688 453.824219 295.78125 454.707031 297.425781 C 455.585938 299.074219 456.382812 300.757812 457.097656 302.484375 C 457.8125 304.207031 458.441406 305.964844 458.984375 307.75 C 459.523438 309.539062 459.976562 311.347656 460.34375 313.179688 C 460.707031 315.007812 460.980469 316.855469 461.164062 318.710938 C 461.347656 320.570312 461.4375 322.433594 461.4375 324.300781 Z M 461.4375 324.300781 " fill-opacity="1" fill-rule="nonzero"/><path fill="#e6e6e6" d="M 200.078125 415.777344 C 200.078125 417.644531 199.984375 419.507812 199.804688 421.363281 C 199.621094 423.222656 199.347656 425.066406 198.980469 426.898438 C 198.617188 428.730469 198.164062 430.539062 197.621094 432.324219 C 197.082031 434.113281 196.453125 435.867188 195.738281 437.59375 C 195.023438 439.316406 194.226562 441.003906 193.347656 442.648438 C 192.464844 444.296875 191.507812 445.894531 190.46875 447.449219 C 189.433594 449 188.320312 450.5 187.136719 451.941406 C 185.953125 453.386719 184.699219 454.765625 183.378906 456.085938 C 182.058594 457.40625 180.679688 458.660156 179.234375 459.84375 C 177.792969 461.03125 176.292969 462.140625 174.742188 463.175781 C 173.1875 464.214844 171.589844 465.171875 169.941406 466.054688 C 168.296875 466.933594 166.609375 467.730469 164.886719 468.445312 C 163.160156 469.160156 161.402344 469.789062 159.617188 470.332031 C 157.832031 470.871094 156.023438 471.324219 154.191406 471.691406 C 152.359375 472.054688 150.515625 472.328125 148.65625 472.511719 C 146.796875 472.695312 144.9375 472.785156 143.070312 472.785156 C 141.203125 472.785156 139.339844 472.695312 137.480469 472.511719 C 135.621094 472.328125 133.777344 472.054688 131.945312 471.691406 C 130.117188 471.324219 128.304688 470.871094 126.519531 470.332031 C 124.734375 469.789062 122.976562 469.160156 121.253906 468.445312 C 119.527344 467.730469 117.839844 466.933594 116.195312 466.054688 C 114.546875 465.171875 112.949219 464.214844 111.394531 463.175781 C 109.84375 462.140625 108.34375 461.03125 106.902344 459.84375 C 105.460938 458.660156 104.078125 457.40625 102.757812 456.085938 C 101.4375 454.765625 100.183594 453.386719 99 451.941406 C 97.816406 450.5 96.703125 449 95.667969 447.449219 C 94.628906 445.894531 93.671875 444.296875 92.792969 442.648438 C 91.910156 441.003906 91.113281 439.316406 90.398438 437.59375 C 89.683594 435.867188 89.054688 434.113281 88.515625 432.324219 C 87.972656 430.539062 87.519531 428.730469 87.15625 426.898438 C 86.789062 425.066406 86.515625 423.222656 86.335938 421.363281 C 86.152344 419.507812 86.058594 417.644531 86.058594 415.777344 C 86.058594 413.910156 86.152344 412.046875 86.335938 410.1875 C 86.515625 408.332031 86.789062 406.484375 87.15625 404.65625 C 87.519531 402.824219 87.972656 401.015625 88.515625 399.226562 C 89.054688 397.441406 89.683594 395.683594 90.398438 393.960938 C 91.113281 392.234375 91.910156 390.550781 92.792969 388.902344 C 93.671875 387.253906 94.628906 385.65625 95.667969 384.105469 C 96.703125 382.550781 97.816406 381.054688 99 379.609375 C 100.183594 378.167969 101.4375 376.785156 102.757812 375.464844 C 104.078125 374.144531 105.460938 372.890625 106.902344 371.707031 C 108.34375 370.523438 109.84375 369.414062 111.394531 368.375 C 112.949219 367.335938 114.546875 366.378906 116.195312 365.5 C 117.839844 364.617188 119.527344 363.820312 121.253906 363.105469 C 122.976562 362.390625 124.734375 361.765625 126.519531 361.222656 C 128.304688 360.679688 130.117188 360.226562 131.945312 359.863281 C 133.777344 359.5 135.621094 359.226562 137.480469 359.042969 C 139.339844 358.859375 141.203125 358.765625 143.070312 358.765625 C 144.9375 358.765625 146.796875 358.859375 148.65625 359.042969 C 150.515625 359.226562 152.359375 359.5 154.191406 359.863281 C 156.023438 360.226562 157.832031 360.679688 159.617188 361.222656 C 161.402344 361.765625 163.160156 362.390625 164.886719 363.105469 C 166.609375 363.820312 168.296875 364.617188 169.941406 365.5 C 171.589844 366.378906 173.1875 367.335938 174.742188 368.375 C 176.292969 369.414062 177.792969 370.523438 179.234375 371.707031 C 180.679688 372.890625 182.058594 374.144531 183.378906 375.464844 C 184.699219 376.785156 185.953125 378.167969 187.136719 379.609375 C 188.320312 381.054688 189.433594 382.550781 190.46875 384.105469 C 191.507812 385.65625 192.464844 387.253906 193.347656 388.902344 C 194.226562 390.550781 195.023438 392.234375 195.738281 393.960938 C 196.453125 395.683594 197.082031 397.441406 197.621094 399.226562 C 198.164062 401.015625 198.617188 402.824219 198.980469 404.65625 C 199.347656 406.484375 199.621094 408.332031 199.804688 410.1875 C 199.984375 412.046875 200.078125 413.910156 200.078125 415.777344 Z M 200.078125 415.777344 " fill-opacity="1" fill-rule="nonzero"/><path fill="#000000" d="M 667.421875 539.757812 C 630.503906 539.757812 600.613281 509.703125 600.613281 472.949219 C 600.613281 436.195312 630.667969 406.136719 667.421875 406.136719 C 704.175781 406.136719 734.230469 436.195312 734.230469 472.949219 C 734.230469 509.703125 704.175781 539.757812 667.421875 539.757812 Z M 667.421875 425.742188 C 641.449219 425.742188 620.214844 446.976562 620.214844 472.949219 C 620.214844 498.921875 641.449219 520.15625 667.421875 520.15625 C 693.394531 520.15625 714.628906 498.921875 714.628906 472.949219 C 714.628906 446.976562 693.394531 425.742188 667.421875 425.742188 Z M 667.421875 425.742188 " fill-opacity="1" fill-rule="nonzero"/><path fill="#000000" d="M 404.429688 391.109375 C 367.511719 391.109375 337.617188 361.054688 337.617188 324.300781 C 337.617188 287.546875 367.511719 257.492188 404.429688 257.492188 C 441.34375 257.492188 471.238281 287.546875 471.238281 324.300781 C 471.238281 361.054688 441.183594 391.109375 404.429688 391.109375 Z M 404.429688 277.09375 C 378.457031 277.09375 357.21875 298.328125 357.21875 324.300781 C 357.21875 350.273438 378.457031 371.507812 404.429688 371.507812 C 430.402344 371.507812 451.636719 350.273438 451.636719 324.300781 C 451.636719 298.328125 430.402344 277.09375 404.429688 277.09375 Z M 404.429688 277.09375 " fill-opacity="1" fill-rule="nonzero"/><path fill="#000000" d="M 143.070312 482.585938 C 106.152344 482.585938 76.257812 452.53125 76.257812 415.777344 C 76.257812 379.023438 106.152344 348.964844 143.070312 348.964844 C 179.984375 348.964844 209.878906 379.023438 209.878906 415.777344 C 209.878906 452.53125 179.824219 482.585938 143.070312 482.585938 Z M 143.070312 368.566406 C 117.097656 368.566406 95.859375 389.804688 95.859375 415.777344 C 95.859375 441.75 117.097656 462.984375 143.070312 462.984375 C 169.042969 462.984375 190.277344 441.75 190.277344 415.777344 C 190.277344 389.804688 169.042969 368.566406 143.070312 368.566406 Z M 143.070312 368.566406 " fill-opacity="1" fill-rule="nonzero"/><g clip-path="url(#9eaef9887b)"><path fill="#000000" d="M 283.222656 669.457031 L 1.117188 669.457031 L 1.117188 288.363281 L 283.222656 288.363281 Z M 20.71875 649.855469 L 263.621094 649.855469 L 263.621094 307.964844 L 20.71875 307.964844 Z M 20.71875 649.855469 " fill-opacity="1" fill-rule="nonzero"/></g><g clip-path="url(#8dc79a5caf)"><path fill="#000000" d="M 545.890625 669.457031 L 263.621094 669.457031 L 263.621094 197.050781 L 545.726562 197.050781 L 545.726562 669.457031 Z M 283.222656 649.855469 L 526.125 649.855469 L 526.125 216.652344 L 283.222656 216.652344 Z M 283.222656 649.855469 " fill-opacity="1" fill-rule="nonzero"/></g><g clip-path="url(#ddbf07233b)"><path fill="#000000" d="M 808.882812 669.785156 L 526.777344 669.785156 L 526.777344 341.941406 L 808.882812 341.941406 Z M 546.378906 650.183594 L 789.28125 650.183594 L 789.28125 361.542969 L 546.378906 361.542969 Z M 546.378906 650.183594 " fill-opacity="1" fill-rule="nonzero"/></g><path fill="#000000" d="M 124.121094 423.453125 L 133.59375 417.246094 C 142.414062 411.527344 145.355469 407.117188 145.355469 404.34375 C 145.355469 401.890625 143.886719 400.910156 142.089844 400.910156 C 140.128906 400.910156 138.496094 402.054688 138.496094 405.648438 L 123.792969 405.648438 C 123.792969 395.195312 130.816406 390.945312 142.414062 390.945312 C 156.625 390.945312 161.363281 397.316406 161.363281 404.179688 C 161.363281 410.875 157.28125 416.101562 144.867188 423.453125 L 144.867188 423.617188 L 161.363281 423.617188 L 161.363281 434.726562 L 124.121094 434.726562 Z M 124.121094 423.453125 " fill-opacity="1" fill-rule="nonzero"/><path fill="#000000" d="M 661.214844 465.597656 L 664.316406 465.597656 C 667.75 465.597656 669.382812 464.128906 669.382812 461.515625 C 669.382812 459.390625 668.566406 457.757812 665.789062 457.757812 C 663.5 457.757812 662.195312 458.902344 662.195312 462.332031 L 647.984375 462.332031 C 647.984375 451.875 655.988281 448.121094 666.277344 448.121094 C 679.507812 448.121094 684.898438 453.347656 684.898438 460.042969 C 684.898438 464.617188 682.449219 468.375 675.425781 469.355469 L 675.425781 469.519531 C 683.265625 470.171875 685.554688 474.417969 685.554688 479.320312 C 685.554688 488.304688 678.039062 492.878906 667.09375 492.878906 C 653.535156 492.878906 647.328125 488.46875 647.328125 478.664062 L 661.539062 478.664062 C 661.703125 482.097656 663.5 483.238281 665.789062 483.238281 C 668.402344 483.238281 669.707031 481.605469 669.707031 479.15625 C 669.707031 476.214844 667.75 474.746094 663.5 474.746094 L 661.214844 474.746094 Z M 661.214844 465.597656 " fill-opacity="1" fill-rule="nonzero"/><path fill="#000000" d="M 397.402344 315.804688 C 394.464844 317.929688 391.851562 319.398438 388.257812 320.542969 L 388.257812 308.457031 C 392.992188 306.820312 397.566406 304.535156 400.671875 301.105469 L 413.414062 301.105469 L 413.414062 343.574219 L 397.242188 343.574219 L 397.242188 315.804688 Z M 397.402344 315.804688 " fill-opacity="1" fill-rule="nonzero"/></svg>