<svg width="600" height="525" viewBox="0 0 600 525" fill="none" xmlns="http://www.w3.org/2000/svg">
<circle cx="399.13" cy="200.87" r="200.87" fill="url(#paint0_linear_465_2)"/>
<circle cx="338.609" cy="323.478" r="200.87" fill="url(#paint1_linear_465_2)"/>
<circle cx="200.87" cy="288.522" r="200.87" fill="url(#paint2_linear_465_2)"/>
<path d="M507.653 433.565L586.239 275.641C330.571 240.322 244.641 294.97 163.305 485.739L284.348 517.043C404.54 530.87 449.724 502.235 507.653 433.565Z" fill="url(#paint3_linear_465_2)"/>
<ellipse cx="260.295" cy="246.61" rx="189.452" ry="189.184" fill="#FDD168" fill-opacity="0.5"/>
<ellipse cx="259.222" cy="249.025" rx="139.54" ry="139.54" fill="#FDD168"/>
<ellipse cx="257.88" cy="247.147" rx="161.813" ry="162.349" fill="#FDD168" fill-opacity="0.75"/>
<path d="M393.735 308.647C389.495 285.613 425.582 281.858 463.719 270.493L515.761 304.158C499.25 305.8 485.642 306.465 428.784 319.868L393.735 308.647Z" fill="#174160"/>
<g style="mix-blend-mode:difference">
<path d="M484.633 309.325L457.719 271.566C454.788 298.315 449.634 308.846 413.253 325.235L484.633 309.325Z" fill="#174160" fill-opacity="0.75"/>
</g>
<path d="M400.269 181.505L408.423 193.763L400.269 215.213L382.942 195.806C379.766 190.29 380.515 189.393 385.773 191.209L382.942 187.634C380.751 181.555 383.327 181.011 388.604 183.548L388.038 182.527C385.404 176.691 388.596 175.41 392.115 179.463L395.173 184.57C392.621 178.805 393.495 173.067 400.269 181.505Z" fill="#FDAA91"/>
<path d="M419.693 212.291L404.407 222.727C397.728 209.539 390.786 199.975 407.682 193.506C408.286 186.834 411.365 181.161 417.509 182.026L414.234 193.506V204.986L419.693 212.291Z" fill="#FDAA91"/>
<path d="M428.296 321.02L396.162 296.254C388.356 306.996 397.448 325.707 418.656 372.706C429.943 375.393 432.679 371.509 435.794 361.938C430.666 336.696 430.142 324.09 428.296 321.02Z" fill="#174160"/>
<path d="M471.678 299.785C465.136 295.157 461.236 286.928 456.905 272.639L527.261 291.341C531.896 303.22 517.596 317.5 480.23 348.338C481.444 352.169 482.136 354.678 483.436 361.004C483.605 365.522 482.66 376.381 483.436 423.278C473.031 431.253 469.588 431.154 465.265 427.5C456.963 394.811 448.558 377.343 447.093 345.171C446.348 337.721 459.994 318.844 471.678 299.785Z" fill="#174860"/>
<path d="M465.242 422.729C468.391 428.307 472.061 427.361 482.464 417.422C483.172 410.97 483.245 407.36 482.464 400.909C471.429 407.952 465.99 409.819 459.408 404.447C462.495 416.59 463.722 420.279 465.242 422.729Z" fill="#CA8239"/>
<path d="M433.366 226.636L439.648 220.311L450.117 210.824L464.775 227.69L452.211 241.394C429.306 263.803 422.99 256.556 400.909 215.04L414.52 205.553L433.366 226.636Z" fill="#CA8239"/>
<path d="M474.022 424.344C467.279 420.7 463.83 419.225 461.106 422.441C461.929 427.08 461.524 428.002 459.66 448.537C458.156 451.766 457.578 453.002 453.583 457.208C454.557 465.723 456.381 468.766 462.771 468.128C474.488 464.693 477.868 461.938 482.453 456.679C485.411 447.531 485.04 439.122 485.73 434.441C486.42 429.759 491.665 428.061 492.496 421.088C488.116 413.642 485.736 411.018 481.79 412.335C479.732 417.902 478.28 420.749 474.022 424.344Z" fill="#DDE7B8"/>
<path d="M400.269 181.505L408.423 193.763L400.269 215.213L382.942 195.806C379.766 190.29 380.515 189.393 385.773 191.209L382.942 187.634C380.751 181.555 383.327 181.011 388.604 183.548L388.038 182.527C385.404 176.691 388.596 175.41 392.115 179.463L395.173 184.57C392.621 178.805 393.495 173.067 400.269 181.505Z" fill="#174860"/>
<path d="M422.376 211.879L403.815 222.727C395.705 209.019 387.275 199.077 407.792 192.352C408.526 185.417 412.265 179.52 419.725 180.42L415.748 192.352V204.285L422.376 211.879Z" fill="#174860"/>
<path d="M433.134 347.24C422.003 354.007 416.704 355.681 409.496 353.64L416.587 369.781L435.794 360.597L433.134 347.24Z" fill="#CA8239"/>
<path d="M423.924 367.141C417.21 363.445 413.773 361.943 411.024 365.138C411.811 369.783 411.398 370.702 409.374 391.221C407.846 394.438 407.258 395.67 403.231 399.844C404.138 408.367 405.938 411.424 412.333 410.836C424.077 407.493 427.478 404.764 432.104 399.54C435.133 390.416 434.828 382.004 435.554 377.328C436.28 372.652 441.539 370.995 442.424 364.029C438.102 356.549 435.742 353.907 431.786 355.193C429.684 360.743 428.211 363.579 423.924 367.141Z" fill="#DDE7B8"/>
<ellipse cx="481.949" cy="166.911" rx="1.07338" ry="3.75684" fill="#1C4839"/>
<ellipse cx="470.947" cy="166.911" rx="1.34173" ry="3.75684" fill="#1C4839"/>
<path d="M309.824 411.593L300.01 393.777L334.972 381.051L338.652 402.049C331.937 409.646 328.039 413.788 309.824 411.593Z" fill="#BFC7CD"/>
<ellipse cx="217.485" cy="439.477" rx="24.8195" ry="37.2488" transform="rotate(-65.3656 217.485 439.477)" fill="#D9D9D9"/>
<ellipse cx="220.651" cy="434.153" rx="10.3097" ry="15.4726" transform="rotate(-65.3656 220.651 434.153)" fill="#1E1E1E"/>
<rect x="165.135" y="423.032" width="14.128" height="21.2031" transform="rotate(-65.3656 165.135 423.032)" fill="#D9D9D9"/>
<rect x="216.226" y="417.476" width="14.128" height="21.2031" transform="rotate(-65.3656 216.226 417.476)" fill="#D9D9D9"/>
<rect x="194.262" y="465.374" width="14.128" height="21.2031" transform="rotate(-65.3656 194.262 465.374)" fill="#D9D9D9"/>
<rect x="241.187" y="457.907" width="14.128" height="21.2031" transform="rotate(-65.3656 241.187 457.907)" fill="#D9D9D9"/>
<rect width="18.0326" height="18" transform="matrix(-0.527161 -0.849766 0.987229 -0.159305 177.293 453.902)" fill="#D9D9D9"/>
<rect width="18.0326" height="18" transform="matrix(-0.527161 -0.849766 0.987229 -0.159305 194.681 416.976)" fill="#D9D9D9"/>
<rect width="18.0326" height="18" transform="matrix(-0.527161 -0.849766 0.987229 -0.159305 232.783 478.432)" fill="#D9D9D9"/>
<rect width="18.0326" height="18" transform="matrix(-0.527161 -0.849766 0.987229 -0.159305 248.169 441.832)" fill="#D9D9D9"/>
<rect x="167.739" y="424.227" width="14.128" height="21.2031" transform="rotate(-65.3656 167.739 424.227)" fill="#D9D9D9"/>
<rect x="215.59" y="418.865" width="14.128" height="21.2031" transform="rotate(-65.3656 215.59 418.865)" fill="#D9D9D9"/>
<rect x="194.899" y="463.985" width="14.128" height="21.2031" transform="rotate(-65.3656 194.899 463.985)" fill="#D9D9D9"/>
<rect x="239.102" y="456.951" width="14.128" height="21.2031" transform="rotate(-65.3656 239.102 456.951)" fill="#D9D9D9"/>
<ellipse cx="16.1413" cy="24.2246" rx="16.1413" ry="24.2246" transform="matrix(-0.297555 -0.954705 -0.954705 0.297555 403.847 467.674)" fill="#D9D9D9"/>
<ellipse cx="6.70485" cy="10.0625" rx="6.70485" ry="10.0625" transform="matrix(-0.297555 -0.954705 -0.954705 0.297555 386.445 460.733)" fill="#1E1E1E"/>
<rect width="9.18813" height="13.7894" transform="matrix(-0.297555 -0.954705 -0.954705 0.297555 411.049 453.205)" fill="#D9D9D9"/>
<rect width="9.18813" height="13.7894" transform="matrix(-0.297555 -0.954705 -0.954705 0.297555 378.552 445.385)" fill="#D9D9D9"/>
<rect width="9.18813" height="13.7894" transform="matrix(-0.297555 -0.954705 -0.954705 0.297555 388.75 478.102)" fill="#D9D9D9"/>
<rect width="9.18813" height="13.7894" transform="matrix(-0.297555 -0.954705 -0.954705 0.297555 359.101 469.395)" fill="#D9D9D9"/>
<rect width="11.7275" height="11.7062" transform="matrix(0.631183 -0.775634 -0.958869 -0.283851 400.647 472.109)" fill="#D9D9D9"/>
<rect width="11.7275" height="11.7062" transform="matrix(0.631183 -0.775634 -0.958869 -0.283851 392.492 446.848)" fill="#D9D9D9"/>
<rect width="11.7275" height="11.7062" transform="matrix(0.631183 -0.775634 -0.958869 -0.283851 362.82 483.331)" fill="#D9D9D9"/>
<rect width="11.7275" height="11.7062" transform="matrix(0.631183 -0.775634 -0.958869 -0.283851 355.929 458.448)" fill="#D9D9D9"/>
<rect width="9.18813" height="13.7894" transform="matrix(-0.297555 -0.954705 -0.954705 0.297555 409.27 453.759)" fill="#D9D9D9"/>
<rect width="9.18813" height="13.7894" transform="matrix(-0.297555 -0.954705 -0.954705 0.297555 378.848 446.333)" fill="#D9D9D9"/>
<rect width="9.18813" height="13.7894" transform="matrix(-0.297555 -0.954705 -0.954705 0.297555 388.454 477.154)" fill="#D9D9D9"/>
<rect width="9.18813" height="13.7894" transform="matrix(-0.297555 -0.954705 -0.954705 0.297555 360.524 468.952)" fill="#D9D9D9"/>
<path d="M295.572 401.579L279.079 373.012C304.459 373.709 317.327 369.166 337.834 352.607L344.019 386.275C332.734 398.457 326.182 405.099 295.572 401.579Z" fill="#D9D9D9"/>
<ellipse cx="258.812" cy="243.339" rx="105.805" ry="105.805" fill="#FDD9AC"/>
<path d="M364.544 229.309L159.111 280.647C166.684 312.625 222.816 355.159 254.743 357.284C268.524 358.2 277.125 380.683 277.125 382.718C311.922 391.624 324.745 384.024 342.236 360.336C341.504 348.887 341.127 342.508 340.201 330.832C360.676 286.557 369.036 263.037 364.544 229.309Z" fill="#FDD9AC"/>
<path d="M231.277 276.514L240.421 171.741L251.851 251.46L299.859 233.238L293 358.51L274.712 276.514H231.277Z" fill="#FCB400"/>
<path d="M187.842 276.514C206.511 291.509 245.45 321.726 251.851 322.637L223.275 288.472L187.842 276.514Z" fill="#FCB400"/>
<path d="M337.579 217.864L315.861 288.472L326.148 229.252L307.86 183.699L337.579 217.864Z" fill="#FCB400"/>
<path d="M437.243 53.8678L435.524 71.6326H440.109L437.243 53.8678Z" fill="#D9D9D9"/>
<path d="M438.389 89.3974L440.108 71.6326L435.524 71.6326L438.389 89.3974Z" fill="#D9D9D9"/>
<path d="M423.49 72.5639L437.816 74.498L437.816 69.3404L423.49 72.5639Z" fill="#D9D9D9"/>
<path d="M452.143 71.2744L437.816 69.3403L437.816 74.4979L452.143 71.2744Z" fill="#D9D9D9"/>
<path d="M555.293 134.095L553.574 151.86H558.158L555.293 134.095Z" fill="#D9D9D9"/>
<path d="M556.439 169.625L558.158 151.86L553.573 151.86L556.439 169.625Z" fill="#D9D9D9"/>
<path d="M541.54 152.792L555.866 154.726L555.866 149.568L541.54 152.792Z" fill="#D9D9D9"/>
<path d="M570.193 151.502L555.866 149.568L555.866 154.725L570.193 151.502Z" fill="#D9D9D9"/>
<path d="M513.46 333.52L511.74 351.285H516.325L513.46 333.52Z" fill="#D9D9D9"/>
<path d="M514.606 369.05L516.325 351.285L511.74 351.285L514.606 369.05Z" fill="#D9D9D9"/>
<path d="M499.707 352.216L514.033 354.15L514.033 348.992L499.707 352.216Z" fill="#D9D9D9"/>
<path d="M528.359 350.926L514.033 348.992L514.033 354.15L528.359 350.926Z" fill="#D9D9D9"/>
<g style="mix-blend-mode:difference">
<path d="M416.062 309.134L428.564 321.835L435.383 356.472C438.997 357.954 440.563 360.262 442.77 366.286C440.18 370.729 438.51 373.101 435.383 377.254C435.176 387.663 434.395 392.307 432.542 399.768C422.207 407.792 416.393 412.502 406.97 410.736C406.363 407.529 405.659 405.441 404.129 401.5C406.851 405.254 408.559 406 412.084 403.809C425.457 399.484 427.895 393.454 430.269 381.295C433.564 371.113 434.728 365.879 428.564 362.245C429.959 346.575 427.527 335.196 416.062 309.134Z" fill="#174860" fill-opacity="0.75"/>
</g>
<g style="mix-blend-mode:difference">
<path d="M450.152 211.993L441.161 220.059C451.123 234.41 448.746 240.363 441.161 250.098C449.21 245.002 453.023 240.902 459.408 232.854L450.152 211.993Z" fill="#174160"/>
</g>
<path d="M439.326 219.029C450.106 223.26 453.748 228.255 456.707 240.873C477.884 223.315 480.417 212.833 475.435 196.463C471.091 193.144 468.559 197.179 461.035 199.817L439.326 219.029Z" fill="#294B29"/>
<path d="M519.17 199.802C501.844 196.522 491.01 191.136 470.976 196.667C457.494 211.79 462.463 232.053 457.261 272.346C477.447 289.045 494.628 293.323 526.504 290.718C533.622 251.394 524.912 234.207 519.17 199.802Z" fill="#DDE7B8"/>
<path d="M486.422 202.532L483.023 185.198L496.053 177.108L503.417 202.532C493.951 207.583 489.78 208.385 486.422 202.532Z" fill="#CA8239"/>
<path d="M548.51 240.313L519.678 249.275C505.209 224.497 503.669 213.329 515.501 199.453C521.314 197.883 524.722 198.236 531.343 203.578L548.51 240.313Z" fill="#294B29"/>
<path d="M537.92 267.409C540.347 263.936 539.75 257.878 536.041 241.511C514.559 242.967 508.9 246.544 513.487 259.085C523.208 269.883 528.606 273.802 537.92 267.409Z" fill="#CA8239"/>
<path d="M513.713 242.936L519.567 239.365L525.422 257.221L524.251 266.15C523.551 275.008 519.567 272.697 518.982 266.15L518.396 271.507C515.286 277.568 513.695 278.469 511.371 271.507V261.983L504.346 271.507C499.943 272.382 500.176 272.422 499.662 267.935L506.687 257.221L499.662 264.364C496.49 264.438 495.351 263.942 496.15 260.793L506.687 248.888L513.713 242.936Z" fill="#174860"/>
<path d="M526.237 239.101C519.578 238.06 516.772 241.472 516.724 246.166L521.899 258.65C525.013 258.186 526.529 256.402 528.086 245.743C535.742 248.21 538.53 247.565 541.249 243.391C535.151 240.713 531.681 238.991 526.237 239.101Z" fill="#174860"/>
<g style="mix-blend-mode:difference" opacity="0.75">
<path d="M466.922 201.796C459.115 208.581 453.737 214.519 449.748 224.527C454.29 230.729 455.714 234.216 456.979 240.438L459.992 237.028C460.512 223.21 462.171 213.694 466.922 201.796Z" fill="#174860"/>
</g>
<path d="M461.914 132.244C488.556 136.028 509.901 136.529 506.564 147.937C517.178 156.908 511.657 159.928 511.525 175.4L497.882 181.939L458.193 159.707C452.526 156.429 453.106 154.742 456.953 151.86C452.339 144.725 451.605 141.895 459.433 142.706C453.517 133.858 453.486 131.189 461.914 132.244Z" fill="#174860"/>
<path d="M498.764 183.175L495.053 183.182L496.648 174.522C505.576 163.946 510.981 169.157 511.54 170.237C512.099 171.316 515.086 175.529 511.648 180.561C505.934 185.899 503.113 186.554 498.764 183.175Z" fill="#CA8239"/>
<path d="M497.865 185.558C464.952 198.938 457.662 191.094 466.8 151.917C471.136 151.228 489.378 161.66 499.6 155.57C504.863 167.447 499.242 173.628 497.865 185.558Z" fill="#CA8239"/>
<path d="M490.536 178.182L475.509 180.553C476.286 187.219 478.82 188.359 485.527 187.665C488.644 185.645 490.117 184.111 490.536 178.182Z" fill="#1C4839"/>
<path d="M489.781 178.487L476.743 180.495C477.676 182.953 478.041 182.393 484.704 181.708C487.759 180.751 489.505 180.744 489.781 178.487Z" fill="#D9D9D9"/>
<path d="M477.029 168.528L474.574 173.741C468.222 177.343 464.882 177.359 459.243 174.038C457.564 168.03 457.93 162.859 459.243 156.789C473.739 154.736 481.856 156.427 497.271 157.806C499.673 163.79 499.86 167.231 497.571 173.296C492.061 177.087 488.758 177.583 482.24 173.593L479.585 168.479L477.029 168.528Z" fill="#174860"/>
<path d="M472.971 169.733L470.516 174.945C464.164 178.547 460.824 178.564 455.185 175.242C453.505 169.234 453.871 164.063 455.185 157.993C469.68 155.94 477.797 157.631 493.212 159.01C495.615 164.994 495.802 168.435 493.512 174.5C488.003 178.291 484.7 178.787 478.181 174.797L475.526 169.683L472.971 169.733Z" fill="#174860"/>
<path d="M459.592 156.731L455.294 157.877L464.177 160.743L459.592 156.731Z" fill="#174860"/>
<g style="mix-blend-mode:screen">
<path d="M472.971 169.675L470.516 174.887C464.164 178.489 460.824 178.506 455.185 175.184C453.505 169.176 453.871 164.005 455.185 157.935C469.68 155.883 477.797 157.573 493.212 158.952C495.615 164.937 495.802 168.377 493.512 174.442C488.003 178.233 484.7 178.729 478.181 174.739L475.526 169.625L472.971 169.675Z" fill="#174860"/>
</g>
<g style="mix-blend-mode:difference">
<path d="M468.388 133.636C493.684 136.059 507.243 137.614 507.316 147.969C514.121 152.663 514.733 157.87 511.896 170.327C514.334 178.197 513.17 181.676 503.882 185.233C502.671 185.86 501.051 184.897 497.584 182.366L501.592 195.552L516.476 198.418C521.888 197.514 525.129 198.617 531.36 204.151L547.962 239.696L539.947 242.562C541.614 243.004 540.608 244.127 536.512 247.148C538.78 255.925 539.415 264.361 536.512 267.214C534.057 269.271 532.435 270.055 529.07 270.653L526.78 290.145C528.847 306.705 513.624 320.905 480.41 348.048C483.797 356.693 483.224 378.809 483.559 411.97C486.131 410.727 487.512 412.209 491.86 420.283L485.563 433.182C484.735 445.992 483.917 451.218 482.128 456.401C456.529 472.61 454.496 466.466 453.504 456.401C476.904 445.706 471.605 437.499 474.113 424.296C476.191 393.535 476.608 376.199 466.671 344.035C488.451 328.12 496.829 317.096 501.592 291.865C508.833 287.084 511.506 274.848 514.759 242.562C504.27 220.253 499.378 210.792 494.722 206.445C498.688 204.562 498.129 196.159 497.584 182.366C508.562 181.639 509.998 177.75 511.896 170.327C509.15 153.128 477.425 135.901 468.388 133.636Z" fill="#174860"/>
</g>
<g style="mix-blend-mode:plus-lighter" opacity="0.5">
<path d="M459.408 166.06L461.72 159.398H466.922L464.61 166.06L466.922 168.281L464.61 173.833L459.408 175.498L461.72 168.281L459.408 166.06Z" fill="#FCB400"/>
</g>
<g style="mix-blend-mode:plus-lighter" opacity="0.5">
<path d="M480.876 165.431L483.188 158.324H488.389L486.078 165.431L488.389 167.8L486.078 173.722L480.876 175.498L483.188 167.8L480.876 165.431Z" fill="#FCB400"/>
</g>
<defs>
<linearGradient id="paint0_linear_465_2" x1="399.13" y1="0" x2="399.13" y2="401.739" gradientUnits="userSpaceOnUse">
<stop stop-color="#417741"/>
<stop offset="1" stop-color="#44AE8A"/>
</linearGradient>
<linearGradient id="paint1_linear_465_2" x1="338.609" y1="122.609" x2="338.609" y2="524.348" gradientUnits="userSpaceOnUse">
<stop stop-color="#417741"/>
<stop offset="1" stop-color="#44AE8A"/>
</linearGradient>
<linearGradient id="paint2_linear_465_2" x1="200.87" y1="87.6521" x2="200.87" y2="489.391" gradientUnits="userSpaceOnUse">
<stop stop-color="#417741"/>
<stop offset="1" stop-color="#44AE8A"/>
</linearGradient>
<linearGradient id="paint3_linear_465_2" x1="375.131" y1="268.695" x2="375.131" y2="517.043" gradientUnits="userSpaceOnUse">
<stop stop-color="#417741"/>
<stop offset="1" stop-color="#44AE8A"/>
</linearGradient>
</defs>
</svg>
