<svg width="343" height="350" viewBox="0 0 343 350" fill="none" xmlns="http://www.w3.org/2000/svg">
<path d="M119.293 131.087C77.2375 136.062 54.9277 140.868 19.0322 151.883C17.7835 152.267 16.7879 153.251 16.3914 154.496C4.75649 191.019 -0.35913 214.619 0.0195246 269.208C0.0252763 270.037 0.296151 270.87 0.782735 271.541C23.2916 302.601 39.0783 319.269 73.0295 346.5C77.1293 349.683 80.0503 350.458 87.0295 349C123.464 339.412 143.307 331.567 177.529 312.5C181.658 310.061 183.542 307.941 186.029 302.5C202.002 260.318 209.866 235.664 219.008 190.585C219.325 189.024 218.676 187.406 217.368 186.497C185.75 164.534 166.408 152.246 128.429 133.2C128.167 133.069 127.886 132.964 127.602 132.893L120.74 131.178C120.27 131.06 119.774 131.03 119.293 131.087Z" fill="#B6BFCD"/>
<path d="M118.963 131.005C74.1509 137.532 51.1439 142.079 17.3499 152.888C17.1997 152.936 17.1585 153.132 17.2796 153.233L82.971 207.976C82.9902 207.992 83.0064 208.012 83.0184 208.033C95.0797 229.98 95.4118 248.638 94.0619 282.944C94.0527 283.178 94.3875 283.238 94.4564 283.014C102.646 256.407 108.086 241.581 125.959 222.045C125.985 222.016 126.021 221.995 126.059 221.985C166.673 211.639 185.655 205.023 218.701 187.657C218.835 187.587 218.846 187.395 218.721 187.31C185.595 164.836 166.236 152.911 130.024 133.513C130.008 133.504 129.991 133.498 129.974 133.494L119.036 131.008C119.012 131.003 118.987 131.002 118.963 131.005Z" fill="#CED5E0"/>
<ellipse cx="27" cy="213" rx="10" ry="15" fill="#496673"/>
<ellipse cx="36.9031" cy="256.388" rx="8.99889" ry="14.2715" transform="rotate(-8.02495 36.9031 256.388)" fill="#496673"/>
<ellipse cx="55.5" cy="298.79" rx="8.45941" ry="14.7213" transform="rotate(-8.31751 55.5 298.79)" fill="#496673"/>
<ellipse cx="79.3102" cy="164.247" rx="17.9528" ry="9" transform="rotate(10.6848 79.3102 164.247)" fill="#496673"/>
<ellipse cx="114.597" cy="191.187" rx="18.6516" ry="9.05497" transform="rotate(7.91917 114.597 191.187)" fill="#496673"/>
<ellipse cx="124.873" cy="153.427" rx="18" ry="9" transform="rotate(8.03424 124.873 153.427)" fill="#496673"/>
<ellipse cx="161.871" cy="179.182" rx="18.5" ry="9" transform="rotate(12.3706 161.871 179.182)" fill="#496673"/>
<ellipse cx="136.662" cy="289.142" rx="12.9453" ry="20.0593" transform="rotate(32.3053 136.662 289.142)" fill="#496673"/>
<ellipse cx="181.005" cy="243.384" rx="13.1245" ry="19.442" transform="rotate(29.5011 181.005 243.384)" fill="#496673"/>
<path d="M125.592 67.5365C132.427 102.069 141.689 130.202 158.684 177.72C159.204 179.173 160.277 180.389 161.656 181.083C189.721 195.206 204.282 203.753 239.5 216C257.974 221.091 264.657 220.81 271.5 216C287.727 202.643 296.518 194.972 310 180L341.028 146.108C341.979 145.069 342.533 143.751 342.576 142.343C342.956 129.667 344.048 64.0815 327.564 24.9361C326.904 23.3674 325.565 22.2029 323.941 21.6947C286.391 9.94828 260.171 4.84149 219.334 1.1634C218.146 1.05638 216.921 1.31914 215.877 1.89627C166.941 28.9421 147.589 41.3632 127.149 62.2751C125.793 63.6624 125.215 65.6334 125.592 67.5365Z" fill="#0F936D"/>
<path d="M220.94 90.6329L127.32 62.5958C127.175 62.5524 127.131 62.3679 127.238 62.2608C153.256 36.1127 172.454 22.8596 217.465 0.166756C217.488 0.155429 217.511 0.148346 217.536 0.1461C234.028 -1.33204 285.241 8.60242 325.164 21.0444C325.312 21.0907 325.351 21.2811 325.234 21.3843L260.538 78.6169C260.513 78.6391 260.494 78.6679 260.482 78.6995C251.837 102.723 249.966 118.901 250.472 150.056C250.476 150.291 250.137 150.342 250.073 150.116C242.744 123.9 236.688 110.278 221.04 90.7002C221.014 90.6684 220.979 90.6445 220.94 90.6329Z" fill="#0D795A"/>
<ellipse cx="196.965" cy="141.87" rx="19" ry="26" transform="rotate(-27.9276 196.965 141.87)" fill="#D9D9D9"/>
<ellipse cx="177.446" cy="53.6655" rx="18" ry="9.5" transform="rotate(-10.6573 177.446 53.6655)" fill="#D9D9D9"/>
<ellipse cx="226.446" cy="40.6655" rx="18" ry="9.5" transform="rotate(-10.6573 226.446 40.6655)" fill="#D9D9D9"/>
<ellipse cx="275.446" cy="28.6655" rx="18" ry="9.5" transform="rotate(-10.6573 275.446 28.6655)" fill="#D9D9D9"/>
<ellipse cx="278.178" cy="102.461" rx="10" ry="14" transform="rotate(-9.5226 278.178 102.461)" fill="#D9D9D9"/>
<ellipse cx="312.178" cy="74.4613" rx="10" ry="14" transform="rotate(-9.5226 312.178 74.4613)" fill="#D9D9D9"/>
<ellipse cx="293.178" cy="146.461" rx="10" ry="14" transform="rotate(-9.5226 293.178 146.461)" fill="#D9D9D9"/>
<ellipse cx="325.178" cy="117.461" rx="10" ry="14" transform="rotate(-9.5226 325.178 117.461)" fill="#D9D9D9"/>
</svg>
