<svg width="383" height="361" viewBox="0 0 383 361" fill="none" xmlns="http://www.w3.org/2000/svg">
<ellipse cx="147.335" cy="206.999" rx="16" ry="64" transform="rotate(-33.5276 147.335 206.999)" fill="#56AB6E"/>
<ellipse cx="143.15" cy="231.775" rx="16" ry="64" transform="rotate(-37.4638 143.15 231.775)" fill="#56AB6E"/>
<ellipse cx="170.952" cy="221.277" rx="16" ry="64" transform="rotate(-7.69425 170.952 221.277)" fill="#56AB6E"/>
<ellipse cx="157.673" cy="217.359" rx="21.2427" ry="64" transform="rotate(-12.1455 157.673 217.359)" fill="#56AB6E"/>
<ellipse cx="246.273" cy="216" rx="16" ry="64" transform="rotate(25.0513 246.273 216)" fill="#56AB6E"/>
<ellipse cx="222.949" cy="225.345" rx="16" ry="64" transform="rotate(21.1151 222.949 225.345)" fill="#56AB6E"/>
<ellipse cx="246.401" cy="243.597" rx="16" ry="64" transform="rotate(50.8847 246.401 243.597)" fill="#56AB6E"/>
<ellipse cx="242.821" cy="230.223" rx="21.2427" ry="64" transform="rotate(46.4335 242.821 230.223)" fill="#56AB6E"/>
<circle cx="191.5" cy="249.5" r="82.5" fill="#9CC9FF"/>
<path d="M172.687 198.789C195.865 196.754 197.803 186.098 195.191 171.021C194.786 168.684 192.718 167.009 190.346 167.052C171.142 167.403 162.167 170.358 145.006 181.5C119.473 201.342 110.394 212.315 109 254.517C108.992 292.306 143.422 324.881 169.774 329.05C172.696 329.512 175.016 326.945 174.721 324.002L170.5 281.831C170.506 267.061 171.578 259.171 181.394 255.618C183.634 254.807 185.32 252.802 185.147 250.426C184.507 241.642 181.808 222.043 170.5 225.53C156.007 230 147.507 201 172.687 198.789Z" fill="#1C4839" stroke="#1C4839"/>
<path d="M211.5 214.5C196.264 198.772 210.736 177.675 230.472 177.016C231.148 176.993 231.804 177.13 232.409 177.432C237.4 179.925 261.606 193.605 271.001 228.5C281.5 267.5 259 310.5 229 323C199.001 335.5 206.191 296.145 220.001 271C228.582 251.459 227 230.5 211.5 214.5Z" fill="#1C4839" stroke="#1C4839"/>
<ellipse cx="134.5" cy="322" rx="16.5" ry="14" fill="#3B5D50"/>
<ellipse cx="155.5" cy="316" rx="16.5" ry="14" fill="#3B5D50"/>
<ellipse cx="179" cy="327" rx="17" ry="14" fill="#3B5D50"/>
<ellipse cx="228.5" cy="329.5" rx="16.5" ry="13.5" fill="#3B5D50"/>
<ellipse cx="245.5" cy="322" rx="16.5" ry="14" fill="#3B5D50"/>
<ellipse cx="266.5" cy="316" rx="16.5" ry="14" fill="#3B5D50"/>
<ellipse cx="113.5" cy="313.5" rx="16.5" ry="13.5" fill="#3B5D50"/>
<ellipse cx="203.5" cy="322" rx="16.5" ry="14" fill="#3B5D50"/>
<path d="M85.0091 265.277C92.4413 270.446 150.766 297.655 150.766 297.655C150.766 297.655 150.955 288.94 140.571 273.94C130.187 258.94 83.9105 251.635 77.4186 251.449C70.9267 251.263 77.5769 260.107 85.0091 265.277Z" fill="#3B5D50"/>
<path d="M86.282 288.021C96.9887 291.48 177.075 304.163 177.075 304.163C177.075 304.163 169.453 295.36 152.203 282.105C134.954 268.851 80.9057 273.566 72.8291 275.232C64.7526 276.898 75.5753 284.561 86.282 288.021Z" fill="#56AB6E" stroke="#56AB6E"/>
<path d="M68.728 277.502C116.047 279.562 139.351 286.764 177.097 306.753" stroke="black" stroke-width="0.5"/>
<path d="M105.874 252.746C133.513 268.426 172.664 298.564 172.664 298.564C172.664 298.564 168.549 283.051 157.111 249.545C145.673 216.04 80.7973 183.129 58.5869 183.583C36.3765 184.038 78.2344 237.067 105.874 252.746Z" fill="#56AB6E" stroke="#56AB6E"/>
<path d="M53.2253 185.855C114.428 223.329 138.638 250.161 172.441 303.429" stroke="black" stroke-width="0.5"/>
<path d="M74.7236 226.662L110.47 226.767L112.346 201.746" stroke="black" stroke-width="0.5"/>
<path d="M117.635 259.926L146.362 265.496L150.856 235.95" stroke="black" stroke-width="0.5"/>
<path d="M296.138 268.921C288.592 273.924 229.673 299.822 229.673 299.822C229.673 299.822 229.68 291.105 240.396 276.341C251.112 261.577 297.541 255.307 304.035 255.267C310.53 255.226 303.684 263.919 296.138 268.921Z" fill="#3B5D50"/>
<path d="M294.357 291.631C283.576 294.851 203.226 305.741 203.226 305.741C203.226 305.741 211.043 297.11 228.585 284.244C246.126 271.379 300.055 277.3 308.092 279.146C316.13 280.993 305.139 288.412 294.357 291.631Z" fill="#56AB6E" stroke="#56AB6E"/>
<path d="M312.142 281.508C264.789 282.509 241.33 289.189 203.146 308.33" stroke="black" stroke-width="0.5"/>
<path d="M275.559 255.928C247.576 270.986 207.762 300.242 207.762 300.242C207.762 300.242 212.222 284.824 224.406 251.583C236.59 218.341 302.184 186.888 324.379 187.839C346.574 188.79 303.541 240.87 275.559 255.928Z" fill="#56AB6E" stroke="#56AB6E"/>
<path d="M329.688 190.23C267.663 226.327 242.86 252.611 207.876 305.11" stroke="black" stroke-width="0.5"/>
<path d="M307.284 230.546L271.543 229.852L270.227 204.795" stroke="black" stroke-width="0.5"/>
<path d="M263.64 262.843L234.796 267.769L230.962 238.131" stroke="black" stroke-width="0.5"/>
<path d="M178.005 173.793C177.948 166.945 182.13 59.7161 182.13 59.7161L184.879 57C184.879 57 188.946 169.576 189.004 173.793C189.062 178.011 178.062 180.641 178.005 173.793Z" fill="#EAC83E"/>
<path d="M163.677 30.6515C167.801 42.5644 171.438 47.0544 178.177 54.6515C184.209 60.7321 185.911 61.0005 183.677 51.6515C177.242 32.0107 170.677 22.6514 161.177 5.15136C161.177 5.15136 155 -7.07965 157.677 6.15148C160.354 19.3826 162.372 27.9542 163.677 30.6515Z" fill="#EAC83E"/>
<path d="M169.77 87.2509C178.418 77.8691 180.653 72.2628 184.147 62.1972C186.631 53.5069 186.034 51.6967 178.754 58.0635C164.317 73.1708 159.157 83.8452 148.146 101.048C148.146 101.048 140.222 112.611 150.763 104.081C161.305 95.5514 167.994 89.7446 169.77 87.2509Z" fill="#EAC83E"/>
<path d="M215.92 54.4004C204.806 51.268 199.217 51.8513 189.368 53.3323C181.056 55.0577 179.724 56.3494 187.772 59.6562C205.851 65.1278 216.817 64.7739 235.457 66.4611C235.457 66.4611 248.174 68.0319 237.109 62.9423C226.044 57.8526 218.686 54.7949 215.92 54.4004Z" fill="#EAC83E"/>
<circle cx="182.504" cy="56.5" r="2" stroke="black"/>
<path d="M236.079 218.964C236.038 214.04 239.045 136.938 239.045 136.938L241.022 134.985C241.022 134.985 243.946 215.931 243.988 218.964C244.03 221.997 236.12 223.888 236.079 218.964Z" fill="#EAC83E"/>
<path d="M225.777 116.04C228.742 124.605 231.358 127.834 236.203 133.297C240.54 137.669 241.764 137.862 240.158 131.139C235.53 117.017 230.81 110.287 223.979 97.704C223.979 97.704 219.538 88.9095 221.463 98.4232C223.388 107.937 224.838 114.1 225.777 116.04Z" fill="#EAC83E"/>
<path d="M230.158 156.737C236.376 149.991 237.983 145.96 240.496 138.722C242.281 132.473 241.852 131.172 236.618 135.75C226.237 146.613 222.527 154.288 214.609 166.657C214.609 166.657 208.912 174.971 216.492 168.838C224.071 162.705 228.881 158.53 230.158 156.737Z" fill="#EAC83E"/>
<path d="M263.341 133.116C255.35 130.864 251.331 131.283 244.249 132.348C238.273 133.589 237.315 134.517 243.102 136.895C256.102 140.829 263.987 140.575 277.39 141.788C277.39 141.788 286.533 142.918 278.577 139.258C270.621 135.598 265.331 133.4 263.341 133.116Z" fill="#EAC83E"/>
<path d="M240.612 134.626C240.612 135.342 240.031 135.923 239.315 135.923C238.598 135.923 238.017 135.342 238.017 134.626C238.017 133.909 238.598 133.328 239.315 133.328C240.031 133.328 240.612 133.909 240.612 134.626Z" stroke="black"/>
<path d="M129.148 205.342C129.111 201.034 131.851 133.57 131.851 133.57L133.653 131.862C133.653 131.862 136.318 202.689 136.356 205.342C136.394 207.996 129.186 209.651 129.148 205.342Z" fill="#EAC83E"/>
<path d="M119.759 115.284C122.461 122.779 124.845 125.604 129.261 130.384C133.213 134.21 134.329 134.378 132.865 128.497C128.648 116.14 124.346 110.251 118.12 99.241C118.12 99.241 114.072 91.5458 115.827 99.8702C117.581 108.195 118.903 113.587 119.759 115.284Z" fill="#EAC83E"/>
<path d="M123.751 150.894C129.419 144.991 130.884 141.464 133.174 135.131C134.801 129.664 134.41 128.525 129.639 132.531C120.178 142.035 116.797 148.751 109.581 159.574C109.581 159.574 104.388 166.849 111.296 161.483C118.204 156.116 122.588 152.463 123.751 150.894Z" fill="#EAC83E"/>
<path d="M153.995 130.226C146.711 128.255 143.049 128.622 136.594 129.554C131.147 130.64 130.274 131.452 135.549 133.533C147.396 136.975 154.583 136.753 166.798 137.814C166.798 137.814 175.132 138.802 167.88 135.6C160.629 132.398 155.807 130.474 153.995 130.226Z" fill="#EAC83E"/>
<path d="M133.235 131.547C133.235 132.121 132.745 132.62 132.097 132.62C131.449 132.62 130.959 132.121 130.959 131.547C130.959 130.974 131.449 130.474 132.097 130.474C132.745 130.474 133.235 130.974 133.235 131.547Z" stroke="black"/>
<path d="M39.2535 229C40.7535 232 46.7999 237.336 53.7535 236C56.041 232.693 58.2535 229 54.7535 224C51.1308 220.484 49.1412 219.1 45.7535 219C39.3446 219.519 37.7535 226 39.2535 229Z" fill="#3B5D50"/>
<path d="M45.7535 247.5C41.3877 247.018 34.7539 245 37.7535 250.5C40.7531 256 47.7535 260.5 47.7535 260.5C55.283 263.706 58.6225 263.218 64.2535 261.5C62.6013 257.224 50.1193 247.983 45.7535 247.5Z" fill="#3B5D50"/>
<path d="M348.354 233.034C346.593 236.045 339.493 241.398 331.329 240.058C328.643 236.739 326.045 233.034 330.155 228.017C334.408 224.489 336.744 223.1 340.722 223C348.247 223.521 350.115 230.024 348.354 233.034Z" fill="#3B5D50"/>
<path d="M340.722 251.597C345.848 251.112 353.637 249.089 350.115 254.607C346.593 260.126 338.374 264.641 338.374 264.641C329.533 267.857 325.612 267.368 319 265.644C320.94 261.353 335.596 252.082 340.722 251.597Z" fill="#3B5D50"/>
</svg>
