<svg xmlns="http://www.w3.org/2000/svg" xmlns:xlink="http://www.w3.org/1999/xlink" width="1080" zoomAndPan="magnify" viewBox="0 0 810 809.999993" height="1080" preserveAspectRatio="xMidYMid meet" version="1.0"><defs><clipPath id="55b9311ba2"><path d="M 0.132812 27.335938 L 809.867188 27.335938 L 809.867188 782.585938 L 0.132812 782.585938 Z M 0.132812 27.335938 " clip-rule="nonzero"/></clipPath></defs><path fill="#fadb5d" d="M 704.429688 552.714844 C 679.324219 567.777344 651.210938 575.703125 622.261719 579.285156 C 613.070312 530.816406 593.738281 480.320312 577.449219 442.828125 C 589.992188 426.371094 602.050781 409.550781 613.480469 392.300781 C 620.65625 381.476562 628.125 370.011719 635.488281 358.058594 C 662.816406 371.972656 688.363281 388.164062 711.207031 406.886719 C 767.730469 453.21875 771.023438 512.761719 704.429688 552.714844 Z M 583.984375 696.316406 C 533.4375 737.796875 452.792969 706.167969 406.835938 673.980469 C 398.410156 668.078125 390.355469 661.738281 382.585938 655.085938 C 405.042969 633.878906 425.945312 611.871094 444.742188 592.195312 C 489.035156 598.726562 532.183594 602.058594 571.800781 602.058594 C 584.386719 602.058594 597.570312 601.488281 610.949219 600.199219 C 616.5 637.679688 611.914062 673.398438 583.984375 696.316406 Z M 173.226562 698.757812 C 152.445312 654.996094 175.359375 586.390625 204.46875 524.894531 C 225.78125 534.28125 247.988281 542.839844 270.75 550.566406 C 292.996094 588.457031 318.808594 624.503906 348.566406 654.515625 C 274.777344 715.769531 200.300781 755.800781 173.226562 698.757812 Z M 125.894531 456.871094 C 78.480469 425.246094 30.179688 376.832031 92.152344 332.429688 C 113.40625 317.195312 138.640625 306.941406 165.417969 300.066406 C 176.640625 337.675781 189.175781 370.804688 196.695312 390.925781 C 204.085938 410.691406 212.449219 431.78125 221.859375 453.421875 C 216.964844 462.589844 212.21875 471.742188 207.632812 480.851562 C 205.332031 485.425781 202.421875 491.226562 199.132812 497.964844 C 173.554688 485.898438 148.992188 472.28125 125.894531 456.871094 Z M 209.113281 93.449219 C 287.109375 93.449219 354.234375 139.328125 410.066406 202.621094 C 387.734375 222.648438 366.644531 244.492188 346.78125 267.574219 C 320.105469 266.753906 293.617188 267.195312 267.617188 268.898438 C 241.542969 270.605469 212.015625 272.246094 182.652344 276.496094 C 159.339844 199.519531 138.957031 93.449219 209.113281 93.449219 Z M 566.597656 418.667969 C 549.957031 382.613281 532.128906 346.757812 511.96875 312.359375 C 545.8125 321.085938 578.953125 332.203125 610.21875 346.042969 C 595.804688 372.410156 580.464844 397.441406 566.597656 418.667969 Z M 423.679688 218.644531 C 439.6875 238.210938 454.683594 259.113281 468.679688 280.59375 C 437.425781 274.761719 405.824219 270.914062 374.332031 268.886719 C 375.070312 268.121094 375.800781 267.339844 376.539062 266.574219 C 390.988281 251.601562 406.753906 235.027344 423.679688 218.644531 Z M 236.6875 426.453125 C 225.859375 399.53125 215.992188 372.671875 206.609375 346.765625 C 202.972656 336.730469 195.949219 317.957031 188.472656 295.011719 C 226.960938 287.875 267.15625 286.484375 302.402344 286.484375 C 311.660156 286.484375 321.078125 286.65625 330.605469 286.964844 C 295.070312 330.925781 263.777344 378.609375 236.6875 426.453125 Z M 254.320312 521.117188 C 240.757812 516.089844 227.394531 510.671875 214.261719 504.878906 C 219.78125 493.945312 225.351562 483.375 230.773438 473.363281 C 238.050781 489.214844 245.894531 505.234375 254.320312 521.117188 Z M 286.132812 532.136719 C 270.855469 504.726562 257.402344 476.039062 245.210938 447.148438 C 251.023438 436.722656 256.320312 427.320312 260.703125 419.285156 C 286.777344 371.460938 319.738281 328.351562 356.300781 288.179688 C 398.105469 290.78125 441.613281 296.480469 484.519531 305.835938 C 511.835938 350.972656 534.804688 397.367188 553.332031 438.492188 C 540.339844 457.445312 529.738281 471.488281 524.164062 477.898438 C 513.238281 490.449219 481.429688 527 440.9375 568.335938 C 389.046875 560.148438 336.597656 548.472656 286.132812 532.136719 Z M 303.1875 560.910156 C 341.910156 572.464844 381.699219 581.664062 420.941406 588.402344 C 403.429688 605.671875 384.800781 623.226562 365.867188 639.769531 C 342.03125 616.4375 321.382812 589.683594 303.1875 560.910156 Z M 570.425781 477.71875 C 581.609375 504.234375 598.488281 542.429688 607.261719 580.765625 C 581.414062 582.683594 555.199219 581.554688 530.128906 579.296875 C 508.527344 577.351562 486.542969 574.882812 464.382812 571.808594 C 498.949219 536.453125 532.417969 499.742188 563.285156 461.007812 C 565.757812 466.71875 568.148438 472.304688 570.425781 477.71875 Z M 599.773438 123.808594 C 700.648438 123.808594 670.207031 230.183594 620.359375 326.953125 C 580.679688 309.328125 538.796875 295.847656 495.949219 286.191406 C 478.773438 259.3125 459.921875 233.574219 438.742188 209.640625 C 437.914062 208.707031 437.066406 207.75 436.199219 206.78125 C 483.398438 163.074219 538.867188 123.808594 599.773438 123.808594 Z M 705.570312 373.851562 C 686.742188 361.144531 667.011719 349.6875 646.605469 339.390625 C 672.492188 294.277344 693.960938 243.613281 690.628906 194.128906 C 684.496094 103.160156 596.804688 88.429688 525.960938 123.070312 C 489.003906 141.144531 454.515625 164.582031 422.460938 191.808594 C 367.738281 133.660156 266.023438 42.84375 191.066406 70.683594 C 124.832031 95.28125 136.585938 195.105469 159.808594 280.390625 C 123.953125 287.535156 89.753906 299.710938 63.976562 321.984375 C 4.777344 373.132812 56.097656 435.417969 105.621094 470.199219 C 130.785156 487.875 159.125 503.859375 189.546875 518.113281 C 152.253906 598.636719 94.953125 750.203125 205.800781 750.207031 C 261.910156 750.207031 316.890625 713.941406 365.621094 670.640625 C 409.699219 709.609375 461.777344 735.015625 522.96875 735.015625 C 616.601562 735.015625 634.9375 671.5 625.363281 598.511719 C 676.171875 591.539062 727.730469 573.042969 758.523438 532.789062 C 806.050781 470.671875 760.121094 410.664062 705.570312 373.851562 " fill-opacity="1" fill-rule="nonzero"/><path fill="#f46a61" d="M 481.203125 420.925781 C 477.105469 456.789062 445.152344 483.804688 411.28125 492.003906 C 373.800781 501.078125 338.703125 471.734375 330.597656 436.070312 C 324.355469 408.582031 333.769531 381.734375 353.222656 363.414062 C 369.269531 335.269531 413.078125 331.089844 440.34375 343.710938 C 469.113281 357.03125 484.726562 390.066406 481.203125 420.925781 " fill-opacity="1" fill-rule="nonzero"/><g clip-path="url(#55b9311ba2)"><path fill="#ffc24a" d="M 706 443.84375 C 693.695312 442.644531 683.945312 444.71875 672.523438 437.957031 C 661.855469 431.636719 656.289062 422.324219 651.246094 411.367188 C 650.292969 409.285156 646.984375 410.375 647.035156 412.511719 C 647.351562 426.15625 657.332031 437.929688 668.542969 444.761719 C 678.753906 450.992188 696.597656 456.382812 707.289062 448.613281 C 709.398438 447.089844 708.601562 444.097656 706 443.84375 Z M 476.175781 486.335938 C 460.882812 491.941406 447.765625 501.59375 431.785156 506.054688 C 414.816406 510.785156 398.09375 510.667969 380.675781 510.667969 C 377.570312 510.667969 376.917969 515.257812 379.941406 516.089844 C 397.410156 520.890625 416.753906 518.980469 434.074219 514.375 C 449.746094 510.203125 468.796875 503.175781 478.84375 489.808594 C 480.066406 488.183594 478.027344 485.660156 476.175781 486.335938 Z M 302.277344 30.277344 C 291.546875 26.324219 273.683594 25.085938 265.574219 34.820312 C 264.632812 35.953125 265.15625 38.023438 266.863281 37.945312 C 272.597656 37.699219 277.980469 35.484375 283.773438 35.378906 C 290.859375 35.257812 298.160156 37.0625 304.359375 40.488281 C 314.335938 46.011719 318.472656 61.574219 329.757812 63.742188 C 331.972656 64.167969 333.34375 62.144531 332.496094 60.175781 C 327.0625 47.5 315.347656 35.085938 302.277344 30.277344 Z M 209.089844 114.453125 C 192.007812 116.933594 180.25 138.707031 176.375 153.714844 C 172.859375 167.351562 171.511719 193.921875 185.808594 202.246094 C 187.726562 203.359375 190.210938 201.9375 190.210938 199.714844 C 190.207031 193.148438 186.707031 187.132812 185.5 180.695312 C 183.988281 172.664062 184.378906 164.367188 186.289062 156.445312 C 188.105469 148.898438 191.238281 141.710938 195.785156 135.40625 C 200.351562 129.074219 206.796875 124.769531 211.617188 118.792969 C 213.3125 116.691406 211.707031 114.074219 209.089844 114.453125 Z M 801.164062 452.96875 C 799.738281 450.125 795.460938 452.144531 796.175781 455.066406 C 801.28125 475.941406 803.496094 496.355469 798.214844 517.492188 C 795.785156 527.226562 792.027344 536.546875 787.066406 545.265625 C 781.96875 554.234375 774.726562 561.730469 769.609375 570.625 C 768.355469 572.792969 770.816406 575.046875 772.929688 573.945312 C 791.8125 564.097656 802.476562 537.902344 806.914062 518.277344 C 811.757812 496.863281 811.175781 472.867188 801.164062 452.96875 Z M 708.011719 120.414062 C 690.90625 97.277344 663.882812 82.121094 635.242188 79.75 C 632.792969 79.546875 632.328125 83.425781 634.667969 84 C 661.84375 90.679688 688.464844 103.902344 704.183594 127.980469 C 712.894531 141.320312 716.980469 156.636719 718.4375 172.386719 C 719.820312 187.457031 716.191406 203.910156 719.324219 218.5625 C 719.867188 221.109375 723.320312 220.679688 724.074219 218.5625 C 729.597656 202.988281 727.648438 181.078125 725.414062 164.929688 C 723.195312 148.855469 717.703125 133.507812 708.011719 120.414062 Z M 598.265625 737.175781 C 581.074219 745.476562 564.941406 754.515625 545.957031 758.242188 C 526.65625 762.027344 506.445312 761.394531 487.308594 757.027344 C 483.828125 756.230469 482.46875 761.230469 485.839844 762.355469 C 522.183594 774.46875 573.4375 770.257812 601.132812 740.890625 C 603.03125 738.878906 600.652344 736.027344 598.265625 737.175781 Z M 437.832031 754.164062 C 426.519531 747.304688 414.019531 742.941406 402.980469 735.480469 C 391.132812 727.480469 382 717.128906 371.15625 708.039062 C 369.5625 706.703125 367.339844 708.34375 368.285156 710.261719 C 379.417969 732.9375 411.339844 756.167969 436.6875 758.375 C 439.023438 758.578125 439.628906 755.25 437.832031 754.164062 Z M 183.125 773.496094 C 151.703125 774.785156 128.8125 758.054688 119.972656 727.582031 C 110.710938 695.609375 119.316406 662.847656 116.695312 630.40625 C 116.476562 627.667969 112.253906 626.660156 111.597656 629.710938 C 107.308594 649.644531 106.164062 671.324219 105.953125 691.675781 C 105.785156 709.015625 107.683594 726.371094 114.632812 742.402344 C 125.292969 766.992188 156.296875 793.882812 184.269531 777.714844 C 186.164062 776.621094 185.402344 773.40625 183.125 773.496094 Z M 46.953125 454.800781 C 48.585938 456.257812 47.25 459 45.210938 459.007812 C 25.542969 459.046875 11.417969 436.867188 5.492188 420.539062 C -3.867188 394.742188 0.808594 367.261719 6.105469 341.171875 C 6.78125 337.839844 12.386719 338.597656 12.050781 341.976562 C 9.785156 364.792969 6.433594 389.542969 12.957031 411.9375 C 15.777344 421.628906 20.605469 430.941406 27.304688 438.523438 C 33.027344 445.007812 40.550781 449.125 46.953125 454.800781 " fill-opacity="1" fill-rule="nonzero"/></g><path fill="#f6b737" d="M 288.835938 355.324219 C 279.625 350.097656 268.90625 346.355469 258.4375 349.863281 C 254.066406 351.328125 249.007812 354.558594 246.328125 358.746094 C 239.074219 368.152344 238.257812 383.273438 242.882812 395.109375 C 251.71875 417.730469 272.507812 419.453125 290.605469 405.835938 C 299.386719 399.234375 306.707031 389.890625 306.382812 378.371094 C 306.074219 367.253906 297.792969 360.410156 288.835938 355.324219 Z M 732.9375 373.039062 C 702.019531 332.519531 642.542969 380.101562 668.890625 414.933594 C 693.226562 447.109375 761.550781 410.53125 732.9375 373.039062 Z M 307.433594 119.566406 C 289.234375 134.363281 259.375 138.820312 248.144531 113.117188 C 242.210938 99.53125 245.824219 86.050781 254.445312 76.378906 C 264.625 55.46875 287.609375 45.652344 309.015625 61.675781 C 329.667969 77.136719 326.449219 104.097656 307.433594 119.566406 " fill-opacity="1" fill-rule="nonzero"/><path fill="#ffffff" d="M 279.523438 358.910156 C 277.371094 358.808594 275.878906 361.949219 277.664062 363.394531 C 281.800781 366.753906 286.046875 368.925781 288.570312 373.941406 C 290.765625 378.3125 290.246094 383.398438 292.25 387.675781 C 292.730469 388.699219 294.1875 388.714844 294.914062 388.015625 C 299.511719 383.621094 297.167969 375.289062 294.566406 370.4375 C 291.628906 364.976562 286.058594 359.207031 279.523438 358.910156 Z M 698.941406 372.589844 C 700.085938 371.632812 699.484375 369.480469 698.046875 369.199219 C 673.957031 364.363281 660.324219 413.21875 690.664062 413.269531 C 692.476562 413.269531 693.113281 411.171875 692.050781 409.917969 C 689.949219 407.433594 687.292969 405.832031 685.027344 403.546875 C 680.652344 399.132812 681.050781 392.703125 683.714844 387.410156 C 687.253906 380.351562 693.207031 377.394531 698.941406 372.589844 Z M 273.558594 67.484375 C 263.789062 73.929688 255.167969 82.089844 255.636719 94.78125 C 255.921875 102.402344 261.042969 114.910156 270.507812 112.882812 C 271.96875 112.574219 272.375 110.886719 271.804688 109.710938 C 268.769531 103.457031 263.21875 100.625 263.492188 92.628906 C 263.785156 84.277344 269.84375 75.800781 275.734375 70.304688 C 277.207031 68.929688 275.273438 66.351562 273.558594 67.484375 Z M 438.464844 461.179688 C 431.042969 461.988281 424.199219 465.492188 416.847656 466.992188 C 407.820312 468.839844 398.648438 469.332031 389.476562 468.707031 C 386.792969 468.527344 386.199219 472.851562 388.835938 473.414062 C 404.335938 476.722656 427.945312 477.4375 440.253906 465.492188 C 441.710938 464.082031 440.710938 460.929688 438.464844 461.179688 Z M 375.9375 361.921875 C 364.929688 375.898438 358.230469 392.703125 355.699219 410.253906 C 354.378906 419.425781 353.308594 429.492188 356.15625 438.480469 C 358.910156 447.199219 365.785156 453.367188 370.625 460.867188 C 371.757812 462.613281 369.890625 464.398438 368.144531 464.09375 C 346.175781 460.296875 342.972656 431.8125 345.308594 414.09375 C 348.128906 392.679688 355.347656 371.664062 373.273438 358.476562 C 375.476562 356.855469 377.324219 360.164062 375.9375 361.921875 " fill-opacity="1" fill-rule="nonzero"/></svg>