<svg xmlns="http://www.w3.org/2000/svg" xmlns:xlink="http://www.w3.org/1999/xlink" width="1080" zoomAndPan="magnify" viewBox="0 0 810 809.999993" height="1080" preserveAspectRatio="xMidYMid meet" version="1.0"><defs><clipPath id="1426f47da5"><path d="M 283.5 283.5 L 526.5 283.5 L 526.5 526.5 L 283.5 526.5 Z M 283.5 283.5 " clip-rule="nonzero"/></clipPath><clipPath id="e971fc7574"><path d="M 405 283.5 C 337.898438 283.5 283.5 337.898438 283.5 405 C 283.5 472.101562 337.898438 526.5 405 526.5 C 472.101562 526.5 526.5 472.101562 526.5 405 C 526.5 337.898438 472.101562 283.5 405 283.5 Z M 405 283.5 " clip-rule="nonzero"/></clipPath><clipPath id="9684609874"><path d="M 622.203125 58.695312 L 634.984375 58.695312 L 634.984375 75.878906 L 622.203125 75.878906 Z M 622.203125 58.695312 " clip-rule="nonzero"/></clipPath><clipPath id="48ebf672e9"><path d="M 621.773438 55.226562 C 621.773438 55.226562 620.644531 62.25 624.132812 67.914062 C 627.617188 73.578125 634.398438 75.738281 634.398438 75.738281 C 634.398438 75.738281 635.527344 68.714844 632.039062 63.046875 C 628.554688 57.386719 621.773438 55.226562 621.773438 55.226562 Z M 621.773438 55.226562 " clip-rule="nonzero"/></clipPath><clipPath id="8c23462e70"><path d="M 647 77.203125 L 664.957031 77.203125 L 664.957031 87.335938 L 647 87.335938 Z M 647 77.203125 " clip-rule="nonzero"/></clipPath><clipPath id="eaa8e10b8e"><path d="M 664.632812 84.707031 C 664.632812 84.707031 660.296875 79.066406 653.785156 77.710938 C 647.269531 76.359375 641.046875 79.8125 641.046875 79.8125 C 641.046875 79.8125 645.378906 85.449219 651.894531 86.804688 C 658.410156 88.15625 664.632812 84.707031 664.632812 84.707031 Z M 664.632812 84.707031 " clip-rule="nonzero"/></clipPath></defs><g clip-path="url(#1426f47da5)"><g clip-path="url(#e971fc7574)"><path fill="#ffc374" d="M 283.5 283.5 L 526.5 283.5 L 526.5 526.5 L 283.5 526.5 Z M 283.5 283.5 " fill-opacity="1" fill-rule="nonzero"/></g></g><path fill="#f2e6dc" d="M 808.335938 407.128906 C 808.335938 629.628906 627.90625 810 405.328125 810 C 182.757812 810 2.324219 629.628906 2.324219 407.128906 C 2.324219 184.632812 182.757812 4.257812 405.328125 4.257812 C 627.90625 4.257812 808.335938 184.632812 808.335938 407.128906 " fill-opacity="1" fill-rule="nonzero"/><path fill="#363e44" d="M 608.097656 95.972656 C 616.328125 74.628906 641.046875 55.011719 641.046875 55.011719 C 641.046875 55.011719 688.332031 44.875 692.4375 77.410156 C 696.539062 109.945312 724.683594 127.765625 766.925781 133.460938 C 809.167969 139.167969 804.289062 184.285156 804.289062 184.285156 L 800.109375 188.816406 L 795.605469 168.699219 L 795.519531 193.8125 L 789.644531 200.183594 L 783.277344 178.492188 C 783.277344 178.492188 781.144531 198.773438 780.476562 210.140625 L 762.222656 229.957031 L 609.269531 146.765625 C 609.269531 146.765625 598.195312 121.675781 608.097656 95.972656 " fill-opacity="1" fill-rule="nonzero"/><path fill="#40484c" d="M 788.882812 181.570312 C 788.402344 181.570312 787.976562 181.210938 787.917969 180.714844 C 786.484375 168.605469 776.207031 159.703125 767.0625 155.414062 C 757.855469 151.09375 747.484375 149.453125 737.460938 147.867188 C 736.039062 147.636719 734.621094 147.414062 733.203125 147.1875 C 722.296875 145.394531 709.824219 142.886719 699.78125 135.644531 C 690.964844 129.300781 682.953125 116.757812 686.203125 104.21875 C 686.332031 103.699219 686.859375 103.390625 687.382812 103.519531 C 687.90625 103.65625 688.214844 104.1875 688.078125 104.707031 C 685.066406 116.359375 692.617188 128.101562 700.917969 134.074219 C 710.621094 141.0625 722.832031 143.519531 733.519531 145.269531 C 734.925781 145.5 736.347656 145.722656 737.765625 145.945312 C 747.917969 147.558594 758.421875 149.222656 767.886719 153.65625 C 777.503906 158.167969 788.320312 167.582031 789.847656 180.488281 C 789.910156 181.019531 789.535156 181.503906 789 181.566406 L 788.882812 181.570312 " fill-opacity="1" fill-rule="nonzero"/><path fill="#40484c" d="M 768.464844 185.378906 C 768.011719 185.378906 767.605469 185.066406 767.511719 184.605469 C 765.050781 172.578125 752.558594 165.109375 741.695312 162.125 C 736.417969 160.679688 730.871094 159.824219 725.519531 159 C 718.804688 157.972656 711.863281 156.90625 705.308594 154.660156 C 693.601562 150.648438 681.703125 140.769531 681.511719 127.753906 C 681.503906 127.214844 681.933594 126.777344 682.464844 126.765625 C 683.023438 126.765625 683.441406 127.1875 683.453125 127.726562 C 683.628906 139.800781 694.875 149.03125 705.933594 152.820312 C 712.332031 155.015625 719.179688 156.0625 725.804688 157.085938 C 731.222656 157.917969 736.820312 158.773438 742.210938 160.25 C 757 164.316406 767.171875 173.273438 769.414062 184.210938 C 769.519531 184.742188 769.183594 185.25 768.65625 185.363281 C 768.589844 185.375 768.527344 185.378906 768.464844 185.378906 " fill-opacity="1" fill-rule="nonzero"/><path fill="#8b865c" d="M 676.835938 250.777344 L 731.976562 275.363281 C 749.289062 283.082031 769.640625 276.789062 779.5625 260.640625 C 788.984375 245.3125 786.296875 225.46875 773.117188 213.21875 C 759.359375 200.417969 742.585938 185.332031 732.933594 178.492188 C 714.535156 165.453125 676.835938 250.777344 676.835938 250.777344 " fill-opacity="1" fill-rule="nonzero"/><path fill="#8b865c" d="M 455.835938 139.023438 C 455.835938 139.023438 469.109375 109.054688 553.261719 111.046875 L 556.394531 187.605469 L 455.835938 139.023438 " fill-opacity="1" fill-rule="nonzero"/><path fill="#8b865c" d="M 553.261719 111.046875 C 553.261719 111.046875 668.335938 125.324219 735.25 180.355469 L 683.175781 255.535156 L 655.398438 399.425781 C 655.398438 399.425781 494.035156 297.554688 494.074219 295.695312 C 494.105469 293.835938 537.371094 189.265625 537.371094 189.265625 L 553.261719 111.046875 " fill-opacity="1" fill-rule="nonzero"/><path fill="#ffffff" d="M 681.191406 147.542969 C 681.191406 147.542969 635.972656 246.015625 618.230469 335.695312 L 525.277344 306.492188 L 585.390625 116.769531 C 585.390625 116.769531 642.324219 123.964844 681.191406 147.542969 " fill-opacity="1" fill-rule="nonzero"/><path fill="#363e44" d="M 634.574219 55.675781 C 624.863281 72.492188 627.761719 94.875 643.261719 103.820312 C 658.761719 112.765625 684.121094 104.15625 693.835938 87.347656 C 703.542969 70.542969 698.847656 49.660156 683.347656 40.714844 C 667.84375 31.769531 644.277344 38.871094 634.574219 55.675781 " fill-opacity="1" fill-rule="nonzero"/><path fill="#bc8271" d="M 658.757812 100.695312 L 646.445312 142.777344 L 622.203125 136.265625 L 631.761719 102.988281 L 658.757812 100.695312 " fill-opacity="1" fill-rule="nonzero"/><path fill="#bc8271" d="M 666.765625 139.71875 C 666.765625 139.71875 641.792969 121.792969 611.1875 121.386719 L 615.554688 171.824219 L 666.765625 139.71875 " fill-opacity="1" fill-rule="nonzero"/><path fill="#bc8271" d="M 665.605469 52.339844 C 664.460938 51.640625 653.425781 45.136719 642.695312 49.636719 C 634.710938 52.988281 630.460938 60.195312 625.144531 73.351562 C 618.898438 88.851562 617.324219 98.988281 620.210938 104.046875 C 624.765625 112.027344 650.300781 111.472656 664.339844 102.097656 C 674.476562 95.328125 679.746094 82.84375 678.40625 70.648438 C 677.082031 58.484375 666.335938 52.785156 665.605469 52.339844 " fill-opacity="1" fill-rule="nonzero"/><path fill="#ffffff" d="M 628.683594 59.191406 C 628.648438 59.296875 628.550781 59.351562 628.511719 59.457031 L 628.511719 59.464844 C 627.574219 60.726562 626.597656 62.050781 625.453125 63.117188 C 624.945312 63.589844 624.402344 63.730469 623.875 64.117188 C 623.488281 64.40625 623.117188 64.683594 622.726562 64.949219 C 620.996094 60.066406 621.773438 55.226562 621.773438 55.226562 C 621.773438 55.226562 625.394531 56.417969 628.683594 59.191406 " fill-opacity="1" fill-rule="nonzero"/><g clip-path="url(#9684609874)"><g clip-path="url(#48ebf672e9)"><path fill="#363e44" d="M 623.214844 63.769531 C 621.117188 68.09375 622.921875 73.292969 627.25 75.386719 C 631.570312 77.484375 636.773438 75.679688 638.867188 71.355469 C 640.960938 67.03125 639.15625 61.832031 634.832031 59.734375 C 630.507812 57.640625 625.308594 59.445312 623.214844 63.769531 " fill-opacity="1" fill-rule="nonzero"/></g></g><path fill="#ffffff" d="M 650.449219 81.351562 C 649.671875 83.027344 648.773438 84.152344 647.234375 85.019531 C 643.398438 82.871094 641.042969 79.8125 641.042969 79.8125 C 641.042969 79.8125 646.132812 77.0625 651.84375 77.445312 C 651.71875 78.800781 651 80.164062 650.449219 81.351562 " fill-opacity="1" fill-rule="nonzero"/><g clip-path="url(#8c23462e70)"><g clip-path="url(#eaa8e10b8e)"><path fill="#363e44" d="M 664.144531 81.984375 C 662.4375 77.496094 657.414062 75.242188 652.917969 76.945312 C 648.429688 78.652344 646.171875 83.675781 647.878906 88.167969 C 649.585938 92.65625 654.609375 94.914062 659.105469 93.207031 C 663.59375 91.5 665.851562 86.476562 664.144531 81.984375 " fill-opacity="1" fill-rule="nonzero"/></g></g><path fill="#363e44" d="M 629.539062 84.121094 C 629.0625 84.121094 628.640625 83.773438 628.574219 83.285156 C 628.414062 82.089844 628.621094 81.09375 629.183594 80.324219 C 629.816406 79.464844 630.664062 79.21875 631.496094 78.972656 C 632.023438 78.8125 632.574219 78.648438 633.1875 78.3125 C 633.949219 77.882812 634.636719 77.257812 635.214844 76.457031 C 635.535156 76.027344 636.136719 75.929688 636.574219 76.242188 C 637.007812 76.5625 637.105469 77.167969 636.789062 77.597656 C 636.039062 78.625 635.152344 79.4375 634.132812 80.007812 C 633.332031 80.449219 632.617188 80.660156 632.046875 80.832031 C 631.332031 81.046875 630.980469 81.160156 630.746094 81.476562 C 630.492188 81.824219 630.40625 82.34375 630.496094 83.019531 C 630.574219 83.550781 630.203125 84.042969 629.667969 84.113281 C 629.625 84.117188 629.582031 84.121094 629.539062 84.121094 " fill-opacity="1" fill-rule="nonzero"/><path fill="#363e44" d="M 630.683594 94.289062 C 631.25 96.554688 633.550781 97.941406 635.816406 97.375 C 638.09375 96.816406 639.476562 94.519531 638.914062 92.25 C 638.351562 89.976562 637.070312 92.703125 634.796875 93.265625 C 632.527344 93.832031 630.128906 92.015625 630.683594 94.289062 " fill-opacity="1" fill-rule="nonzero"/><path fill="#363e44" d="M 636.113281 110.519531 C 635.070312 110.519531 634.011719 110.488281 632.953125 110.417969 C 632.417969 110.382812 632.007812 109.921875 632.042969 109.382812 C 632.078125 108.851562 632.539062 108.445312 633.074219 108.480469 C 643.203125 109.128906 653.125 106.175781 653.226562 106.144531 C 653.746094 105.992188 654.28125 106.285156 654.4375 106.800781 C 654.589844 107.308594 654.296875 107.855469 653.789062 108.003906 C 653.414062 108.121094 645.359375 110.519531 636.113281 110.519531 " fill-opacity="1" fill-rule="nonzero"/><path fill="#363e44" d="M 676.832031 46.621094 C 676.832031 46.621094 672.683594 29.601562 686.511719 14.792969 C 700.339844 -0.0117188 713.582031 0.484375 724.976562 12.789062 C 736.367188 25.097656 733.097656 51.503906 692.703125 63.324219 L 676.832031 46.621094 " fill-opacity="1" fill-rule="nonzero"/><path fill="#40484c" d="M 702.296875 48.445312 C 699.363281 48.445312 696.441406 47.917969 693.707031 46.832031 C 693.214844 46.632812 692.96875 46.070312 693.167969 45.570312 C 693.363281 45.070312 693.9375 44.828125 694.425781 45.03125 C 701.253906 47.746094 709.464844 46.671875 715.351562 42.289062 C 721.238281 37.902344 724.625 30.339844 723.96875 23.03125 C 723.925781 22.5 724.320312 22.03125 724.855469 21.976562 C 725.402344 21.9375 725.859375 22.328125 725.90625 22.859375 C 726.617188 30.828125 722.933594 39.066406 716.511719 43.839844 C 712.449219 46.867188 707.363281 48.445312 702.296875 48.445312 " fill-opacity="1" fill-rule="nonzero"/><path fill="#40484c" d="M 703.992188 54.777344 C 701.90625 54.777344 699.816406 54.382812 697.886719 53.582031 C 697.398438 53.375 697.15625 52.808594 697.363281 52.3125 C 697.570312 51.816406 698.136719 51.582031 698.632812 51.789062 C 702.695312 53.46875 707.566406 53.105469 711.335938 50.835938 C 711.796875 50.558594 712.390625 50.710938 712.671875 51.164062 C 712.945312 51.628906 712.796875 52.222656 712.34375 52.5 C 709.84375 54.003906 706.914062 54.777344 703.992188 54.777344 " fill-opacity="1" fill-rule="nonzero"/><path fill="#363e44" d="M 647.492188 48.304688 C 647.492188 48.304688 658.757812 46.0625 668.769531 58.824219 C 676.378906 68.535156 678.476562 79.214844 668.210938 89.15625 L 677.648438 94.425781 C 677.648438 94.425781 693.207031 68.867188 673.578125 53.808594 C 668.097656 49.601562 659.703125 46.882812 647.492188 48.304688 " fill-opacity="1" fill-rule="nonzero"/><path fill="#bc8271" d="M 661.613281 97.503906 C 661.613281 103.023438 666.089844 107.496094 671.609375 107.496094 C 677.132812 107.496094 681.613281 103.023438 681.613281 97.503906 C 681.613281 91.980469 677.132812 87.507812 671.609375 87.507812 C 666.089844 87.507812 661.613281 91.980469 661.613281 97.503906 " fill-opacity="1" fill-rule="nonzero"/><path fill="#363e44" d="M 666.863281 99.46875 C 666.660156 99.46875 666.453125 99.40625 666.28125 99.277344 C 665.851562 98.957031 665.761719 98.347656 666.085938 97.917969 C 666.167969 97.8125 668.097656 95.277344 671.28125 94.832031 C 673.339844 94.546875 675.40625 95.1875 677.429688 96.726562 C 677.855469 97.054688 677.9375 97.664062 677.609375 98.085938 C 677.289062 98.515625 676.675781 98.601562 676.253906 98.273438 C 674.65625 97.054688 673.058594 96.542969 671.550781 96.757812 C 669.15625 97.085938 667.660156 99.0625 667.640625 99.082031 C 667.453125 99.335938 667.160156 99.46875 666.863281 99.46875 " fill-opacity="1" fill-rule="nonzero"/><path fill="#363e44" d="M 207.855469 339.292969 L 287.332031 476.933594 L 304.058594 331.289062 Z M 207.855469 339.292969 " fill-opacity="1" fill-rule="nonzero"/><path fill="#ffffff" d="M 181.785156 243.347656 L 118.414062 264.304688 C 98.519531 270.886719 76.664062 261.996094 67.3125 243.523438 C 58.441406 225.984375 63.394531 204.792969 79.179688 192.882812 C 95.667969 180.449219 115.707031 165.84375 127.050781 159.433594 C 148.679688 147.207031 181.785156 243.347656 181.785156 243.347656 " fill-opacity="1" fill-rule="nonzero"/><path fill="#ffffff" d="M 437.121094 145.050781 C 437.121094 145.050781 425.457031 111.277344 332.292969 104.839844 L 325.230469 143.457031 L 437.121094 145.050781 " fill-opacity="1" fill-rule="nonzero"/><path fill="#ffffff" d="M 332.289062 104.839844 C 332.289062 104.839844 203.734375 108.527344 124.3125 161.207031 L 174.308594 247.84375 L 193.824219 345.59375 C 201.570312 348.542969 266.859375 349.957031 279.210938 352.96875 C 279.210938 352.96875 281.34375 353.617188 303.722656 355.375 C 330.511719 357.480469 315.84375 328.921875 379.195312 310.597656 C 366.800781 270.753906 354.402344 230.910156 342.007812 191.0625 L 332.289062 104.839844 " fill-opacity="1" fill-rule="nonzero"/><path fill="#84524d" d="M 211.289062 20.898438 C 212.71875 20.144531 226.503906 13.117188 239.105469 19.339844 C 248.480469 23.964844 253.078125 32.964844 258.503906 49.222656 C 264.894531 68.367188 266.039062 80.703125 262.1875 86.578125 C 256.101562 95.867188 225.371094 93.3125 209.136719 80.96875 C 197.417969 72.0625 191.988281 56.628906 194.5 42.019531 C 197.003906 27.457031 210.378906 21.378906 211.289062 20.898438 " fill-opacity="1" fill-rule="nonzero"/><path fill="#84524d" d="M 241.996094 145.121094 C 229.84375 148.378906 217.355469 141.167969 214.097656 129.027344 L 196.140625 62.050781 C 192.882812 49.902344 200.09375 37.417969 212.242188 34.167969 C 224.394531 30.90625 236.882812 38.117188 240.140625 50.261719 L 258.097656 117.234375 C 261.355469 129.378906 254.144531 141.863281 241.996094 145.121094 " fill-opacity="1" fill-rule="nonzero"/><path fill="#363e44" d="M 245.351562 93.738281 C 233.933594 93.738281 218.996094 90.160156 208.710938 82.347656 C 208.285156 82.019531 208.199219 81.410156 208.527344 80.984375 C 208.851562 80.5625 209.457031 80.472656 209.886719 80.796875 C 221.355469 89.515625 239.988281 93.027344 251.375 91.402344 C 251.910156 91.328125 252.398438 91.695312 252.476562 92.226562 C 252.550781 92.753906 252.183594 93.25 251.652344 93.324219 C 249.730469 93.601562 247.609375 93.738281 245.351562 93.738281 " fill-opacity="1" fill-rule="nonzero"/><path fill="#ffffff" d="M 225.890625 53.238281 C 225.890625 53.238281 229.839844 58.007812 235.921875 60.457031 C 237.203125 60.976562 238.964844 49.660156 237.519531 49.746094 C 231.070312 50.117188 225.890625 53.238281 225.890625 53.238281 " fill-opacity="1" fill-rule="nonzero"/><path fill="#363e44" d="M 256.136719 58.367188 C 256.136719 58.367188 248.378906 63.050781 240.023438 61.632812 C 238.566406 61.386719 237.1875 60.964844 235.898438 60.445312 C 234.484375 56.734375 235.1875 52.714844 237.460938 49.75 C 238.925781 49.660156 240.453125 49.710938 242.003906 49.980469 C 250.355469 51.394531 256.136719 58.367188 256.136719 58.367188 " fill-opacity="1" fill-rule="nonzero"/><path fill="#363e44" d="M 252.066406 73.949219 C 251.425781 73.949219 250.785156 73.828125 250.183594 73.574219 C 247.609375 72.472656 247.21875 69.628906 247.203125 69.507812 C 247.136719 68.972656 247.511719 68.488281 248.046875 68.421875 C 248.582031 68.359375 249.0625 68.734375 249.128906 69.261719 C 249.132812 69.28125 249.402344 71.128906 250.945312 71.78125 C 252.1875 72.3125 253.691406 71.898438 254.613281 70.773438 C 254.953125 70.359375 255.566406 70.300781 255.980469 70.636719 C 256.394531 70.980469 256.457031 71.59375 256.117188 72.007812 C 255.085938 73.261719 253.574219 73.949219 252.066406 73.949219 " fill-opacity="1" fill-rule="nonzero"/><path fill="#84524d" d="M 259.175781 55.816406 C 259.496094 56.746094 260.097656 58.058594 261.292969 59.1875 C 262.734375 60.542969 263.972656 60.617188 264.382812 61.679688 C 264.65625 62.394531 264.578125 63.605469 262.75 65.753906 L 259.175781 55.816406 " fill-opacity="1" fill-rule="nonzero"/><path fill="#363e44" d="M 262.75 66.714844 C 262.527344 66.714844 262.304688 66.644531 262.121094 66.488281 C 261.714844 66.140625 261.664062 65.523438 262.011719 65.121094 C 263.171875 63.753906 263.710938 62.628906 263.480469 62.023438 C 263.382812 61.777344 263.144531 61.613281 262.539062 61.257812 C 262.003906 60.949219 261.34375 60.5625 260.628906 59.886719 C 259.570312 58.894531 258.777344 57.625 258.261719 56.125 C 258.085938 55.621094 258.359375 55.066406 258.867188 54.894531 C 259.371094 54.71875 259.925781 54.988281 260.097656 55.5 C 260.511719 56.695312 261.136719 57.699219 261.960938 58.472656 C 262.515625 58.992188 263.050781 59.3125 263.519531 59.585938 C 264.21875 59.996094 264.941406 60.417969 265.292969 61.332031 C 265.8125 62.695312 265.222656 64.34375 263.492188 66.378906 C 263.296875 66.605469 263.027344 66.714844 262.75 66.714844 " fill-opacity="1" fill-rule="nonzero"/><path fill="#363e44" d="M 217.398438 78.234375 C 213.984375 78.234375 210.421875 76.855469 207.554688 74.25 C 204.875 71.8125 203.152344 68.625 202.714844 65.285156 C 202.261719 61.886719 203.1875 58.722656 205.3125 56.382812 C 208.65625 52.707031 214.367188 51.894531 219.519531 54.363281 C 220.003906 54.589844 220.207031 55.175781 219.976562 55.65625 C 219.746094 56.140625 219.164062 56.347656 218.679688 56.113281 C 214.308594 54.019531 209.515625 54.65625 206.75 57.691406 C 205.015625 59.597656 204.265625 62.207031 204.640625 65.03125 C 205.019531 67.921875 206.519531 70.679688 208.859375 72.8125 C 212.679688 76.28125 217.863281 77.277344 221.765625 75.277344 C 222.242188 75.03125 222.828125 75.222656 223.070312 75.699219 C 223.316406 76.175781 223.125 76.761719 222.648438 77.003906 C 221.03125 77.832031 219.238281 78.234375 217.398438 78.234375 " fill-opacity="1" fill-rule="nonzero"/><path fill="#363e44" d="M 212.796875 71.390625 C 212.617188 71.390625 212.4375 71.34375 212.273438 71.242188 C 211.867188 70.976562 211.472656 70.679688 211.105469 70.347656 C 208.074219 67.589844 207.550781 63.214844 209.9375 60.597656 C 210.53125 59.9375 211.265625 59.4375 212.109375 59.113281 C 212.609375 58.917969 213.171875 59.167969 213.367188 59.671875 C 213.558594 60.167969 213.308594 60.730469 212.808594 60.921875 C 212.25 61.140625 211.765625 61.46875 211.371094 61.902344 C 209.707031 63.734375 210.175781 66.875 212.414062 68.910156 C 212.695312 69.171875 213 69.402344 213.320312 69.605469 C 213.769531 69.890625 213.90625 70.492188 213.617188 70.945312 C 213.429688 71.230469 213.117188 71.390625 212.796875 71.390625 " fill-opacity="1" fill-rule="nonzero"/><path fill="#363e44" d="M 246.070312 19.402344 C 236.535156 14.808594 228.769531 15.519531 224.964844 15.402344 C 228.507812 14.578125 232.757812 13.855469 237.582031 13.570312 C 239.050781 13.480469 240.480469 13.441406 241.855469 13.441406 C 240.339844 12.621094 238.714844 11.875 236.976562 11.238281 C 232.03125 9.433594 226.46875 8.050781 220.964844 8.75 C 211.308594 9.976562 203.589844 18.339844 200.949219 20.722656 C 202.277344 18.597656 204.015625 16.207031 206.28125 13.808594 C 207.496094 12.519531 208.734375 11.367188 209.964844 10.335938 C 204.691406 11.429688 200.019531 13.066406 196.550781 16.324219 C 195.007812 17.777344 194.042969 19.335938 192.894531 21.539062 C 191.617188 23.996094 190.980469 26.992188 190.476562 29.007812 C 190.433594 28.1875 190.40625 26.988281 190.480469 25.539062 C 190.507812 24.953125 190.566406 23.835938 190.714844 22.527344 C 189.398438 24.261719 188.261719 26.148438 187.359375 28.203125 C 180.75 43.25 187.199219 54.878906 195.453125 60.429688 C 210.75 53.945312 224.476562 44.722656 238.480469 38.660156 C 234.847656 38.597656 231.988281 37.710938 230.386719 37.09375 C 239.148438 36.707031 244.085938 35.964844 246.851562 35.480469 C 251.191406 34.722656 254.765625 34.011719 259.640625 32.703125 C 258.535156 30.398438 252.988281 22.734375 246.070312 19.402344 " fill-opacity="1" fill-rule="nonzero"/><path fill="#d87355" d="M 401.859375 127.738281 L 401.859375 381.808594 L 147.699219 381.808594 C 147.699219 241.484375 261.492188 127.738281 401.859375 127.738281 " fill-opacity="1" fill-rule="nonzero"/><path fill="#efbc73" d="M 401.859375 381.804688 L 401.859375 635.878906 C 261.492188 635.878906 147.703125 522.128906 147.703125 381.804688 L 248.558594 381.804688 L 248.558594 368.945312 C 239.332031 364.425781 232.988281 354.953125 232.988281 343.996094 C 232.988281 328.667969 245.421875 316.226562 260.769531 316.226562 C 276.117188 316.226562 288.546875 328.667969 288.546875 343.996094 C 288.546875 354.953125 282.203125 364.425781 272.976562 368.945312 L 272.976562 381.804688 L 401.859375 381.804688 " fill-opacity="1" fill-rule="nonzero"/><path fill="#ffffff" d="M 656.003906 381.800781 C 656.003906 522.128906 542.210938 635.878906 401.863281 635.878906 L 401.863281 535.417969 L 386.835938 535.417969 C 382.3125 544.636719 372.84375 550.984375 361.882812 550.984375 C 346.53125 550.984375 334.101562 538.550781 334.101562 523.214844 C 334.101562 507.871094 346.53125 495.4375 361.882812 495.4375 C 372.84375 495.4375 382.3125 501.785156 386.835938 511.007812 L 401.863281 511.007812 L 401.863281 381.800781 L 656.003906 381.800781 " fill-opacity="1" fill-rule="nonzero"/><path fill="#e6d0be" d="M 656.003906 381.808594 L 401.859375 381.808594 L 401.859375 280.496094 L 386.839844 280.496094 C 382.3125 289.707031 372.84375 296.058594 361.878906 296.058594 C 346.53125 296.058594 334.101562 283.621094 334.101562 268.292969 C 334.101562 252.945312 346.53125 240.507812 361.878906 240.507812 C 372.84375 240.507812 382.3125 246.863281 386.839844 256.070312 L 401.859375 256.070312 L 401.859375 127.738281 C 542.210938 127.738281 656.003906 241.484375 656.003906 381.808594 " fill-opacity="1" fill-rule="nonzero"/><path fill="#e6d0be" d="M 571.078125 421.773438 C 571.078125 437.101562 558.644531 449.542969 543.296875 449.542969 C 527.960938 449.542969 515.519531 437.101562 515.519531 421.773438 C 515.519531 410.8125 521.875 401.347656 531.085938 396.820312 L 531.085938 381.808594 L 401.859375 381.808594 L 401.859375 127.738281 C 542.210938 127.738281 656.003906 241.484375 656.003906 381.808594 L 555.519531 381.808594 L 555.519531 396.820312 C 564.734375 401.347656 571.078125 410.8125 571.078125 421.773438 " fill-opacity="1" fill-rule="nonzero"/><path fill="#84524d" d="M 279.160156 284.101562 C 274.722656 278.019531 260.332031 249.769531 245.554688 249.753906 C 230.671875 249.746094 217.996094 260.210938 210.152344 272.847656 C 210.164062 272.90625 210.175781 272.972656 210.1875 273.035156 C 209.6875 277.121094 209.566406 283.308594 212.546875 289.4375 C 215.949219 296.429688 220.128906 296.644531 224.867188 303.460938 C 232.859375 314.964844 228.527344 325.914062 233.445312 326.59375 C 236.820312 327.058594 239.621094 320.789062 240.6875 314.402344 C 241.78125 307.851562 239.726562 303.148438 240.753906 302.789062 C 241.882812 302.390625 243.351562 307.433594 245.753906 313.542969 C 246.867188 316.378906 245.132812 326.050781 249.652344 327.371094 C 253.253906 328.417969 257.574219 318.8125 256.363281 309.707031 C 255.507812 303.261719 250.804688 299.050781 251.757812 298.339844 C 252.472656 297.808594 255.210938 300.390625 256.910156 303.316406 C 259.710938 308.144531 258.042969 318.0625 262.226562 319.1875 C 266.324219 320.296875 269.949219 311.839844 269.367188 303.394531 C 268.875 296.273438 263.40625 291.824219 264.585938 290.9375 C 265.414062 290.3125 268.277344 291.796875 273.078125 296.542969 C 277.085938 300.5 282.324219 310.785156 287.09375 307.214844 C 291.105469 304.214844 285.859375 293.285156 279.160156 284.101562 " fill-opacity="1" fill-rule="nonzero"/><path fill="#84524d" d="M 122.3125 192.933594 C 106.121094 189.175781 89.09375 196.261719 80.925781 210.726562 C 75.574219 220.210938 74.25 232.5625 85.183594 247.167969 C 111.792969 282.738281 221.421875 280.304688 221.421875 280.304688 L 252.625 251.75 C 213.296875 224.949219 166.890625 203.28125 122.3125 192.933594 " fill-opacity="1" fill-rule="nonzero"/><path fill="#363e44" d="M 139.003906 508.742188 C 138.410156 508.742188 137.847656 508.863281 137.328125 509.097656 C 135.949219 509.730469 135.007812 511.148438 134.675781 513.097656 C 134.316406 515.171875 134.691406 517.5625 135.734375 519.828125 C 136.773438 522.09375 138.34375 523.933594 140.152344 525.019531 C 141.851562 526.03125 143.539062 526.246094 144.914062 525.613281 C 147.882812 524.25 148.597656 519.4375 146.507812 514.882812 C 145.464844 512.617188 143.894531 510.773438 142.085938 509.691406 C 141.03125 509.058594 139.980469 508.742188 139.003906 508.742188 Z M 143.234375 527.914062 C 141.910156 527.914062 140.519531 527.5 139.15625 526.683594 C 137.011719 525.402344 135.171875 523.257812 133.96875 520.636719 C 132.765625 518.023438 132.335938 515.222656 132.761719 512.765625 C 133.207031 510.167969 134.539062 508.238281 136.515625 507.335938 C 138.492188 506.425781 140.820312 506.671875 143.082031 508.023438 C 145.226562 509.304688 147.070312 511.457031 148.269531 514.074219 C 150.8125 519.597656 149.667969 525.566406 145.722656 527.378906 C 144.941406 527.738281 144.101562 527.914062 143.234375 527.914062 " fill-opacity="1" fill-rule="nonzero"/><path fill="#e2a18d" d="M 138.285156 516.6875 C 131.75 502.425781 126.683594 494.691406 117.695312 491.402344 C 105.617188 486.980469 93.765625 494.726562 92.542969 495.550781 C 91.757812 496.082031 80.1875 502.925781 79.339844 516.421875 C 78.503906 529.753906 84.757812 543.058594 95.96875 550.101562 L 98.535156 579.492188 C 99.363281 588.929688 107.679688 595.910156 117.121094 595.085938 L 119.261719 594.902344 C 128.699219 594.078125 135.683594 585.757812 134.859375 576.324219 L 133.144531 556.6875 C 139.089844 555.660156 143.671875 553.515625 145.308594 550.316406 C 148.234375 544.589844 145.980469 533.476562 138.285156 516.6875 " fill-opacity="1" fill-rule="nonzero"/><path fill="#363e44" d="M 120.1875 524.578125 C 119.777344 524.578125 119.390625 524.308594 119.261719 523.890625 C 119.105469 523.378906 119.390625 522.839844 119.902344 522.679688 L 147.0625 514.300781 C 147.578125 514.140625 148.121094 514.425781 148.28125 514.9375 C 148.4375 515.453125 148.148438 515.996094 147.636719 516.152344 L 120.476562 524.535156 C 120.382812 524.5625 120.285156 524.578125 120.1875 524.578125 " fill-opacity="1" fill-rule="nonzero"/><path fill="#363e44" d="M 133.371094 557.167969 C 132.882812 557.167969 132.464844 556.800781 132.40625 556.308594 L 131.585938 549.136719 C 131.527344 548.601562 131.910156 548.121094 132.445312 548.058594 C 132.96875 548.003906 133.457031 548.382812 133.519531 548.914062 L 134.335938 556.089844 C 134.398438 556.617188 134.015625 557.101562 133.480469 557.164062 L 133.371094 557.167969 " fill-opacity="1" fill-rule="nonzero"/><path fill="#363e44" d="M 119.683594 535.550781 C 119.449219 535.550781 119.210938 535.46875 119.023438 535.296875 C 117.242188 533.660156 116.136719 532.597656 115.324219 531.824219 C 114.933594 531.449219 114.613281 531.136719 114.3125 530.863281 C 113.921875 530.496094 113.898438 529.878906 114.265625 529.488281 C 114.632812 529.09375 115.246094 529.078125 115.636719 529.441406 C 115.941406 529.722656 116.269531 530.039062 116.667969 530.421875 C 117.472656 531.195312 118.570312 532.242188 120.339844 533.867188 C 120.734375 534.230469 120.761719 534.839844 120.398438 535.238281 C 120.207031 535.445312 119.945312 535.550781 119.683594 535.550781 " fill-opacity="1" fill-rule="nonzero"/><path fill="#b77250" d="M 121.476562 489.890625 C 110.65625 480.941406 85.847656 488.808594 77.1875 502.601562 C 65.480469 521.261719 74.359375 547.207031 90.351562 554.914062 C 95.714844 557.496094 104.558594 560.464844 113.226562 555.476562 C 118.289062 552.566406 116.566406 544.894531 116.117188 543.046875 C 111.113281 542.578125 107.207031 538.613281 106.851562 533.859375 C 106.492188 529.0625 109.832031 524.710938 114.035156 523.613281 C 116.824219 522.886719 119.253906 523.789062 120.246094 524.226562 C 127.339844 509.652344 129.1875 496.265625 121.476562 489.890625 " fill-opacity="1" fill-rule="nonzero"/><path fill="#b77250" d="M 88.253906 502.761719 C 88.253906 502.761719 108.125 414.222656 74.3125 413.285156 C 40.5 412.339844 67.785156 487.96875 88.253906 502.761719 " fill-opacity="1" fill-rule="nonzero"/><path fill="#b77250" d="M 86.789062 495.636719 C 86.789062 495.636719 74.832031 444.917969 102.496094 445.433594 C 130.15625 445.949219 86.789062 495.636719 86.789062 495.636719 " fill-opacity="1" fill-rule="nonzero"/><path fill="#b77250" d="M 88.789062 500.222656 C 88.789062 500.222656 60.195312 423.351562 36.703125 436.113281 C 13.214844 448.875 21.753906 467.273438 21.753906 467.273438 C 21.753906 467.273438 15.488281 458.980469 7.773438 472.195312 C 0.0585938 485.40625 9.800781 538.460938 79.640625 524.117188 L 88.789062 500.222656 " fill-opacity="1" fill-rule="nonzero"/><path fill="#efbc73" d="M 122.847656 539.433594 C 118.382812 539.433594 114.753906 543.0625 114.753906 547.527344 C 114.753906 551.988281 118.382812 555.617188 122.847656 555.617188 C 127.3125 555.617188 130.945312 551.988281 130.945312 547.527344 C 130.945312 543.0625 127.3125 539.433594 122.847656 539.433594 Z M 122.847656 557.5625 C 117.316406 557.5625 112.8125 553.058594 112.8125 547.527344 C 112.8125 541.992188 117.316406 537.488281 122.847656 537.488281 C 128.386719 537.488281 132.886719 541.992188 132.886719 547.527344 C 132.886719 553.058594 128.386719 557.5625 122.847656 557.5625 " fill-opacity="1" fill-rule="nonzero"/><path fill="#e2a18d" d="M 251.65625 644.285156 C 318.699219 690.085938 371.574219 721.402344 352.429688 739.542969 C 301.496094 787.8125 275.175781 746.582031 226.09375 725.90625 C 232.550781 704.917969 243.292969 669.511719 251.65625 644.285156 " fill-opacity="1" fill-rule="nonzero"/><path fill="#e2a18d" d="M 376.148438 607.984375 C 373.476562 614.816406 357.820312 641.433594 365.5625 653.5625 C 373.359375 665.78125 388.605469 670.691406 403.101562 670.503906 C 403.144531 670.464844 403.191406 670.417969 403.230469 670.375 C 406.851562 668.644531 412.003906 665.5 415.472656 659.839844 C 419.429688 653.390625 417.417969 649.847656 420.53125 642.390625 C 425.789062 629.800781 437.058594 627.617188 435.035156 623.222656 C 433.644531 620.214844 427.027344 621.199219 421.226562 623.671875 C 415.265625 626.210938 412.480469 630.359375 411.644531 629.703125 C 410.730469 628.988281 414.101562 625.140625 417.859375 619.964844 C 419.601562 617.5625 428.457031 613.917969 427.171875 609.523438 C 426.144531 606.015625 415.988281 607.503906 409.140625 613.273438 C 404.300781 617.351562 403.300781 623.417969 402.21875 623.007812 C 401.40625 622.703125 402.089844 619.101562 403.601562 616.171875 C 406.101562 611.34375 415.121094 607.511719 413.855469 603.492188 C 412.617188 599.550781 403.769531 601.003906 397.136719 605.910156 C 391.542969 610.046875 390.757812 616.863281 389.410156 616.359375 C 388.460938 616.007812 388.179688 612.886719 389.558594 606.460938 C 390.714844 601.097656 396.414062 591.40625 390.980469 589.367188 C 386.40625 587.644531 380.179688 597.679688 376.148438 607.984375 " fill-opacity="1" fill-rule="nonzero"/><path fill="#e2a18d" d="M 286.160156 703.335938 C 276.800781 712.765625 273.375 726.648438 277.550781 739.257812 C 281.53125 751.292969 290.941406 762.988281 312.703125 761.152344 C 355.820312 757.527344 410.316406 665.695312 410.316406 665.695312 L 402.796875 625.183594 C 359.984375 644.011719 317.789062 671.492188 286.160156 703.335938 " fill-opacity="1" fill-rule="nonzero"/><path fill="#363e44" d="M 243.472656 739.542969 L 290.0625 667.859375 C 290.0625 667.859375 237.765625 607.59375 196.019531 597.953125 L 195.0625 714.691406 C 207.515625 726.207031 224.769531 733.511719 243.472656 739.542969 " fill-opacity="1" fill-rule="nonzero"/><path fill="#363e44" d="M 211.351562 809.464844 L 3.332031 809.464844 L 3.332031 641.988281 C 20.972656 621.589844 42.183594 602.820312 66.449219 589.007812 C 77.128906 582.933594 89.371094 581.800781 101.601562 580.558594 C 141.941406 576.425781 176.589844 588.386719 216.582031 606.363281 C 216.582031 606.363281 205.035156 721.925781 211.351562 809.464844 " fill-opacity="1" fill-rule="nonzero"/><path fill="#bc8271" d="M 582.128906 190.925781 C 588.523438 188.636719 613.582031 174.867188 624.601562 182.355469 C 635.691406 189.898438 639.832031 204.132812 639.269531 217.535156 L 639.144531 217.652344 C 637.445312 220.957031 634.394531 225.632812 629.066406 228.695312 C 622.988281 232.175781 619.761719 230.21875 612.777344 232.898438 C 600.988281 237.421875 598.660156 247.785156 594.644531 245.792969 C 591.898438 244.429688 592.988281 238.335938 595.433594 233.035156 C 597.945312 227.589844 601.863281 225.128906 601.277344 224.339844 C 600.636719 223.472656 596.980469 226.488281 592.101562 229.824219 C 589.824219 231.371094 586.210938 239.464844 582.175781 238.15625 C 578.964844 237.109375 580.613281 227.757812 586.132812 221.578125 C 590.042969 217.210938 595.679688 216.453125 595.332031 215.441406 C 595.070312 214.679688 591.71875 215.214844 588.96875 216.535156 C 584.433594 218.71875 580.644531 226.953125 576.957031 225.679688 C 573.34375 224.425781 574.925781 216.28125 579.648438 210.277344 C 583.628906 205.214844 589.957031 204.667969 589.527344 203.410156 C 589.222656 202.523438 586.34375 202.183594 580.355469 203.28125 C 575.359375 204.207031 566.242188 209.21875 564.496094 204.132812 C 563.027344 199.863281 572.480469 194.375 582.128906 190.925781 " fill-opacity="1" fill-rule="nonzero"/><path fill="#bc8271" d="M 745.257812 202.503906 C 759.226562 207.910156 768.328125 221.828125 767.078125 236.761719 C 766.253906 246.550781 760.976562 256.425781 745.421875 261.78125 C 707.546875 274.808594 627.085938 217.382812 627.085938 217.382812 L 618.308594 180.265625 C 661.21875 180.226562 706.789062 187.609375 745.257812 202.503906 " fill-opacity="1" fill-rule="nonzero"/><path fill="#84524d" d="M 617.84375 543.789062 C 624.414062 529.988281 629.460938 522.523438 638.257812 519.445312 C 650.085938 515.304688 661.523438 523.015625 662.710938 523.84375 C 663.457031 524.367188 674.640625 531.191406 675.273438 544.355469 C 675.730469 553.832031 672.519531 563.25 666.472656 570.25 C 662.296875 575.085938 661.632812 582.019531 664.898438 587.507812 L 685.433594 622.019531 C 684.5 631.203125 676.296875 637.890625 667.109375 636.953125 L 665.027344 636.742188 C 655.847656 635.804688 637.511719 628.746094 638.445312 619.5625 L 622.304688 582.835938 C 616.519531 581.753906 612.082031 579.597656 610.535156 576.460938 C 607.761719 570.839844 610.117188 560.039062 617.84375 543.789062 " fill-opacity="1" fill-rule="nonzero"/><path fill="#363e44" d="M 622.078125 583.328125 C 621.613281 583.328125 621.207031 583 621.125 582.527344 C 621.027344 582.003906 621.375 581.496094 621.90625 581.402344 L 629.003906 580.109375 C 629.527344 580.019531 630.03125 580.367188 630.128906 580.890625 C 630.226562 581.417969 629.878906 581.925781 629.351562 582.023438 L 622.253906 583.3125 C 622.195312 583.324219 622.132812 583.328125 622.078125 583.328125 " fill-opacity="1" fill-rule="nonzero"/><path fill="#363e44" d="M 633.742188 563.382812 C 633.476562 563.382812 633.214844 563.273438 633.019531 563.058594 C 632.660156 562.660156 632.695312 562.042969 633.101562 561.6875 C 633.976562 560.90625 634.761719 560.179688 635.578125 559.425781 C 636.25 558.800781 636.953125 558.152344 637.738281 557.445312 C 638.140625 557.082031 638.75 557.113281 639.113281 557.511719 C 639.472656 557.910156 639.445312 558.523438 639.039062 558.878906 C 638.257812 559.589844 637.570312 560.226562 636.894531 560.855469 C 636.074219 561.613281 635.277344 562.347656 634.390625 563.136719 C 634.203125 563.304688 633.976562 563.382812 633.742188 563.382812 " fill-opacity="1" fill-rule="nonzero"/><path fill="#363e44" d="M 692.511719 552.453125 C 694.925781 545.179688 690.992188 537.328125 683.714844 534.914062 L 683.683594 534.898438 C 684.824219 533.683594 685.730469 532.210938 686.292969 530.523438 C 688.378906 524.261719 684.988281 517.5 678.722656 515.417969 C 677.414062 514.988281 676.089844 514.800781 674.785156 514.820312 C 676.421875 508.75 673.066406 502.382812 667.019531 500.378906 C 663.613281 499.242188 660.050781 499.746094 657.175781 501.441406 C 656.046875 497.003906 652.753906 493.21875 648.085938 491.667969 C 641.023438 489.324219 633.417969 492.949219 630.742188 499.800781 C 630.417969 499.660156 630.085938 499.523438 629.742188 499.410156 C 623.476562 497.332031 616.710938 500.71875 614.632812 506.980469 C 612.546875 513.242188 615.941406 520 622.203125 522.082031 C 622.382812 522.144531 622.5625 522.183594 622.742188 522.234375 C 619.9375 533.558594 631.242188 538.683594 631.882812 539.082031 C 628.90625 543.722656 625.929688 548.355469 622.957031 552.996094 C 624.714844 554.175781 626.769531 555.710938 628.53125 556.890625 C 631.382812 551.929688 634.152344 550.542969 637.292969 550.984375 C 642.242188 551.675781 645.234375 557.371094 644.175781 562.097656 C 643.210938 566.40625 640.289062 570.300781 635.539062 571.351562 C 640.246094 572.992188 645.21875 574.574219 650.453125 576.054688 C 653.179688 576.828125 655.863281 577.539062 658.492188 578.183594 C 660.386719 577.667969 672.636719 574.105469 678.796875 561.933594 C 684.808594 562.175781 690.511719 558.453125 692.511719 552.453125 " fill-opacity="1" fill-rule="nonzero"/><path fill="#efbc73" d="M 579.371094 643.5625 L 605.273438 731.289062 L 637.5 808.78125 L 805.792969 808.78125 C 806.183594 808.507812 806.574219 808.210938 806.960938 807.90625 L 806.960938 669.542969 L 780.929688 622.855469 L 742.546875 554.046875 C 742.546875 554.046875 715.800781 569.691406 694.089844 579.90625 C 672.671875 589.980469 579.371094 643.5625 579.371094 643.5625 " fill-opacity="1" fill-rule="nonzero"/><path fill="#84524d" d="M 415.605469 730.070312 C 416.464844 727.871094 418.660156 726.324219 421.230469 726.003906 C 421 725.800781 417.867188 722.996094 418.445312 718.828125 C 418.878906 715.660156 421.285156 713.011719 424.515625 712.164062 C 423.054688 709.414062 422.910156 706.332031 424.3125 704.136719 C 428.523438 697.53125 451.058594 706.734375 461.75 710.753906 C 466.464844 712.527344 506.578125 728.273438 534.429688 739.226562 L 537.308594 725.925781 C 565.050781 735.53125 597.277344 744.179688 597.277344 744.179688 C 591.535156 778.046875 578.535156 794.328125 578.535156 794.328125 C 566.035156 808.769531 549.597656 808.027344 541.355469 805.632812 C 520.09375 799.457031 501.25 792.191406 460.871094 772.105469 C 443.683594 763.546875 429.800781 755.550781 420.304688 751.96875 C 417.339844 750.039062 415.773438 746.738281 416.332031 743.632812 C 416.832031 740.828125 418.878906 739.199219 419.464844 738.765625 C 415.949219 736.996094 414.425781 733.097656 415.605469 730.070312 " fill-opacity="1" fill-rule="nonzero"/><path fill="#363e44" d="M 551.910156 746.792969 C 551.796875 746.792969 551.683594 746.773438 551.574219 746.734375 C 546.496094 744.847656 535.3125 740.601562 524.496094 736.496094 C 513.6875 732.390625 502.507812 728.140625 497.433594 726.261719 C 496.929688 726.078125 496.675781 725.519531 496.859375 725.015625 C 497.046875 724.515625 497.601562 724.257812 498.109375 724.445312 C 503.1875 726.320312 514.371094 730.574219 525.1875 734.679688 C 535.996094 738.785156 547.171875 743.035156 552.246094 744.910156 C 552.75 745.097656 553.003906 745.65625 552.820312 746.160156 C 552.675781 746.550781 552.304688 746.792969 551.910156 746.792969 " fill-opacity="1" fill-rule="nonzero"/><path fill="#363e44" d="M 438.121094 714.148438 C 438.027344 714.148438 437.933594 714.136719 437.839844 714.109375 C 437.324219 713.957031 437.035156 713.414062 437.191406 712.898438 L 438.648438 708.089844 C 438.804688 707.582031 439.347656 707.289062 439.855469 707.445312 C 440.375 707.601562 440.664062 708.144531 440.507812 708.65625 L 439.050781 713.464844 C 438.921875 713.882812 438.535156 714.148438 438.121094 714.148438 " fill-opacity="1" fill-rule="nonzero"/><path fill="#363e44" d="M 434.40625 726.347656 C 434.3125 726.347656 434.214844 726.332031 434.125 726.300781 C 433.605469 726.148438 433.320312 725.605469 433.476562 725.089844 L 434.929688 720.285156 C 435.089844 719.773438 435.628906 719.480469 436.140625 719.636719 C 436.65625 719.792969 436.945312 720.335938 436.789062 720.847656 L 435.332031 725.65625 C 435.207031 726.074219 434.820312 726.347656 434.40625 726.347656 " fill-opacity="1" fill-rule="nonzero"/><path fill="#363e44" d="M 430.480469 738.71875 C 430.390625 738.71875 430.296875 738.707031 430.199219 738.675781 C 429.6875 738.523438 429.398438 737.980469 429.550781 737.464844 L 431.011719 732.65625 C 431.164062 732.144531 431.707031 731.855469 432.222656 732.015625 C 432.734375 732.167969 433.023438 732.710938 432.871094 733.222656 L 431.414062 738.03125 C 431.285156 738.449219 430.902344 738.71875 430.480469 738.71875 " fill-opacity="1" fill-rule="nonzero"/><path fill="#363e44" d="M 427.160156 750.015625 C 427.066406 750.015625 426.96875 750 426.875 749.96875 C 426.363281 749.816406 426.074219 749.273438 426.226562 748.761719 L 427.6875 743.957031 C 427.84375 743.441406 428.378906 743.152344 428.894531 743.308594 C 429.410156 743.460938 429.703125 744.003906 429.542969 744.519531 L 428.089844 749.328125 C 427.960938 749.746094 427.578125 750.015625 427.160156 750.015625 " fill-opacity="1" fill-rule="nonzero"/><path fill="#efbc73" d="M 608.175781 757.9375 L 524.835938 730.695312 C 524.835938 730.695312 528.761719 668.761719 594.066406 634.8125 C 635.585938 613.230469 626.855469 733.449219 626.855469 733.449219 L 608.175781 757.9375 " fill-opacity="1" fill-rule="nonzero"/><path fill="#363e44" d="M 615.25 745.207031 C 615.082031 745.207031 614.917969 745.167969 614.769531 745.082031 C 614.296875 744.816406 614.136719 744.222656 614.410156 743.757812 L 626.523438 722.492188 C 626.792969 722.023438 627.382812 721.863281 627.847656 722.125 C 628.320312 722.394531 628.480469 722.984375 628.210938 723.453125 L 616.09375 744.71875 C 615.914062 745.03125 615.585938 745.207031 615.25 745.207031 " fill-opacity="1" fill-rule="nonzero"/><path fill="#84524d" d="M 730.507812 505.382812 C 730.507812 505.382812 692.515625 474.59375 666.714844 467.234375 C 615.121094 452.527344 604.800781 432.765625 609.445312 428.601562 C 614.472656 424.085938 621.910156 431.925781 627.496094 435.25 C 627.199219 434.167969 626.957031 430.835938 629.367188 428.515625 C 632.933594 425.082031 636.496094 426.757812 636.878906 426.78125 C 636.753906 426.421875 635.449219 422.535156 637.464844 419.867188 C 639.742188 416.855469 642.882812 416.097656 645.660156 416.636719 C 645.363281 415.742188 644.613281 412.300781 646.632812 409.78125 C 648.703125 407.199219 652.328125 406.675781 655.476562 407.464844 C 670.492188 411.226562 681.878906 413.179688 689.867188 416.679688 C 705.582031 423.5625 759.175781 446.660156 778.789062 462.765625 C 791.84375 476.3125 778.046875 500.277344 757.375 508.167969 C 744.359375 513.132812 730.507812 505.382812 730.507812 505.382812 " fill-opacity="1" fill-rule="nonzero"/><path fill="#363e44" d="M 655.910156 418.734375 C 655.695312 418.734375 655.480469 418.667969 655.296875 418.519531 C 654.882812 418.183594 654.820312 417.574219 655.160156 417.152344 L 658.535156 412.984375 C 658.875 412.566406 659.488281 412.507812 659.902344 412.839844 C 660.320312 413.179688 660.382812 413.792969 660.042969 414.207031 L 656.667969 418.375 C 656.476562 418.609375 656.191406 418.734375 655.910156 418.734375 " fill-opacity="1" fill-rule="nonzero"/><path fill="#363e44" d="M 647.359375 429.359375 C 647.132812 429.359375 646.90625 429.285156 646.726562 429.125 C 646.320312 428.773438 646.277344 428.160156 646.625 427.753906 L 650.585938 423.152344 C 650.933594 422.746094 651.542969 422.703125 651.949219 423.046875 C 652.363281 423.402344 652.40625 424.015625 652.058594 424.421875 L 648.097656 429.023438 C 647.90625 429.246094 647.632812 429.359375 647.359375 429.359375 " fill-opacity="1" fill-rule="nonzero"/><path fill="#363e44" d="M 638.6875 439.292969 C 638.476562 439.292969 638.261719 439.226562 638.082031 439.082031 C 637.660156 438.738281 637.597656 438.132812 637.9375 437.710938 C 638.566406 436.9375 639.136719 436.242188 639.707031 435.542969 C 640.285156 434.84375 640.855469 434.144531 641.488281 433.363281 C 641.828125 432.945312 642.433594 432.878906 642.855469 433.214844 C 643.269531 433.554688 643.339844 434.164062 643 434.585938 C 642.367188 435.371094 641.785156 436.070312 641.210938 436.773438 C 640.644531 437.464844 640.070312 438.160156 639.445312 438.929688 C 639.253906 439.171875 638.972656 439.292969 638.6875 439.292969 " fill-opacity="1" fill-rule="nonzero"/><path fill="#363e44" d="M 632.492188 448.324219 C 632.300781 448.324219 632.105469 448.265625 631.933594 448.148438 C 631.496094 447.839844 631.390625 447.234375 631.699219 446.796875 L 634.753906 442.441406 C 635.054688 442.003906 635.660156 441.894531 636.101562 442.207031 C 636.542969 442.511719 636.648438 443.117188 636.339844 443.558594 L 633.285156 447.910156 C 633.097656 448.179688 632.796875 448.324219 632.492188 448.324219 " fill-opacity="1" fill-rule="nonzero"/><path fill="#84524d" d="M 725.585938 492.609375 L 725.585938 566.050781 L 793.402344 600.398438 C 794.683594 556.832031 794.203125 508.703125 783.472656 471.539062 L 725.585938 492.609375 " fill-opacity="1" fill-rule="nonzero"/><path fill="#efbc73" d="M 791.898438 643.683594 C 799.453125 617.289062 799.453125 566.046875 799.453125 566.046875 L 722.0625 538.605469 L 714.097656 569.835938 L 791.898438 643.683594 " fill-opacity="1" fill-rule="nonzero"/><path fill="#363e44" d="M 791.894531 644.65625 C 791.59375 644.65625 791.308594 644.519531 791.109375 644.265625 L 767.191406 611.949219 C 766.875 611.523438 766.964844 610.917969 767.390625 610.59375 C 767.824219 610.277344 768.433594 610.367188 768.75 610.796875 L 792.671875 643.109375 C 792.996094 643.535156 792.902344 644.144531 792.472656 644.464844 C 792.296875 644.59375 792.09375 644.65625 791.894531 644.65625 " fill-opacity="1" fill-rule="nonzero"/><path fill="#ffffff" d="M 335.253906 330.589844 C 352.851562 313 381.390625 313 398.988281 330.589844 L 399.339844 330.945312 L 399.609375 330.675781 C 417.253906 313.035156 445.867188 313.035156 463.511719 330.675781 C 481.15625 348.320312 481.15625 376.917969 463.511719 394.554688 L 399.488281 458.546875 L 335.253906 394.304688 C 317.652344 376.710938 317.652344 348.1875 335.253906 330.589844 " fill-opacity="1" fill-rule="nonzero"/><path fill="#363e44" d="M 335.253906 330.589844 L 335.265625 330.589844 Z M 367.121094 318.367188 C 355.34375 318.367188 344.265625 322.957031 335.9375 331.28125 C 327.609375 339.609375 323.027344 350.675781 323.027344 362.449219 C 323.027344 374.222656 327.609375 385.292969 335.9375 393.617188 L 399.488281 457.175781 L 462.824219 393.871094 C 471.175781 385.523438 475.773438 374.425781 475.773438 362.617188 C 475.773438 350.808594 471.175781 339.710938 462.824219 331.363281 C 445.582031 314.128906 417.535156 314.128906 400.296875 331.363281 L 400.027344 331.632812 C 399.648438 332.011719 399.035156 332.011719 398.65625 331.632812 L 398.304688 331.285156 C 389.972656 322.957031 378.898438 318.367188 367.121094 318.367188 Z M 399.488281 459.519531 C 399.234375 459.519531 398.988281 459.417969 398.804688 459.234375 L 334.570312 394.992188 C 325.871094 386.300781 321.082031 374.742188 321.082031 362.449219 C 321.082031 350.15625 325.871094 338.597656 334.570312 329.910156 C 343.261719 321.214844 354.824219 316.429688 367.121094 316.429688 C 379.261719 316.429688 390.683594 321.09375 399.339844 329.578125 C 417.367188 312 446.339844 312.144531 464.195312 329.992188 C 472.914062 338.703125 477.71875 350.292969 477.71875 362.617188 C 477.71875 374.9375 472.914062 386.527344 464.195312 395.246094 L 400.175781 459.234375 C 399.996094 459.417969 399.75 459.519531 399.488281 459.519531 " fill-opacity="1" fill-rule="nonzero"/><path fill="#d87355" d="M 378.082031 379.292969 C 384.710938 371.917969 412.925781 330.457031 420.710938 337.789062 C 424.378906 341.242188 404.445312 367.050781 401.726562 371.414062 C 406.167969 367.425781 428.261719 340.386719 432.667969 345.203125 C 437.207031 350.160156 411.257812 378.527344 411.179688 378.78125 C 413.5625 376.691406 434.457031 353.566406 439.65625 358.472656 C 444.65625 363.195312 422.742188 381.269531 420.953125 384.175781 C 424.332031 381.910156 438.183594 368.355469 441.445312 371.441406 C 445.808594 375.574219 430.636719 388.96875 429.339844 391.75 C 423.929688 398.6875 423.320312 399.320312 415.328125 413.910156 C 401.027344 440.003906 351.976562 408.347656 378.082031 379.292969 " fill-opacity="1" fill-rule="nonzero"/><path fill="#d87355" d="M 388.664062 367.445312 C 387.734375 351.757812 385.980469 344.984375 384.289062 344.679688 C 378.71875 343.679688 372.125 375.851562 374.875 384.78125 C 376.132812 388.871094 378.199219 388.773438 378.199219 388.773438 C 379.796875 390.710938 380.859375 392.003906 381.839844 392.015625 C 383.839844 392.03125 385.976562 390.234375 388.664062 367.445312 " fill-opacity="1" fill-rule="nonzero"/><path fill="#e6d0be" d="M 383.695312 400.910156 C 386.089844 397.339844 395.667969 377.847656 399.449219 380.515625 C 401.234375 381.777344 394.257812 394.054688 393.359375 396.089844 C 395.015625 394.113281 402.847656 381.171875 405.03125 382.972656 C 407.28125 384.824219 397.875 398.5625 397.859375 398.675781 C 398.753906 397.636719 406.304688 386.449219 408.835938 388.238281 C 411.265625 389.960938 402.96875 399.042969 402.378906 400.394531 C 403.691406 399.21875 408.804688 392.566406 410.390625 393.6875 C 412.515625 395.195312 406.820312 401.863281 406.4375 403.136719 C 404.535156 406.441406 404.3125 406.75 401.773438 413.492188 C 397.230469 425.550781 374.269531 414.957031 383.695312 400.910156 " fill-opacity="1" fill-rule="nonzero"/><path fill="#e6d0be" d="M 387.511719 395.183594 C 386.160156 388.515625 384.996094 385.71875 384.25 385.691406 C 381.800781 385.597656 380.929688 399.796875 382.652344 403.457031 C 383.441406 405.136719 384.320312 404.96875 384.320312 404.96875 C 385.125 405.699219 385.660156 406.191406 386.078125 406.136719 C 386.941406 406.023438 387.746094 405.125 387.511719 395.183594 " fill-opacity="1" fill-rule="nonzero"/></svg>