<svg xmlns="http://www.w3.org/2000/svg" xmlns:xlink="http://www.w3.org/1999/xlink" width="1080" zoomAndPan="magnify" viewBox="0 0 810 809.999993" height="1080" preserveAspectRatio="xMidYMid meet" version="1.0"><defs><filter x="0%" y="0%" width="100%" height="100%" id="6acdbae11e"><feColorMatrix values="0 0 0 0 1 0 0 0 0 1 0 0 0 0 1 0 0 0 1 0" color-interpolation-filters="sRGB"/></filter><clipPath id="81bb6f2e35"><path d="M 0 58.171875 L 750 58.171875 L 750 751.921875 L 0 751.921875 Z M 0 58.171875 " clip-rule="nonzero"/></clipPath><mask id="1690197d56"><g filter="url(#6acdbae11e)"><rect x="-81" width="972" fill="#000000" y="-80.999999" height="971.999992" fill-opacity="0.1"/></g></mask><clipPath id="93c7591e95"><rect x="0" width="135" y="0" height="563"/></clipPath><clipPath id="e3b8c6f4cb"><path d="M 264 174 L 810 174 L 810 751.921875 L 264 751.921875 Z M 264 174 " clip-rule="nonzero"/></clipPath><clipPath id="3f93b1f170"><path d="M 286 174 L 784 174 L 784 751.921875 L 286 751.921875 Z M 286 174 " clip-rule="nonzero"/></clipPath><clipPath id="38c80a5d13"><path d="M 237 325 L 618 325 L 618 751.921875 L 237 751.921875 Z M 237 325 " clip-rule="nonzero"/></clipPath><clipPath id="0ca25ff472"><path d="M 432 227 L 792 227 L 792 751.921875 L 432 751.921875 Z M 432 227 " clip-rule="nonzero"/></clipPath><clipPath id="4648c94068"><path d="M 351 314 L 792 314 L 792 751.921875 L 351 751.921875 Z M 351 314 " clip-rule="nonzero"/></clipPath></defs><g clip-path="url(#81bb6f2e35)"><path fill="#f89921" d="M 392.144531 459.769531 L 387.675781 635.886719 L 368.441406 743.347656 L 238 751.816406 L 0.210938 751.816406 L 27.460938 459.785156 L 392.144531 459.785156 Z M 749.425781 144.585938 L 749.425781 58.171875 L 296.808594 115.878906 Z M 749.425781 144.585938 " fill-opacity="1" fill-rule="nonzero"/></g><path fill="#0f936d" d="M 340.25 567.203125 C 340.25 567.203125 323.898438 745.339844 323.898438 747.785156 C 323.898438 750.230469 14.296875 747.785156 14.296875 747.785156 C 14.296875 747.785156 30.132812 577.402344 30.394531 576.59375 Z M 262.742188 435.46875 C 257.429688 435.46875 252.992188 439.515625 252.507812 444.792969 L 249.886719 472.835938 C 249.320312 478.859375 254.0625 484.074219 260.117188 484.074219 C 265.429688 484.074219 269.867188 480.027344 270.351562 474.746094 L 272.972656 446.703125 C 273.523438 440.679688 268.78125 435.46875 262.742188 435.46875 Z M 262.742188 435.46875 " fill-opacity="1" fill-rule="nonzero"/><path fill="#fde2dd" d="M 30.78125 545.179688 L 11.757812 749.082031 L 325.433594 749.082031 L 344.460938 545.179688 Z M 158.015625 645.261719 L 160.785156 615.613281 L 201.328125 615.613281 L 198.558594 645.261719 Z M 198.21875 648.984375 L 195.449219 678.632812 L 154.90625 678.632812 L 157.675781 648.984375 Z M 157.398438 611.90625 L 116.855469 611.90625 L 119.800781 580.398438 L 160.347656 580.398438 Z M 164.070312 580.398438 L 204.613281 580.398438 L 201.667969 611.90625 L 161.140625 611.90625 Z M 157.042969 615.628906 L 154.273438 645.277344 L 113.746094 645.277344 L 116.515625 615.628906 Z M 205.066406 615.628906 L 245.609375 615.628906 L 242.84375 645.277344 L 202.296875 645.277344 Z M 205.40625 611.90625 L 208.355469 580.398438 L 248.898438 580.398438 L 245.949219 611.90625 Z M 116.046875 580.398438 L 113.097656 611.90625 L 72.570312 611.90625 L 75.519531 580.398438 Z M 112.757812 615.628906 L 109.992188 645.277344 L 69.464844 645.277344 L 72.230469 615.628906 Z M 109.652344 648.984375 L 106.882812 678.632812 L 66.355469 678.632812 L 69.125 648.984375 Z M 113.390625 648.984375 L 153.933594 648.984375 L 151.164062 678.632812 L 110.636719 678.632812 Z M 150.824219 682.355469 L 148.058594 712.003906 L 107.511719 712.003906 L 110.28125 682.355469 Z M 154.566406 682.355469 L 195.109375 682.355469 L 192.339844 712.003906 L 151.796875 712.003906 Z M 198.832031 682.355469 L 239.375 682.355469 L 236.609375 712.003906 L 196.066406 712.003906 Z M 199.191406 678.632812 L 201.957031 648.984375 L 242.5 648.984375 L 239.734375 678.632812 Z M 246.226562 648.984375 L 286.769531 648.984375 L 284 678.632812 L 243.457031 678.632812 Z M 246.582031 645.261719 L 249.351562 615.613281 L 289.894531 615.613281 L 287.125 645.261719 Z M 249.691406 611.90625 L 252.636719 580.398438 L 293.179688 580.398438 L 290.234375 611.90625 Z M 71.777344 580.398438 L 68.832031 611.90625 L 28.304688 611.90625 L 31.25 580.398438 Z M 68.492188 615.628906 L 65.722656 645.277344 L 25.179688 645.277344 L 27.949219 615.628906 Z M 65.382812 648.984375 L 62.613281 678.632812 L 22.070312 678.632812 L 24.839844 648.984375 Z M 62.257812 682.355469 L 59.488281 712.003906 L 18.960938 712.003906 L 21.730469 682.355469 Z M 66 682.355469 L 106.542969 682.355469 L 103.773438 712.003906 L 63.246094 712.003906 Z M 103.433594 715.710938 L 100.664062 745.355469 L 60.121094 745.355469 L 62.890625 715.710938 Z M 107.171875 715.710938 L 147.71875 715.710938 L 144.949219 745.355469 L 104.40625 745.355469 Z M 151.457031 715.710938 L 192 715.710938 L 189.230469 745.355469 L 148.6875 745.355469 Z M 195.726562 715.710938 L 236.269531 715.710938 L 233.5 745.355469 L 192.957031 745.355469 Z M 240.007812 715.710938 L 280.550781 715.710938 L 277.785156 745.355469 L 237.238281 745.355469 Z M 240.347656 712.003906 L 243.117188 682.355469 L 283.660156 682.355469 L 280.890625 712.003906 Z M 287.402344 682.355469 L 327.945312 682.355469 L 325.175781 712.003906 L 284.632812 712.003906 Z M 287.742188 678.632812 L 290.511719 648.984375 L 331.054688 648.984375 L 328.285156 678.632812 Z M 290.851562 645.261719 L 293.617188 615.613281 L 334.160156 615.613281 L 331.394531 645.261719 Z M 293.976562 611.90625 L 296.921875 580.398438 L 337.464844 580.398438 L 334.519531 611.90625 Z M 18.621094 715.710938 L 59.148438 715.710938 L 56.378906 745.355469 L 15.851562 745.355469 Z M 281.523438 745.355469 L 284.292969 715.710938 L 324.820312 715.710938 L 322.050781 745.355469 Z M 756.371094 115.878906 C 783.25 115.878906 805.027344 137.671875 805.027344 164.535156 L 805.027344 675.457031 L 750.269531 675.457031 C 750.269531 675.457031 669.8125 143.746094 673.84375 137.042969 C 677.875 130.339844 707.488281 115.878906 756.371094 115.878906 " fill-opacity="1" fill-rule="nonzero"/><g mask="url(#1690197d56)"><g transform="matrix(1, 0, 0, 1, 672, 114)"><g clip-path="url(#93c7591e95)"><path fill="#231f20" d="M 84.371094 1.878906 C 111.25 1.878906 133.027344 23.671875 133.027344 50.535156 L 133.027344 561.457031 L 78.269531 561.457031 C 78.269531 561.457031 -2.1875 29.746094 1.84375 23.042969 C 5.875 16.339844 35.488281 1.878906 84.371094 1.878906 " fill-opacity="1" fill-rule="nonzero"/></g></g></g><g clip-path="url(#e3b8c6f4cb)"><path fill="#f89921" d="M 809.789062 383.183594 L 783.542969 392.429688 L 783.542969 751.816406 L 399.1875 751.816406 L 386.316406 742.878906 L 339.085938 751.816406 L 293.40625 751.816406 L 264.488281 745.371094 L 264.488281 174.976562 L 783.542969 174.976562 L 783.542969 265.472656 L 809.789062 274.71875 Z M 809.789062 383.183594 " fill-opacity="1" fill-rule="nonzero"/></g><g clip-path="url(#3f93b1f170)"><path fill="#fde2dd" d="M 769.972656 204.027344 L 769.972656 751.816406 L 399.1875 751.816406 L 383.835938 745.371094 L 339.101562 751.816406 L 293.425781 751.816406 L 286.898438 749.097656 L 286.898438 194.683594 L 696.171875 194.683594 C 689.160156 184.96875 690.214844 174.976562 690.214844 174.976562 L 783.558594 174.976562 C 783.542969 186.636719 778.261719 197.078125 769.972656 204.027344 Z M 769.972656 204.027344 " fill-opacity="1" fill-rule="nonzero"/></g><g clip-path="url(#38c80a5d13)"><path fill="#231f20" d="M 542.191406 449.277344 L 517.320312 395.667969 L 527.40625 360.824219 L 582.039062 325.65625 L 611.699219 330.15625 C 615.183594 339.726562 617.078125 350.039062 617.078125 360.808594 C 617.09375 405.320312 584.675781 442.21875 542.191406 449.277344 Z M 582.039062 552.855469 L 527.40625 593.722656 L 498.636719 609.023438 L 491.867188 676.074219 C 502.765625 680.785156 514.777344 683.40625 527.40625 683.40625 C 576.9375 683.40625 617.078125 643.253906 617.078125 593.738281 C 617.078125 582.40625 614.957031 571.574219 611.117188 561.582031 Z M 384.890625 731.382812 C 375.175781 724.484375 373.570312 709.316406 373.667969 709.734375 C 373.75 710.15625 345.496094 709.734375 345.496094 709.734375 C 348.589844 730.769531 337.644531 733.78125 339.101562 751.816406 L 399.203125 751.816406 C 399.398438 741.210938 394.605469 738.28125 384.890625 731.382812 Z M 251.457031 710.949219 C 251.648438 721.699219 237.078125 736.207031 238 751.816406 L 293.425781 751.816406 C 291.464844 735.464844 275.96875 728.535156 275.777344 710.625 C 275.582031 692.71875 251.457031 710.949219 251.457031 710.949219 Z M 251.457031 710.949219 " fill-opacity="1" fill-rule="nonzero"/></g><path fill="#0f936d" d="M 72.378906 446.703125 L 69.753906 474.746094 C 69.269531 480.027344 64.832031 484.074219 59.523438 484.074219 C 53.464844 484.074219 48.722656 478.859375 49.289062 472.835938 L 51.910156 444.792969 C 52.398438 439.515625 56.832031 435.46875 62.144531 435.46875 C 68.199219 435.46875 72.945312 440.679688 72.378906 446.703125 Z M 129.015625 435.46875 C 123.703125 435.46875 119.269531 439.515625 118.78125 444.792969 L 116.160156 472.835938 C 115.59375 478.859375 120.335938 484.074219 126.394531 484.074219 C 131.703125 484.074219 136.140625 480.027344 136.625 474.746094 L 139.25 446.703125 C 139.816406 440.679688 135.070312 435.46875 129.015625 435.46875 Z M 195.871094 435.46875 C 190.558594 435.46875 186.125 439.515625 185.636719 444.792969 L 183.015625 472.835938 C 182.449219 478.859375 187.191406 484.074219 193.246094 484.074219 C 198.558594 484.074219 202.996094 480.027344 203.480469 474.746094 L 206.101562 446.703125 C 206.671875 440.679688 201.925781 435.46875 195.871094 435.46875 Z M 495.574219 490.730469 L 559.242188 490.730469 C 562.996094 490.730469 566.023438 487.683594 566.023438 483.945312 L 566.023438 483.441406 C 566.023438 479.6875 562.980469 476.660156 559.242188 476.660156 L 495.574219 476.660156 C 491.820312 476.660156 488.792969 479.703125 488.792969 483.441406 L 488.792969 483.945312 C 488.792969 487.683594 491.835938 490.730469 495.574219 490.730469 Z M 559.242188 710.707031 L 495.574219 710.707031 C 491.820312 710.707031 488.792969 713.75 488.792969 717.492188 L 488.792969 717.992188 C 488.792969 721.75 491.835938 724.777344 495.574219 724.777344 L 559.242188 724.777344 C 562.996094 724.777344 566.023438 721.734375 566.023438 717.992188 L 566.023438 717.492188 C 566.023438 713.734375 562.996094 710.707031 559.242188 710.707031 Z M 527.40625 271.15625 L 517.320312 340.324219 L 527.40625 360.824219 L 611.699219 330.175781 C 599.183594 295.75 566.171875 271.15625 527.40625 271.15625 Z M 564.292969 511.988281 L 530.402344 561.566406 L 527.40625 593.722656 L 576.191406 574.988281 L 611.132812 561.566406 C 602.648438 539.515625 585.714844 521.671875 564.292969 511.988281 Z M 377.296875 650.152344 C 375.773438 625.457031 374.234375 600.765625 372.648438 576.074219 C 371.222656 553.730469 369.785156 531.386719 368.230469 509.058594 C 367.710938 501.722656 367.207031 494.386719 366.609375 487.070312 C 366.433594 484.882812 366.320312 482.683594 366.042969 480.511719 C 365.378906 475.296875 359.613281 469.210938 353.882812 469.988281 C 352.132812 470.230469 350.304688 471.167969 348.71875 470.410156 C 347.375 469.777344 346.773438 468.15625 345.527344 467.363281 C 344.183594 466.507812 342.453125 466.796875 340.882812 466.605469 C 337.515625 466.214844 334.859375 463.6875 332.023438 461.828125 C 327.914062 459.140625 323.136719 457.714844 318.425781 456.320312 C 315.445312 455.449219 312.367188 454.558594 309.277344 454.882812 C 303.316406 455.511719 298.816406 460.355469 294.914062 464.886719 C 290.625 469.859375 285.410156 474.554688 282.640625 480.511719 C 282.367188 481.09375 282.121094 481.695312 281.894531 482.308594 C 280.4375 486.324219 278.820312 490.242188 277.554688 494.339844 C 273.3125 508.085938 271.191406 522.496094 271.242188 536.875 C 271.371094 569.921875 242.355469 713.507812 242.355469 713.507812 L 287.367188 712.683594 C 287.367188 712.683594 318.179688 559.558594 319.316406 552.355469 C 319.203125 559.574219 336.996094 712.519531 336.996094 712.519531 L 381.117188 712.519531 C 380.921875 709.296875 380.730469 706.09375 380.535156 702.871094 C 379.464844 685.320312 378.382812 667.734375 377.296875 650.152344 Z M 707.714844 174.976562 L 707.714844 164.550781 C 707.714844 137.671875 729.511719 115.894531 756.371094 115.894531 L 296.808594 115.894531 C 269.929688 115.894531 248.152344 137.6875 248.152344 164.550781 L 248.152344 174.976562 C 248.152344 195.914062 265.121094 212.898438 286.074219 212.898438 L 745.652344 212.898438 C 724.683594 212.882812 707.714844 195.914062 707.714844 174.976562 Z M 707.714844 174.976562 " fill-opacity="1" fill-rule="nonzero"/><g clip-path="url(#0ca25ff472)"><path fill="#f89921" d="M 527.40625 271.15625 L 527.40625 360.824219 L 542.191406 449.261719 C 537.382812 450.054688 532.445312 450.492188 527.40625 450.492188 C 477.878906 450.492188 437.738281 410.339844 437.738281 360.824219 C 437.738281 311.3125 477.878906 271.15625 527.40625 271.15625 Z M 564.292969 511.988281 C 553.039062 506.90625 540.554688 504.039062 527.40625 504.039062 C 477.878906 504.039062 437.738281 544.195312 437.738281 593.707031 C 437.738281 630.609375 460.035156 662.277344 491.867188 676.039062 L 527.40625 593.707031 Z M 446.191406 261.3125 L 432.234375 261.3125 L 432.234375 228.054688 L 447.519531 228.054688 C 449.105469 228.054688 450.5625 228.230469 451.875 228.570312 C 453.1875 228.929688 454.335938 229.445312 455.273438 230.175781 C 456.230469 230.886719 456.976562 231.777344 457.507812 232.8125 C 458.042969 233.867188 458.320312 235.097656 458.320312 236.523438 C 458.320312 238.675781 457.785156 240.359375 456.699219 241.574219 C 455.613281 242.789062 454.207031 243.664062 452.457031 244.246094 L 452.457031 244.34375 C 453.785156 244.601562 454.886719 244.972656 455.746094 245.492188 C 456.601562 245.996094 457.28125 246.578125 457.800781 247.226562 C 458.300781 247.871094 458.660156 248.585938 458.871094 249.347656 C 459.078125 250.105469 459.175781 250.867188 459.175781 251.628906 C 459.175781 253.636719 458.773438 255.253906 457.980469 256.519531 C 457.183594 257.78125 456.164062 258.753906 454.902344 259.464844 C 453.640625 260.179688 452.246094 260.664062 450.707031 260.921875 C 449.1875 261.199219 447.679688 261.3125 446.191406 261.3125 Z M 441.089844 241.21875 L 443.617188 241.21875 C 444.183594 241.21875 444.816406 241.183594 445.496094 241.105469 C 446.175781 241.023438 446.804688 240.863281 447.40625 240.601562 C 447.988281 240.34375 448.492188 239.988281 448.878906 239.535156 C 449.285156 239.082031 449.476562 238.464844 449.476562 237.703125 C 449.476562 237.039062 449.332031 236.488281 449.039062 236.035156 C 448.75 235.597656 448.378906 235.242188 447.890625 235.015625 C 447.421875 234.773438 446.855469 234.613281 446.207031 234.515625 C 445.558594 234.417969 444.863281 234.367188 444.136719 234.367188 L 441.089844 234.367188 Z M 443.941406 255.027344 C 444.832031 255.027344 445.65625 254.980469 446.433594 254.867188 C 447.210938 254.753906 447.890625 254.558594 448.457031 254.269531 C 449.023438 253.976562 449.476562 253.589844 449.816406 253.070312 C 450.15625 252.566406 450.320312 251.902344 450.320312 251.109375 C 450.320312 249.621094 449.753906 248.601562 448.636719 248.035156 C 447.503906 247.484375 445.980469 247.207031 444.039062 247.207031 L 441.089844 247.207031 L 441.089844 255.027344 Z M 467.839844 258.738281 C 469.117188 259.820312 470.671875 260.617188 472.453125 261.117188 C 474.25 261.617188 476.210938 261.878906 478.332031 261.878906 C 480.484375 261.878906 482.460938 261.617188 484.242188 261.085938 C 486.023438 260.566406 487.558594 259.757812 488.839844 258.671875 C 490.117188 257.585938 491.121094 256.226562 491.835938 254.574219 C 492.546875 252.925781 492.902344 250.964844 492.902344 248.714844 L 492.902344 228.039062 L 484.046875 228.039062 L 484.046875 247.289062 C 484.046875 248.472656 483.949219 249.539062 483.753906 250.527344 C 483.5625 251.515625 483.238281 252.359375 482.785156 253.054688 C 482.332031 253.75 481.730469 254.300781 481.003906 254.707031 C 480.273438 255.109375 479.382812 255.304688 478.332031 255.304688 C 476.257812 255.304688 474.800781 254.574219 473.925781 253.136719 C 473.054688 251.695312 472.617188 249.75 472.617188 247.304688 L 472.617188 228.054688 L 463.757812 228.054688 L 463.757812 248.683594 C 463.757812 250.964844 464.113281 252.941406 464.828125 254.609375 C 465.554688 256.292969 466.542969 257.667969 467.839844 258.738281 Z M 510.730469 261.3125 L 498.636719 261.3125 L 498.636719 228.054688 L 510.828125 228.054688 C 513.808594 228.054688 516.511719 228.328125 518.921875 228.863281 C 521.335938 229.398438 523.390625 230.320312 525.09375 231.601562 C 526.792969 232.878906 528.105469 234.578125 529.027344 236.699219 C 529.949219 238.804688 530.402344 241.429688 530.402344 244.535156 C 530.402344 247.453125 529.949219 249.976562 529.042969 252.082031 C 528.136719 254.1875 526.839844 255.9375 525.15625 257.296875 C 523.472656 258.65625 521.417969 259.675781 518.972656 260.324219 C 516.527344 260.988281 513.773438 261.3125 510.730469 261.3125 Z M 507.492188 254.738281 L 511.070312 254.738281 C 512.15625 254.738281 513.289062 254.609375 514.503906 254.332031 C 515.71875 254.058594 516.820312 253.554688 517.804688 252.828125 C 518.792969 252.097656 519.636719 251.078125 520.285156 249.78125 C 520.929688 248.488281 521.253906 246.804688 521.253906 244.730469 C 521.253906 242.511719 520.882812 240.730469 520.136719 239.40625 C 519.394531 238.078125 518.484375 237.039062 517.417969 236.328125 C 516.347656 235.617188 515.230469 235.144531 514.066406 234.953125 C 512.898438 234.757812 511.878906 234.644531 511.023438 234.644531 L 507.492188 234.644531 Z M 540.3125 257.796875 C 542.09375 259.191406 544.132812 260.226562 546.464844 260.890625 C 548.796875 261.554688 551.191406 261.894531 553.703125 261.894531 C 556.117188 261.894531 558.300781 261.78125 560.261719 261.539062 C 562.21875 261.296875 564.277344 260.90625 566.429688 260.371094 L 566.429688 241.882812 L 552.667969 241.882812 L 552.667969 248.164062 L 557.863281 248.164062 L 557.863281 254.738281 C 557.507812 254.898438 557.085938 255.027344 556.601562 255.140625 C 556.117188 255.257812 555.453125 255.304688 554.625 255.304688 C 553.039062 255.304688 551.566406 255.0625 550.222656 254.59375 C 548.878906 254.121094 547.695312 253.425781 546.722656 252.519531 C 545.738281 251.613281 544.976562 250.511719 544.441406 249.214844 C 543.90625 247.921875 543.632812 246.449219 543.632812 244.828125 C 543.632812 242.804688 544.003906 241.105469 544.75 239.726562 C 545.492188 238.367188 546.464844 237.265625 547.679688 236.425781 C 548.894531 235.582031 550.269531 234.984375 551.839844 234.613281 C 553.410156 234.238281 555.046875 234.0625 556.730469 234.0625 C 557.816406 234.0625 559.09375 234.222656 560.585938 234.53125 C 562.074219 234.855469 563.484375 235.40625 564.828125 236.199219 L 565.539062 228.960938 C 564.875 228.703125 564.128906 228.492188 563.320312 228.296875 C 562.511719 228.101562 561.652344 227.957031 560.777344 227.84375 C 559.886719 227.730469 558.996094 227.648438 558.105469 227.585938 C 557.214844 227.519531 556.34375 227.488281 555.484375 227.488281 C 552.179688 227.488281 549.234375 227.84375 546.644531 228.539062 C 544.050781 229.234375 541.851562 230.304688 540.039062 231.730469 C 538.222656 233.15625 536.847656 234.96875 535.890625 237.152344 C 534.9375 239.339844 534.46875 241.914062 534.46875 244.878906 C 534.46875 247.824219 535 250.367188 536.070312 252.503906 C 537.105469 254.625 538.53125 256.390625 540.3125 257.796875 Z M 596.480469 255.027344 L 581.375 255.027344 L 581.375 247.5 L 595.136719 247.5 L 595.136719 241.21875 L 581.375 241.21875 L 581.375 234.351562 L 595.945312 234.351562 L 595.945312 228.070312 L 572.5 228.070312 L 572.5 261.328125 L 596.464844 261.328125 L 596.464844 255.027344 Z M 607.570312 261.3125 L 616.429688 261.3125 L 616.429688 234.628906 L 624.621094 234.628906 L 624.621094 228.054688 L 599.378906 228.054688 L 599.378906 234.628906 L 607.570312 234.628906 Z M 582.878906 318.226562 L 582.878906 318.03125 C 582.878906 316.539062 581.664062 315.328125 580.175781 315.328125 L 538.289062 315.328125 C 536.800781 315.328125 535.585938 316.539062 535.585938 318.03125 L 535.585938 318.226562 C 535.585938 319.714844 536.800781 320.929688 538.289062 320.929688 L 580.175781 320.929688 C 581.664062 320.929688 582.878906 319.714844 582.878906 318.226562 Z M 552.035156 377.339844 C 550.480469 377.339844 549.21875 378.601562 549.21875 380.15625 C 549.21875 381.710938 550.480469 382.972656 552.035156 382.972656 L 596.335938 382.972656 C 597.890625 382.972656 599.152344 381.710938 599.152344 380.15625 C 599.152344 378.601562 597.890625 377.339844 596.335938 377.339844 Z M 552.035156 394.40625 L 588.5625 394.40625 C 590.117188 394.40625 591.378906 393.144531 591.378906 391.605469 C 591.378906 390.050781 590.117188 388.789062 588.5625 388.789062 L 552.035156 388.789062 C 550.480469 388.789062 549.21875 390.050781 549.21875 391.605469 C 549.21875 393.144531 550.480469 394.40625 552.035156 394.40625 Z M 596.171875 554.214844 C 596.171875 552.660156 594.910156 551.398438 593.355469 551.398438 L 559.46875 551.398438 C 557.914062 551.398438 556.664062 552.660156 556.664062 554.214844 C 556.664062 555.769531 557.929688 557.035156 559.46875 557.035156 L 593.371094 557.035156 C 594.910156 557.035156 596.171875 555.769531 596.171875 554.214844 Z M 593.550781 627.417969 C 593.550781 625.863281 592.289062 624.601562 590.75 624.601562 L 545.671875 624.601562 C 544.117188 624.601562 542.855469 625.863281 542.855469 627.417969 C 542.855469 628.972656 544.117188 630.234375 545.671875 630.234375 L 590.75 630.234375 C 592.289062 630.21875 593.550781 628.957031 593.550781 627.417969 Z M 545.65625 635.15625 C 544.101562 635.15625 542.839844 636.421875 542.839844 637.976562 C 542.839844 639.527344 544.101562 640.792969 545.65625 640.792969 L 569.261719 640.792969 C 570.816406 640.792969 572.0625 639.527344 572.0625 637.976562 C 572.0625 636.421875 570.800781 635.15625 569.261719 635.15625 Z M 653.507812 618.902344 L 653.507812 685.351562 L 515.085938 685.351562 L 515.085938 751.816406 L 791.929688 751.816406 L 791.929688 618.902344 Z M 653.507812 618.902344 " fill-opacity="1" fill-rule="nonzero"/></g><path fill="#fde2dd" d="M 146.390625 501.382812 C 146.792969 502.710938 146.792969 504.28125 146.40625 506.0625 C 145.9375 508.167969 144.835938 510.371094 143.070312 512.683594 C 141.320312 515 138.84375 517.476562 135.671875 520.101562 C 134.761719 520.878906 133.613281 521.769531 132.238281 522.804688 C 130.84375 523.839844 129.515625 524.8125 128.222656 525.71875 L 142.730469 525.71875 L 141.191406 532.664062 L 114.636719 532.664062 L 116.175781 525.671875 C 118.085938 524.308594 119.785156 523.078125 121.277344 521.996094 C 122.765625 520.910156 124.078125 519.921875 125.210938 519.046875 C 126.34375 518.171875 127.363281 517.378906 128.238281 516.652344 C 129.113281 515.9375 129.921875 515.242188 130.667969 514.578125 C 131.28125 514.011719 131.898438 513.429688 132.527344 512.8125 C 133.160156 512.199219 133.726562 511.582031 134.261719 510.953125 C 134.78125 510.320312 135.234375 509.6875 135.605469 509.027344 C 135.976562 508.378906 136.238281 507.730469 136.367188 507.097656 C 136.65625 505.769531 136.464844 504.6875 135.800781 503.84375 C 135.121094 503.003906 133.9375 502.582031 132.222656 502.582031 C 130.894531 502.582031 129.324219 502.777344 127.542969 503.164062 C 125.761719 503.550781 123.898438 504.199219 121.988281 505.105469 L 123.300781 497.480469 C 125.390625 496.785156 127.347656 496.25 129.210938 495.878906 C 131.054688 495.503906 132.902344 495.328125 134.714844 495.328125 C 136.753906 495.328125 138.585938 495.554688 140.21875 496.007812 C 141.855469 496.460938 143.183594 497.140625 144.21875 498.03125 C 145.253906 498.9375 145.96875 500.039062 146.390625 501.382812 Z M 179.03125 514.253906 C 178.398438 517.136719 177.589844 519.746094 176.617188 522.09375 C 175.648438 524.441406 174.417969 526.429688 172.960938 528.082031 C 171.484375 529.734375 169.738281 531.011719 167.714844 531.921875 C 165.6875 532.828125 163.308594 533.28125 160.574219 533.28125 C 157.835938 533.28125 155.667969 532.828125 154.03125 531.921875 C 152.414062 531.011719 151.230469 529.734375 150.484375 528.082031 C 149.742188 526.429688 149.402344 524.441406 149.464844 522.09375 C 149.53125 519.746094 149.871094 517.136719 150.519531 514.253906 C 151.050781 511.84375 151.75 509.496094 152.621094 507.210938 C 153.496094 504.929688 154.628906 502.921875 156.039062 501.171875 C 157.449219 499.425781 159.195312 498.015625 161.285156 496.945312 C 163.375 495.878906 165.933594 495.34375 168.945312 495.34375 C 171.921875 495.34375 174.238281 495.878906 175.875 496.945312 C 177.507812 498.015625 178.644531 499.425781 179.273438 501.171875 C 179.90625 502.921875 180.148438 504.945312 180.019531 507.210938 C 179.90625 509.496094 179.566406 511.84375 179.03125 514.253906 Z M 170.660156 505.980469 C 170.613281 504.800781 170.335938 503.84375 169.851562 503.082031 C 169.363281 502.320312 168.585938 501.949219 167.503906 501.949219 C 166.386719 501.949219 165.414062 502.320312 164.621094 503.082031 C 163.828125 503.84375 163.132812 504.800781 162.5625 505.980469 C 161.980469 507.164062 161.496094 508.476562 161.074219 509.949219 C 160.652344 511.421875 160.296875 512.878906 159.972656 514.320312 C 159.648438 515.761719 159.375 517.21875 159.148438 518.691406 C 158.90625 520.164062 158.824219 521.492188 158.871094 522.660156 C 158.921875 523.839844 159.195312 524.796875 159.648438 525.558594 C 160.121094 526.316406 160.914062 526.691406 162.03125 526.691406 C 163.148438 526.691406 164.117188 526.316406 164.914062 525.558594 C 165.707031 524.796875 166.402344 523.839844 166.96875 522.660156 C 167.550781 521.476562 168.039062 520.164062 168.457031 518.691406 C 168.863281 517.21875 169.234375 515.761719 169.558594 514.320312 C 169.882812 512.878906 170.160156 511.421875 170.386719 509.949219 C 170.628906 508.476562 170.707031 507.148438 170.660156 505.980469 Z M 208.597656 498.03125 C 207.5625 497.140625 206.234375 496.460938 204.597656 496.007812 C 202.960938 495.554688 201.132812 495.328125 199.09375 495.328125 C 197.261719 495.328125 195.433594 495.503906 193.585938 495.878906 C 191.742188 496.25 189.765625 496.785156 187.675781 497.480469 L 186.367188 505.105469 C 188.292969 504.199219 190.136719 503.550781 191.917969 503.164062 C 193.699219 502.777344 195.269531 502.582031 196.597656 502.582031 C 198.316406 502.582031 199.511719 503.003906 200.175781 503.84375 C 200.855469 504.6875 201.035156 505.769531 200.742188 507.097656 C 200.597656 507.730469 200.355469 508.363281 199.984375 509.027344 C 199.609375 509.671875 199.15625 510.320312 198.640625 510.953125 C 198.121094 511.582031 197.539062 512.199219 196.90625 512.8125 C 196.273438 513.429688 195.660156 514.011719 195.042969 514.578125 C 194.300781 515.242188 193.488281 515.9375 192.617188 516.652344 C 191.742188 517.363281 190.722656 518.171875 189.589844 519.046875 C 188.453125 519.921875 187.125 520.910156 185.652344 521.996094 C 184.164062 523.078125 182.464844 524.308594 180.554688 525.671875 L 179.015625 532.664062 L 205.570312 532.664062 L 207.105469 525.71875 L 192.601562 525.71875 C 193.894531 524.8125 195.222656 523.839844 196.613281 522.804688 C 198.007812 521.769531 199.140625 520.863281 200.046875 520.101562 C 203.222656 517.476562 205.683594 515 207.449219 512.683594 C 209.195312 510.371094 210.3125 508.167969 210.78125 506.0625 C 211.171875 504.28125 211.171875 502.710938 210.765625 501.382812 C 210.34375 500.039062 209.617188 498.9375 208.597656 498.03125 Z M 240.542969 497.382812 C 239.34375 496.605469 237.9375 496.074219 236.300781 495.78125 C 234.664062 495.488281 232.996094 495.328125 231.265625 495.328125 C 229.484375 495.328125 227.671875 495.441406 225.855469 495.667969 C 224.042969 495.894531 222.148438 496.28125 220.207031 496.847656 L 219.089844 504.054688 C 219.785156 503.78125 220.53125 503.535156 221.324219 503.34375 C 222.117188 503.148438 222.910156 503.003906 223.6875 502.890625 C 224.464844 502.777344 225.210938 502.710938 225.921875 502.644531 C 226.632812 502.597656 227.28125 502.566406 227.882812 502.566406 C 228.65625 502.566406 229.417969 502.613281 230.164062 502.726562 C 230.910156 502.824219 231.554688 503.035156 232.074219 503.359375 C 232.59375 503.667969 232.980469 504.101562 233.242188 504.652344 C 233.484375 505.203125 233.515625 505.902344 233.320312 506.792969 C 233.175781 507.453125 232.867188 508.039062 232.382812 508.554688 C 231.898438 509.058594 231.328125 509.480469 230.683594 509.820312 C 230.035156 510.160156 229.320312 510.402344 228.5625 510.578125 C 227.800781 510.757812 227.054688 510.839844 226.328125 510.839844 C 225.664062 510.839844 225.113281 510.839844 224.691406 510.839844 C 224.300781 510.839844 223.980469 510.839844 223.6875 510.839844 C 223.414062 510.839844 223.167969 510.824219 222.957031 510.808594 C 222.75 510.789062 222.503906 510.757812 222.246094 510.726562 L 220.804688 517.25 C 221.40625 517.21875 222.085938 517.1875 222.84375 517.171875 C 223.605469 517.152344 224.285156 517.136719 224.871094 517.136719 C 227.007812 517.136719 228.59375 517.476562 229.613281 518.15625 C 230.632812 518.835938 230.988281 519.90625 230.664062 521.332031 C 230.34375 522.773438 229.453125 523.90625 227.960938 524.746094 C 226.472656 525.589844 224.53125 526.011719 222.117188 526.011719 C 220.464844 526.011719 218.878906 525.898438 217.355469 525.671875 C 215.835938 525.445312 214.539062 524.972656 213.503906 524.277344 L 211.316406 532 C 212.613281 532.488281 214.132812 532.828125 215.882812 533.003906 C 217.632812 533.183594 219.558594 533.265625 221.664062 533.265625 C 223.832031 533.265625 225.953125 533.054688 228.011719 532.632812 C 230.066406 532.210938 231.929688 531.546875 233.613281 530.640625 C 235.28125 529.734375 236.707031 528.550781 237.886719 527.113281 C 239.070312 525.671875 239.878906 523.921875 240.332031 521.847656 C 240.851562 519.5 240.589844 517.640625 239.539062 516.246094 C 238.503906 514.871094 236.933594 513.949219 234.859375 513.496094 L 234.875 513.382812 C 235.796875 513.136719 236.738281 512.796875 237.644531 512.359375 C 238.566406 511.925781 239.410156 511.375 240.152344 510.726562 C 240.914062 510.078125 241.578125 509.300781 242.128906 508.410156 C 242.695312 507.519531 243.101562 506.484375 243.359375 505.332031 C 243.796875 503.34375 243.734375 501.691406 243.164062 500.410156 C 242.632812 499.179688 241.742188 498.144531 240.542969 497.382812 Z M 787.378906 624.226562 L 787.378906 624.066406 C 787.378906 622.804688 786.359375 621.78125 785.097656 621.78125 L 761.765625 621.78125 C 760.5 621.78125 759.480469 622.804688 759.480469 624.066406 L 759.480469 624.226562 C 759.480469 625.492188 760.5 626.511719 761.765625 626.511719 L 785.097656 626.511719 C 786.359375 626.511719 787.378906 625.492188 787.378906 624.226562 Z M 787.898438 645.488281 L 780.5625 645.488281 C 779.300781 645.488281 778.277344 646.507812 778.277344 647.769531 L 778.277344 647.933594 C 778.277344 649.195312 779.300781 650.214844 780.5625 650.214844 L 787.898438 650.214844 C 789.160156 650.214844 790.179688 649.195312 790.179688 647.933594 L 790.179688 647.769531 C 790.179688 646.507812 789.160156 645.488281 787.898438 645.488281 Z M 646.464844 688.28125 L 632.734375 688.28125 C 631.46875 688.28125 630.449219 689.300781 630.449219 690.566406 L 630.449219 690.726562 C 630.449219 691.988281 631.46875 693.007812 632.734375 693.007812 L 646.464844 693.007812 C 647.726562 693.007812 648.746094 691.988281 648.746094 690.726562 L 648.746094 690.566406 C 648.746094 689.300781 647.726562 688.28125 646.464844 688.28125 Z M 752.324219 621.765625 L 749.441406 621.765625 C 748.179688 621.765625 747.160156 622.785156 747.160156 624.050781 L 747.160156 624.210938 C 747.160156 625.476562 748.179688 626.496094 749.441406 626.496094 L 752.324219 626.496094 C 753.585938 626.496094 754.605469 625.476562 754.605469 624.210938 L 754.605469 624.050781 C 754.605469 622.785156 753.585938 621.765625 752.324219 621.765625 Z M 752.324219 621.765625 " fill-opacity="1" fill-rule="nonzero"/><path fill="#231f20" d="M 485.292969 350.347656 C 485.292969 351.902344 484.03125 353.164062 482.476562 353.164062 L 459.046875 353.164062 C 457.492188 353.164062 456.230469 351.902344 456.230469 350.347656 C 456.230469 348.792969 457.492188 347.53125 459.046875 347.53125 L 482.476562 347.53125 C 484.03125 347.546875 485.292969 348.808594 485.292969 350.347656 Z M 511.523438 335.550781 L 459.046875 335.550781 C 457.492188 335.550781 456.230469 336.8125 456.230469 338.367188 C 456.230469 339.921875 457.492188 341.183594 459.046875 341.183594 L 511.523438 341.183594 C 513.078125 341.183594 514.339844 339.921875 514.339844 338.367188 C 514.339844 336.8125 513.078125 335.550781 511.523438 335.550781 Z M 435.78125 391.652344 C 435.519531 391.652344 406.699219 385.777344 406.699219 385.777344 L 396.644531 365.019531 C 390.199219 351.726562 376.730469 343.273438 361.945312 343.273438 L 355 343.273438 L 351.179688 336.199219 L 320.773438 336.199219 L 315.089844 343.273438 L 312.757812 343.273438 C 296.113281 343.273438 281.363281 353.941406 276.148438 369.746094 L 263.988281 406.582031 C 258.839844 422.175781 268.457031 438.769531 284.535156 442.074219 L 285.976562 442.363281 L 279.855469 480.203125 L 368.667969 480.203125 L 375.5 407.003906 L 386.527344 421.703125 C 397.195312 435.9375 418.777344 435.175781 428.429688 420.246094 L 435.308594 408.914062 C 435.617188 408.539062 436.039062 391.652344 435.78125 391.652344 Z M 368.730469 277.972656 C 366.140625 274.101562 362.660156 275.949219 362.660156 275.949219 C 361.882812 272.320312 358.15625 269.648438 353.625 270.636719 C 352.539062 268.078125 347.375 265.992188 342.988281 269.34375 C 336.800781 265.957031 332.898438 272.015625 332.898438 272.015625 C 332.898438 272.015625 326.828125 270.410156 323.28125 276.613281 C 316.949219 277.261719 315.734375 283.816406 316.042969 301.304688 C 316.140625 312.234375 323.28125 329.171875 323.28125 329.171875 L 331.960938 333.332031 L 357.347656 325.980469 L 371.257812 295.378906 C 371.773438 287.203125 369.703125 279.414062 368.730469 277.972656 Z M 368.730469 277.972656 " fill-opacity="1" fill-rule="nonzero"/><path fill="#c17e5e" d="M 359.824219 303.507812 L 360.488281 299.765625 C 360.941406 297.222656 363.144531 295.378906 365.71875 295.378906 L 371.273438 295.378906 C 371.402344 297.207031 371.355469 299.085938 371.09375 300.996094 L 369.25 314.46875 L 367.613281 318.453125 C 367.550781 318.886719 368.535156 319.648438 368.441406 320.070312 C 367.953125 322.320312 367.015625 324.394531 365.75 326.207031 C 361.054688 329.265625 356.78125 331.695312 351.988281 333.347656 L 351.8125 333.347656 L 351.210938 336.214844 L 320.804688 336.214844 L 323.3125 329.1875 L 342.453125 329.1875 C 345.367188 329.1875 347.988281 327.421875 349.089844 324.71875 L 351.972656 317.65625 C 351.972656 317.65625 344.960938 315.8125 344.816406 308.769531 C 344.765625 306.550781 345.980469 304.382812 348.054688 303.570312 C 351.4375 302.242188 354.675781 304.203125 355.46875 307.183594 C 357.605469 307.164062 359.453125 305.628906 359.824219 303.507812 Z M 470.25 354.785156 L 471.109375 353.199219 C 471.9375 351.691406 471.902344 349.863281 471.027344 348.375 C 469.183594 345.265625 465.6875 339.96875 463.257812 336.3125 C 461.816406 334.140625 458.851562 333.640625 456.75 335.195312 L 450.386719 339.921875 L 443.632812 339.273438 L 441.300781 354.769531 L 406.714844 385.777344 L 435.390625 408.914062 C 435.375 408.914062 467.839844 359.1875 470.25 354.785156 Z M 470.25 354.785156 " fill-opacity="1" fill-rule="nonzero"/><g clip-path="url(#4648c94068)"><path fill="#231f20" d="M 365.71875 326.191406 C 362.660156 330.546875 357.605469 333.332031 351.957031 333.332031 L 351.777344 333.332031 L 354.5 319.746094 C 355.113281 316.671875 357.816406 314.46875 360.960938 314.46875 L 369.234375 314.46875 L 368.632812 318.792969 C 368.570312 319.230469 368.488281 319.648438 368.40625 320.054688 L 365.476562 320.054688 C 363.9375 320.054688 362.609375 321.121094 362.269531 322.628906 L 361.476562 326.191406 Z M 509.484375 573.644531 L 470.460938 573.644531 C 468.90625 573.644531 467.644531 574.910156 467.644531 576.464844 C 467.644531 578.015625 468.90625 579.28125 470.460938 579.28125 L 509.484375 579.28125 C 511.039062 579.28125 512.300781 578.015625 512.300781 576.464844 C 512.285156 574.910156 511.023438 573.644531 509.484375 573.644531 Z M 512.285156 588.980469 C 512.285156 590.535156 511.023438 591.796875 509.46875 591.796875 L 470.445312 591.796875 C 468.890625 591.796875 467.628906 590.535156 467.628906 588.980469 C 467.628906 587.425781 468.890625 586.160156 470.445312 586.160156 L 509.46875 586.160156 C 511.023438 586.160156 512.285156 587.425781 512.285156 588.980469 Z M 494.683594 601.480469 C 494.683594 603.035156 493.421875 604.28125 491.867188 604.28125 L 470.445312 604.28125 C 468.890625 604.28125 467.628906 603.015625 467.628906 601.480469 C 467.628906 599.925781 468.890625 598.660156 470.445312 598.660156 L 491.867188 598.660156 C 493.421875 598.679688 494.683594 599.925781 494.683594 601.480469 Z M 434.484375 324.636719 L 450.578125 339.96875 L 447.03125 342.140625 L 431.390625 327.957031 C 430.453125 327.097656 430.40625 325.625 431.296875 324.703125 C 432.167969 323.8125 433.578125 323.777344 434.484375 324.636719 Z M 655.175781 687.035156 L 655.175781 705.832031 L 791.914062 705.832031 L 791.914062 709.183594 L 655.175781 709.183594 L 655.175781 727.984375 L 791.914062 727.984375 L 791.914062 731.335938 L 655.175781 731.335938 L 655.175781 751.816406 L 651.824219 751.816406 L 651.824219 731.335938 L 515.085938 731.335938 L 515.085938 727.984375 L 651.824219 727.984375 L 651.824219 709.183594 L 515.085938 709.183594 L 515.085938 705.832031 L 651.824219 705.832031 L 651.824219 685.367188 L 653.507812 685.367188 L 653.507812 683.683594 L 791.929688 683.683594 L 791.929688 687.035156 Z M 791.75 664.886719 L 653.507812 664.886719 L 653.507812 661.535156 L 791.75 661.535156 Z M 791.75 642.71875 L 653.507812 642.71875 L 653.507812 639.367188 L 791.75 639.367188 Z M 791.75 642.71875 " fill-opacity="1" fill-rule="nonzero"/></g></svg>