<svg xmlns="http://www.w3.org/2000/svg" xmlns:xlink="http://www.w3.org/1999/xlink" width="1080" zoomAndPan="magnify" viewBox="0 0 810 809.999993" height="1080" preserveAspectRatio="xMidYMid meet" version="1.0"><defs><clipPath id="e269d6395c"><path d="M 165 34 L 781.730469 34 L 781.730469 582 L 165 582 Z M 165 34 " clip-rule="nonzero"/></clipPath><clipPath id="8b3272dbf4"><path d="M 659 150 L 781.730469 150 L 781.730469 284 L 659 284 Z M 659 150 " clip-rule="nonzero"/></clipPath></defs><g clip-path="url(#e269d6395c)"><path fill="#3b5d50" d="M 662.722656 581.726562 C 610.886719 559.589844 575.234375 534.46875 516.65625 531.574219 C 466.089844 529.058594 446.691406 516.117188 405.792969 488.132812 C 370.015625 463.613281 344.285156 445.546875 299.730469 441.351562 C 254.128906 437.023438 210.558594 440.96875 165.113281 432.507812 C 204.898438 299.828125 244.683594 167.121094 284.5 34.441406 C 378.25 37.960938 433.238281 87.773438 517.640625 115.886719 C 607.640625 145.875 694.84375 138.59375 782.109375 183.65625 C 742.292969 316.367188 702.507812 449.046875 662.722656 581.726562 " fill-opacity="1" fill-rule="nonzero"/></g><path fill="#dde7b8" d="M 354.65625 143.234375 C 326.859375 135.476562 296.773438 130.515625 263.03125 128.128906 L 289.238281 40.71875 L 289.300781 40.71875 C 319.289062 40.71875 347.625 50.085938 378.507812 61.820312 C 374.339844 75.78125 370.523438 88.886719 366.867188 101.605469 C 363.019531 114.898438 359.042969 128.605469 354.65625 143.234375 " fill-opacity="1" fill-rule="nonzero"/><path fill="#3b5d50" d="M 289.300781 34.359375 C 287.710938 34.359375 286.089844 34.382812 284.5 34.429688 C 274.542969 67.609375 264.589844 100.78125 254.636719 133.949219 C 289.839844 135.984375 325.046875 141.007812 358.914062 151.058594 C 368.964844 118.082031 376.3125 90.984375 386.328125 58.003906 C 354.558594 45.789062 323.105469 34.359375 289.300781 34.359375 Z M 293.945312 47.152344 C 319.449219 48.011719 344.191406 55.78125 370.714844 65.703125 C 367.183594 77.5625 363.941406 88.855469 360.761719 99.824219 C 357.421875 111.304688 354.019531 123.074219 350.328125 135.476562 C 326.0625 129.117188 300.019531 124.820312 271.394531 122.40625 L 285.484375 75.371094 L 293.945312 47.152344 " fill-opacity="1" fill-rule="nonzero"/><path fill="#dde7b8" d="M 548.679688 222.804688 C 521.457031 217.046875 492.550781 206.648438 460.714844 191.195312 C 468.792969 164.191406 476.871094 137.191406 484.917969 110.226562 C 515.921875 123.835938 546.929688 131.5625 574.121094 137.191406 C 569.988281 150.996094 565.949219 164.574219 561.972656 178.15625 C 557.585938 192.972656 553.226562 207.730469 548.679688 222.804688 " fill-opacity="1" fill-rule="nonzero"/><path fill="#3b5d50" d="M 480.910156 101.414062 C 471.6875 132.453125 462.367188 163.492188 453.082031 194.5 C 484.820312 210.273438 518.179688 223.535156 553.101562 230.183594 C 563.117188 197.046875 572.214844 165.464844 582.230469 132.328125 C 545.722656 125.078125 513.15625 116.523438 480.910156 101.414062 Z M 488.988281 118.84375 C 515.699219 129.910156 542.160156 136.84375 566.042969 141.964844 C 562.578125 153.601562 559.175781 165.117188 555.867188 176.375 C 552.113281 189.09375 548.234375 202.132812 544.292969 215.332031 C 520.628906 209.765625 495.632812 200.703125 468.378906 187.789062 C 475.25 164.828125 482.117188 141.835938 488.988281 118.84375 " fill-opacity="1" fill-rule="nonzero"/><path fill="#dde7b8" d="M 748.367188 274.039062 C 724.070312 261.605469 696.464844 248.34375 667.269531 239.308594 L 687.71875 157.324219 C 718.980469 162.445312 748.78125 172.527344 774.539062 186.710938 L 748.367188 274.039062 " fill-opacity="1" fill-rule="nonzero"/><g clip-path="url(#8b3272dbf4)"><path fill="#3b5d50" d="M 682.949219 150.136719 C 674.679688 183.371094 667.90625 210.464844 659.636719 243.667969 C 692.011719 252.984375 722.414062 267.742188 752.246094 283.199219 C 762.199219 249.996094 772.15625 216.824219 782.109375 183.65625 C 751.609375 166.007812 716.40625 154.972656 682.949219 150.136719 Z M 692.457031 164.605469 C 718.855469 169.535156 744.675781 178.28125 766.96875 189.859375 L 744.453125 264.910156 C 723.242188 254.226562 699.742188 243.253906 674.871094 235.082031 C 680.308594 213.296875 685.207031 193.640625 690.550781 172.304688 L 692.457031 164.605469 " fill-opacity="1" fill-rule="nonzero"/></g><path fill="#dde7b8" d="M 296.203125 334.75 C 289.140625 334.367188 282.050781 334.015625 274.988281 333.699219 C 251.296875 332.617188 226.90625 331.503906 203.117188 327.878906 L 229.355469 240.390625 C 237.875 241.34375 246.429688 242.234375 254.984375 243.125 C 276.929688 245.382812 299.542969 247.738281 321.675781 251.300781 C 321.675781 251.300781 303.769531 309.941406 296.203125 334.75 " fill-opacity="1" fill-rule="nonzero"/><path fill="#3b5d50" d="M 224.804688 233.492188 L 194.945312 333 C 229.925781 339.105469 265.480469 339.296875 300.8125 341.394531 C 310.480469 309.65625 320.179688 277.949219 329.878906 246.210938 C 295.089844 240.136719 259.851562 237.53125 224.804688 233.492188 Z M 233.933594 247.292969 C 240.769531 248.054688 247.640625 248.753906 254.320312 249.457031 C 273.78125 251.457031 293.785156 253.527344 313.4375 256.453125 L 312.867188 258.328125 C 305.773438 281.605469 298.652344 304.855469 291.558594 328.132812 C 286.089844 327.847656 280.617188 327.59375 275.277344 327.371094 C 254.191406 326.382812 232.503906 325.398438 211.355469 322.632812 L 222.070312 286.886719 L 233.933594 247.292969 " fill-opacity="1" fill-rule="nonzero"/><path fill="#dde7b8" d="M 489.71875 417.945312 C 466.851562 408.054688 445.734375 393.679688 425.289062 379.71875 C 419.53125 375.804688 413.585938 371.734375 407.636719 367.824219 C 415.238281 342.539062 422.808594 317.289062 430.40625 292.007812 C 457.375 307.429688 485.265625 322.980469 515.511719 332.585938 L 489.71875 417.945312 " fill-opacity="1" fill-rule="nonzero"/><path fill="#3b5d50" d="M 426.621094 282.53125 C 417.8125 311.851562 409.003906 341.171875 400.195312 370.527344 C 430.628906 390.308594 459.632812 413.238281 493.757812 426.5 C 503.648438 393.773438 513.539062 361.050781 523.429688 328.355469 C 488.921875 318.464844 457.597656 300.242188 426.621094 282.53125 Z M 434.191406 301.484375 C 457.535156 314.746094 481.671875 327.71875 507.625 336.6875 C 500.308594 360.828125 493.027344 384.996094 485.710938 409.167969 C 466.089844 399.847656 447.898438 387.445312 428.882812 374.46875 C 424.363281 371.386719 419.753906 368.238281 415.078125 365.152344 C 421.472656 343.90625 427.832031 322.726562 434.191406 301.484375 " fill-opacity="1" fill-rule="nonzero"/><path fill="#dde7b8" d="M 688.578125 473.40625 C 677.542969 468.285156 666.570312 462.910156 655.917969 457.695312 C 643.355469 451.589844 630.445312 445.261719 617.40625 439.347656 L 639.285156 351.605469 C 657.1875 358.058594 674.585938 366.613281 691.441406 374.914062 C 699.042969 378.667969 706.863281 382.515625 714.71875 386.171875 L 688.578125 473.40625 " fill-opacity="1" fill-rule="nonzero"/><path fill="#3b5d50" d="M 634.769531 343.304688 C 626.5 376.535156 618.230469 409.738281 609.960938 442.941406 C 637.917969 455.40625 664.664062 469.589844 692.554688 482.214844 L 722.414062 382.707031 C 693.222656 369.476562 665.332031 353.351562 634.769531 343.304688 Z M 643.738281 360.0625 C 658.8125 365.945312 673.375 373.132812 688.640625 380.640625 C 694.683594 383.597656 700.820312 386.617188 707.054688 389.609375 L 689.183594 449.269531 L 684.601562 464.5 C 675.855469 460.367188 667.175781 456.136719 658.683594 451.972656 C 647.648438 446.597656 636.328125 441.0625 624.847656 435.753906 C 631.144531 410.535156 637.441406 385.28125 643.738281 360.0625 " fill-opacity="1" fill-rule="nonzero"/><path fill="#dde7b8" d="M 422.839844 273.050781 C 394.726562 257.53125 366.867188 247.101562 338.023438 241.28125 C 338.023438 241.28125 355.894531 182.765625 363.144531 159.074219 C 385.40625 166.417969 405.632812 177.042969 426.941406 188.203125 C 432.984375 191.382812 439.183594 194.628906 445.449219 197.777344 C 437.914062 222.898438 430.375 247.960938 422.839844 273.050781 " fill-opacity="1" fill-rule="nonzero"/><path fill="#3b5d50" d="M 358.914062 151.058594 C 349.25 182.796875 339.546875 214.503906 329.878906 246.210938 C 364.449219 252.253906 396.378906 264.910156 426.621094 282.53125 C 435.433594 253.175781 444.273438 223.855469 453.082031 194.5 C 421.820312 178.980469 392.625 161.109375 358.914062 151.058594 Z M 367.28125 167.246094 C 386.710938 174.304688 404.902344 183.847656 423.984375 193.832031 C 428.53125 196.21875 433.140625 198.636719 437.816406 201.050781 C 431.550781 221.945312 425.289062 242.871094 418.992188 263.765625 C 394.882812 251.140625 370.808594 242.140625 346.132812 236.511719 L 347.53125 231.964844 C 354.113281 210.402344 360.695312 188.808594 367.28125 167.246094 " fill-opacity="1" fill-rule="nonzero"/><path fill="#dde7b8" d="M 630.1875 335.386719 C 611.554688 330.550781 592.820312 329.3125 574.628906 328.164062 C 560.445312 327.242188 545.816406 326.289062 531.539062 323.554688 L 557.617188 237.242188 C 569.765625 238.898438 581.914062 239.789062 593.679688 240.679688 C 613.746094 242.171875 632.796875 243.605469 651.941406 248.246094 L 630.1875 335.386719 " fill-opacity="1" fill-rule="nonzero"/><path fill="#3b5d50" d="M 553.101562 230.183594 C 543.242188 262.90625 533.320312 295.632812 523.429688 328.355469 C 560.480469 337.070312 597.910156 331.917969 634.769531 343.304688 C 643.070312 310.101562 651.371094 276.902344 659.636719 243.667969 C 624.335938 233.839844 588.941406 235.652344 553.101562 230.183594 Z M 562.164062 244.238281 C 572.660156 245.480469 583.058594 246.273438 593.203125 247.039062 C 610.789062 248.34375 627.582031 249.582031 644.183594 253.050781 L 636.261719 284.914062 L 625.578125 327.753906 C 608.46875 323.96875 591.519531 322.886719 575.042969 321.804688 C 562.894531 321.011719 551.191406 320.277344 539.710938 318.53125 L 546.136719 297.253906 L 562.164062 244.238281 " fill-opacity="1" fill-rule="nonzero"/><path fill="#dde7b8" d="M 367.949219 456.074219 C 339.929688 440.394531 313.3125 435.464844 279.410156 433.558594 C 288.125 404.871094 296.679688 376.757812 305.425781 348.074219 C 341.550781 350.714844 369.507812 358.792969 392.722656 373.261719 C 384.613281 400.386719 376.058594 428.851562 367.949219 456.074219 " fill-opacity="1" fill-rule="nonzero"/><path fill="#3b5d50" d="M 300.8125 341.394531 C 290.765625 374.375 280.96875 406.496094 270.984375 439.503906 C 312.136719 441.253906 340.882812 446.566406 371.730469 465.679688 C 380.988281 434.640625 390.878906 401.566406 400.195312 370.527344 C 370.652344 350.714844 335.828125 343.429688 300.8125 341.394531 Z M 310.003906 354.816406 C 340.535156 357.550781 364.832031 364.453125 385.214844 376.1875 C 378.25 399.402344 371.03125 423.476562 364.066406 446.851562 C 339.804688 434.703125 315.695312 429.871094 287.839844 427.738281 C 295.246094 403.347656 302.5625 379.273438 310.003906 354.816406 " fill-opacity="1" fill-rule="nonzero"/><path fill="#dde7b8" d="M 579.558594 537.773438 C 557.902344 530.332031 539.425781 528.550781 521.519531 526.835938 C 505.332031 525.246094 489.941406 523.75 472.703125 518.246094 C 481.386719 489.464844 489.335938 463.132812 498.050781 434.351562 C 515.414062 438.902344 533 439.761719 550.046875 440.648438 C 568.144531 441.574219 585.316406 442.429688 602.332031 447.234375 C 598.671875 461.863281 594.824219 477.09375 590.976562 492.359375 C 587.128906 507.6875 583.25 523.019531 579.558594 537.773438 " fill-opacity="1" fill-rule="nonzero"/><path fill="#3b5d50" d="M 493.757812 426.5 C 483.738281 459.636719 474.867188 489.148438 464.847656 522.285156 C 507.242188 537.679688 538.25 528.457031 584.011719 546.171875 C 592.3125 512.96875 601.664062 476.171875 609.964844 442.941406 C 571.515625 429.964844 531.792969 438.488281 493.757812 426.5 Z M 502.40625 441.921875 C 518.371094 445.421875 534.273438 446.214844 549.730469 447.011719 C 565.28125 447.773438 580.164062 448.539062 594.601562 451.84375 C 591.421875 464.566406 588.113281 477.667969 584.808594 490.800781 C 581.53125 503.875 578.222656 516.914062 575.042969 529.632812 C 555.550781 523.71875 538.597656 522.0625 522.125 520.472656 C 508.226562 519.136719 494.933594 517.867188 480.65625 513.953125 C 488.03125 489.433594 494.964844 466.472656 502.40625 441.921875 " fill-opacity="1" fill-rule="nonzero"/><path fill="#3b5d50" d="M 57.8125 809.621094 L 28.019531 800.683594 L 268.023438 0.347656 L 297.824219 9.261719 L 57.8125 809.628906 " fill-opacity="1" fill-rule="nonzero"/></svg>