<svg xmlns="http://www.w3.org/2000/svg" fill="none" viewBox="38 0 400 198.44">
<path d="M313.085 86.5996H285.758V156.435H313.085V86.5996Z" fill="#6D4E6F"/>
<path d="M298.789 138.184H291.761V156.435H298.789V138.184Z" fill="#707986"/>
<path d="M307.082 138.184H300.054V156.435H307.082V138.184Z" fill="#707986"/>
<path d="M296.499 92.2397H291.761V102.194H296.499V92.2397Z" fill="#738F93"/>
<path d="M307.087 92.2397H302.344V102.194H307.087V92.2397Z" fill="#738F93"/>
<path d="M296.499 107.663H291.761V117.618H296.499V107.663Z" fill="#738F93"/>
<path d="M307.087 107.663H302.344V117.618H307.087V107.663Z" fill="#738F93"/>
<path d="M296.499 123.092H291.761V133.046H296.499V123.092Z" fill="#738F93"/>
<path d="M307.087 123.092H302.344V133.046H307.087V123.092Z" fill="#738F93"/>
<path d="M287.709 84.5376H286.774V86.975H287.709V84.5376Z" fill="#4F3D51"/>
<path d="M302.529 75.963H301.594V86.975H302.529V75.963Z" fill="#4F3D51"/>
<path d="M296.671 73.5594H293.111L287.113 79.0972H290.672L296.671 73.5594Z" fill="#A1EFFF"/>
<path d="M290.754 79.3168H286.558L293.035 73.3404H297.231L290.754 79.3168ZM287.669 78.8781H290.591L296.115 73.7791H293.193L287.669 78.8781Z" fill="#4F3D51"/>
<path d="M287.113 79.0972L281.115 84.6301H284.674L290.672 79.0972H287.113Z" fill="#A1EFFF"/>
<path d="M284.755 84.8496H280.559L287.032 78.8731H291.228L284.755 84.8496ZM281.67 84.4108H284.592L290.112 79.3167H287.185L281.67 84.4108Z" fill="#4F3D51"/>
<path d="M294.503 79.0972L300.501 73.5594H296.671L290.673 79.0972H294.503Z" fill="#A1EFFF"/>
<path d="M294.58 79.3168H290.117L296.594 73.3404H301.057L294.58 79.3168ZM291.233 78.8781H294.426L299.941 73.7791H296.748L291.233 78.8781Z" fill="#4F3D51"/>
<path d="M290.672 79.0972L284.674 84.6301H288.504L294.502 79.0972H290.672Z" fill="#A1EFFF"/>
<path d="M288.581 84.8496H284.118L290.596 78.8731H295.058L288.581 84.8496ZM285.234 84.4108H288.423L293.943 79.3167H290.749L285.234 84.4108Z" fill="#4F3D51"/>
<path d="M288.504 84.6301H293.111L299.11 79.0972H294.503L288.504 84.6301Z" fill="#A1EFFF"/>
<path d="M293.193 84.8496H287.949L294.426 78.8731H299.666L293.193 84.8496ZM289.06 84.4108H293.035L298.554 79.3167H294.58L289.06 84.4108Z" fill="#4F3D51"/>
<path d="M300.501 73.5594L294.503 79.0972H299.11L305.108 73.5594H300.501Z" fill="#A1EFFF"/>
<path d="M299.191 79.3168H293.942L300.42 73.3404H305.664L299.191 79.3168ZM295.058 78.8781H299.033L304.553 73.7791H300.578L295.058 78.8781Z" fill="#4F3D51"/>
<path d="M108.464 49.8481H63.7461V160.066H108.464V49.8481Z" fill="#C2B2A7"/>
<path d="M101.707 80.9779H70.8103V90.0067H101.707V80.9779Z" fill="#F5F5F5"/>
<path d="M100.834 81.8996H91.5479V89.1543H100.834V81.8996Z" fill="#6D4E6F"/>
<path d="M90.1953 81.8996H81.3604V89.1543H90.1953V81.8996Z" fill="#6D4E6F"/>
<path d="M80.1509 81.8996H71.7114V89.1543H80.1509V81.8996Z" fill="#6D4E6F"/>
<path d="M101.707 68.0691H70.8103V77.0929H101.707V68.0691Z" fill="#F5F5F5"/>
<path d="M100.834 68.9858H91.5479V76.2406H100.834V68.9858Z" fill="#6D4E6F"/>
<path d="M90.1953 68.9858H81.3604V76.2406H90.1953V68.9858Z" fill="#6D4E6F"/>
<path d="M80.1509 68.9858H71.7114V76.2406H80.1509V68.9858Z" fill="#6D4E6F"/>
<path d="M101.707 55.1603H70.8103V64.189H101.707V55.1603Z" fill="#F5F5F5"/>
<path d="M100.834 56.077H91.5479V63.3317H100.834V56.077Z" fill="#6D4E6F"/>
<path d="M90.1953 56.077H81.3604V63.3317H90.1953V56.077Z" fill="#6D4E6F"/>
<path d="M80.1509 56.077H71.7114V63.3317H80.1509V56.077Z" fill="#6D4E6F"/>
<path d="M101.707 94.3427H70.8103V103.367H101.707V94.3427Z" fill="#F5F5F5"/>
<path d="M100.834 95.2593H91.5479V102.519H100.834V95.2593Z" fill="#6D4E6F"/>
<path d="M90.1953 95.2593H81.3604V102.519H90.1953V95.2593Z" fill="#6D4E6F"/>
<path d="M80.1509 95.2594H71.7114V102.519H80.1509V95.2594Z" fill="#6D4E6F"/>
<path d="M101.707 107.707H70.8103V116.736H101.707V107.707Z" fill="#F5F5F5"/>
<path d="M100.834 108.624H91.5479V115.879H100.834V108.624Z" fill="#6D4E6F"/>
<path d="M90.1953 108.624H81.3604V115.879H90.1953V108.624Z" fill="#6D4E6F"/>
<path d="M80.1509 108.624H71.7114V115.879H80.1509V108.624Z" fill="#6D4E6F"/>
<path d="M101.707 121.067H70.8103V130.091H101.707V121.067Z" fill="#F5F5F5"/>
<path d="M100.834 121.984H91.5479V129.239H100.834V121.984Z" fill="#6D4E6F"/>
<path d="M90.1953 121.984H81.3604V129.239H90.1953V121.984Z" fill="#6D4E6F"/>
<path d="M80.1509 121.984H71.7114V129.239H80.1509V121.984Z" fill="#6D4E6F"/>
<path d="M101.707 134.432H70.8103V143.461H101.707V134.432Z" fill="#F5F5F5"/>
<path d="M100.834 135.349H91.5479V142.603H100.834V135.349Z" fill="#6D4E6F"/>
<path d="M90.1953 135.349H81.3604V142.603H90.1953V135.349Z" fill="#6D4E6F"/>
<path d="M80.1509 135.349H71.7114V142.603H80.1509V135.349Z" fill="#6D4E6F"/>
<path d="M70.8104 143.456H63.7461V160.111H70.8104V143.456Z" fill="#D05F72"/>
<path d="M68.8925 147.336H65.5857V151.498H68.8925V147.336Z" fill="#707986"/>
<path d="M70.3183 152.865C70.3183 153.158 70.0929 153.395 69.8169 153.395C69.541 153.395 69.311 153.158 69.311 152.865C69.311 152.573 69.5364 152.341 69.8169 152.341C70.0929 152.341 70.3183 152.573 70.3183 152.865Z" fill="#F5F5F5"/>
<path d="M76.8583 45.6855H75.2578V49.8481H76.8583V45.6855Z" fill="#4F3D51"/>
<path d="M102.227 31.0226H100.626V49.8432H102.227V31.0226Z" fill="#4F3D51"/>
<path d="M92.1961 26.9192H86.1022L75.8369 36.3791H81.9308L92.1961 26.9192Z" fill="#A1EFFF"/>
<path d="M82.0641 36.7559H74.8848L85.9687 26.5428H93.148L82.0641 36.7559ZM76.7888 36.0027H81.7927L91.244 27.296H86.2401L76.7888 36.0027Z" fill="#4F3D51"/>
<path d="M75.8368 36.3789L65.5669 45.8388H71.6608L81.9307 36.3789H75.8368Z" fill="#A1EFFF"/>
<path d="M71.7948 46.2158H64.6155L75.6995 36.0027H82.8834L71.7948 46.2158ZM66.5195 45.4626H71.5234L80.9747 36.7559H75.9708L66.5195 45.4626Z" fill="#4F3D51"/>
<path d="M88.4804 36.3791L98.7503 26.9192H92.1965L81.9312 36.3791H88.4804Z" fill="#A1EFFF"/>
<path d="M88.6182 36.7559H80.979L92.063 26.5428H99.7022L88.6182 36.7559ZM82.8831 36.0027H88.3469L97.7981 27.296H92.3343L82.8831 36.0027Z" fill="#4F3D51"/>
<path d="M81.9308 36.3789L71.6609 45.8388H78.2147L88.48 36.3789H81.9308Z" fill="#A1EFFF"/>
<path d="M78.3479 46.2158H70.7087L81.7927 36.0027H89.4319L78.3479 46.2158ZM72.6128 45.4626H78.0766L87.5279 36.7559H82.0641L72.6128 45.4626Z" fill="#4F3D51"/>
<path d="M78.2146 45.8388H86.1022L96.3721 36.3789H88.4799L78.2146 45.8388Z" fill="#A1EFFF"/>
<path d="M86.2407 46.2158H77.2632L88.3472 36.0027H97.3247L86.2407 46.2158ZM79.1672 45.4626H85.9694L95.4207 36.7559H88.6185L79.1672 45.4626Z" fill="#4F3D51"/>
<path d="M98.7504 26.9192L88.4805 36.3791H96.3726L106.638 26.9192H98.7504Z" fill="#A1EFFF"/>
<path d="M96.5059 36.7559H87.5283L98.6123 26.5428H107.59L96.5059 36.7559ZM89.4324 36.0027H96.2345L105.686 27.296H98.8837L89.4324 36.0027Z" fill="#4F3D51"/>
<g opacity="0.2">
<path d="M121.994 154.613V186.432H386.255V98.9335H377.272V53.697H365.025V142.332H355.054V0H319.224V111.114H313.592V142.335H305.471V60.4431H309.899V51.2402H305.471V44.4942H301.958V31.6129H289.389V44.4942H286.124V51.2402H281.838V60.4431H286.124V142.332H274.655V31.6129H269.794L271.357 22.6401H250.949V31.6129H247.651V142.332H245.461V50.3227H238.658V142.332H232.948V75.6552H219.4V142.332H213.872V61.9741H204.892V40.2022H182.549V129.026H180.435V71.4865H162.966V129.026H159.228V146.52H154.374V99.3224H140.073V115.923H135.671V80.4428H131.443V146.523H128.031V90.2017H121.994V94.9154H122.587V98.0762H121.994V108.673H123.614V111.834H121.994V130.472H124.044V131.954H121.994V150.179H123.079V154.619H121.994V154.613ZM371.549 132.694H378.053V142.466H371.549V132.694ZM331.167 123.691H326.541V116.739H331.167V123.691ZM341.853 19.1343H346.479V26.0857H341.853V19.1343ZM341.853 42.8536H346.479V49.8077H341.853V42.8536ZM330.969 78.0353H335.595V84.9895H330.969V78.0353ZM324.227 15.6558H328.853V22.6073H324.227V15.6558ZM324.227 58.2903H328.853V65.2417H324.227V58.2903ZM266.412 39.3751H271.038V46.3265H266.412V39.3751ZM261.787 54.8145H266.412V61.7687H261.787V54.8145ZM259.472 95.8248H264.098V102.779H259.472V95.8248ZM251.514 39.3751H256.139V46.3265H251.514V39.3751ZM251.514 78.0353H256.139V84.9895H251.514V78.0353ZM221.032 83.5461H230.557V86.7369H221.032V83.5461ZM221.032 90.5605H230.557V93.7514H221.032V90.5605ZM221.032 97.575H230.557V100.766H221.032V97.575ZM221.032 104.589H230.557V107.783H221.032V104.589ZM221.032 111.604H230.557V114.795H221.032V111.604ZM221.032 118.621H230.557V121.812H221.032V118.621ZM221.032 125.635H230.557V128.826H221.032V125.635ZM221.032 132.65H230.557V135.844H221.032V132.65ZM205.112 76.3865H208.106V80.8838H205.112V76.3865ZM205.112 99.3005H208.106V103.798H205.112V99.3005ZM205.112 122.215H208.106V126.712H205.112V122.215ZM198.444 66.3674H201.437V70.8648H198.444V66.3674ZM198.444 89.2814H201.437V93.7815H198.444V89.2814ZM198.444 112.195H201.437V116.696H198.444V112.195ZM198.444 135.109H201.437V139.607H198.444V135.109ZM191.775 56.3483H194.768V60.8484H191.775V56.3483ZM191.775 79.2624H194.768V83.7625H191.775V79.2624ZM191.775 102.176H194.768V106.674H191.775V102.176ZM191.775 125.09H194.768V129.59H191.775V125.09ZM185.109 46.3293H188.102V50.8266H185.109V46.3293ZM185.109 69.2433H188.102V73.7407H185.109V69.2433ZM185.109 92.1573H188.102V96.6547H185.109V92.1573ZM185.109 115.069H185.651V119.569H185.109V115.069ZM180.435 132.047H182.549V137.021H180.435V132.047ZM173.133 74.6609H177.411V81.092H173.133V74.6609ZM173.133 86.5206H177.411V92.9489H173.133V86.5206ZM173.133 98.3802H177.411V104.809H173.133V98.3802ZM173.133 110.24H177.411V116.671H173.133V110.24ZM173.133 122.102H177.411V128.533H173.133V122.102ZM173.133 137.695H174.942V140.39H173.133V137.695ZM165.242 74.6609H169.521V81.092H165.242V74.6609ZM165.242 86.5206H169.521V92.9489H165.242V86.5206ZM165.242 98.3802H169.521V104.809H165.242V98.3802ZM165.242 110.24H169.521V116.671H165.242V110.24ZM161.017 164.063H160.133V148.328H161.017V164.063ZM159.955 132.047H162.966V137.021H159.955V132.047ZM149.948 132.047H145.652V128.887H149.948V132.047ZM143.505 108.67H147.802V111.831H143.505V108.67ZM142.562 166.309H139.605V161.869H142.56V166.309H142.562ZM136.451 122.612H140.748V125.772H136.451V122.612ZM136.342 137.024H140.639V140.185H136.342V137.024Z" fill="#4390B3"/>
</g>
<path d="M355.54 57.1602H310.823V167.378H355.54V57.1602Z" fill="#C2B2A7"/>
<path d="M348.784 88.29H317.887V97.3188H348.784V88.29Z" fill="#F5F5F5"/>
<path d="M347.91 89.2118H338.624V96.4665H347.91V89.2118Z" fill="#6D4E6F"/>
<path d="M337.272 89.2118H328.437V96.4665H337.272V89.2118Z" fill="#6D4E6F"/>
<path d="M327.227 89.2118H318.788V96.4665H327.227V89.2118Z" fill="#6D4E6F"/>
<path d="M348.784 75.3813H317.887V84.405H348.784V75.3813Z" fill="#F5F5F5"/>
<path d="M347.91 76.2981H338.624V83.5528H347.91V76.2981Z" fill="#6D4E6F"/>
<path d="M337.272 76.2981H328.437V83.5528H337.272V76.2981Z" fill="#6D4E6F"/>
<path d="M327.227 76.298H318.788V83.5527H327.227V76.298Z" fill="#6D4E6F"/>
<path d="M348.784 62.4725H317.887V71.5012H348.784V62.4725Z" fill="#F5F5F5"/>
<path d="M347.91 63.3892H338.624V70.6439H347.91V63.3892Z" fill="#6D4E6F"/>
<path d="M337.272 63.3892H328.437V70.6439H337.272V63.3892Z" fill="#6D4E6F"/>
<path d="M327.227 63.3892H318.788V70.6439H327.227V63.3892Z" fill="#6D4E6F"/>
<path d="M348.784 101.655H317.887V110.679H348.784V101.655Z" fill="#F5F5F5"/>
<path d="M347.91 102.572H338.624V109.831H347.91V102.572Z" fill="#6D4E6F"/>
<path d="M337.272 102.572H328.437V109.831H337.272V102.572Z" fill="#6D4E6F"/>
<path d="M327.227 102.572H318.788V109.831H327.227V102.572Z" fill="#6D4E6F"/>
<path d="M348.784 115.02H317.887V124.048H348.784V115.02Z" fill="#F5F5F5"/>
<path d="M347.91 115.936H338.624V123.191H347.91V115.936Z" fill="#6D4E6F"/>
<path d="M337.272 115.936H328.437V123.191H337.272V115.936Z" fill="#6D4E6F"/>
<path d="M327.227 115.936H318.788V123.191H327.227V115.936Z" fill="#6D4E6F"/>
<path d="M348.784 128.379H317.887V137.403H348.784V128.379Z" fill="#F5F5F5"/>
<path d="M347.91 129.296H338.624V136.551H347.91V129.296Z" fill="#6D4E6F"/>
<path d="M337.272 129.296H328.437V136.551H337.272V129.296Z" fill="#6D4E6F"/>
<path d="M327.227 129.296H318.788V136.551H327.227V129.296Z" fill="#6D4E6F"/>
<path d="M348.784 141.744H317.887V150.773H348.784V141.744Z" fill="#F5F5F5"/>
<path d="M347.91 142.661H338.624V149.916H347.91V142.661Z" fill="#6D4E6F"/>
<path d="M337.272 142.661H328.437V149.916H337.272V142.661Z" fill="#6D4E6F"/>
<path d="M327.227 142.661H318.788V149.916H327.227V142.661Z" fill="#6D4E6F"/>
<path d="M317.887 150.768H310.823V167.423H317.887V150.768Z" fill="#D05F72"/>
<path d="M315.968 154.648H312.661V158.81H315.968V154.648Z" fill="#707986"/>
<path d="M317.395 160.178C317.395 160.47 317.17 160.707 316.894 160.707C316.618 160.707 316.388 160.47 316.388 160.178C316.388 159.886 316.613 159.653 316.894 159.653C317.17 159.653 317.395 159.886 317.395 160.178Z" fill="#F5F5F5"/>
<path d="M323.934 52.9977H322.333V57.1602H323.934V52.9977Z" fill="#4F3D51"/>
<path d="M349.303 38.3346H347.703V57.1552H349.303V38.3346Z" fill="#4F3D51"/>
<path d="M339.272 34.2311H333.178L322.913 43.691H329.007L339.272 34.2311Z" fill="#A1EFFF"/>
<path d="M329.14 44.068H321.961L333.045 33.8549H340.224L329.14 44.068ZM323.865 43.3147H328.869L338.32 34.6081H333.316L323.865 43.3147Z" fill="#4F3D51"/>
<path d="M322.913 43.691L312.643 53.1509H318.737L329.007 43.691H322.913Z" fill="#A1EFFF"/>
<path d="M318.87 53.5279H311.691L322.775 43.3148H329.959L318.87 53.5279ZM313.595 52.7746H318.599L328.05 44.068H323.046L313.595 52.7746Z" fill="#4F3D51"/>
<path d="M335.557 43.691L345.827 34.2311H339.273L329.008 43.691H335.557Z" fill="#A1EFFF"/>
<path d="M335.694 44.068H328.055L339.139 33.8549H346.778L335.694 44.068ZM329.959 43.3147H335.423L344.874 34.6081H339.411L329.959 43.3147Z" fill="#4F3D51"/>
<path d="M329.007 43.691L318.737 53.1509H325.291L335.556 43.691H329.007Z" fill="#A1EFFF"/>
<path d="M325.424 53.5279H317.785L328.869 43.3148H336.508L325.424 53.5279ZM319.689 52.7746H325.153L334.604 44.068H329.14L319.689 52.7746Z" fill="#4F3D51"/>
<path d="M325.291 53.1509H333.178L343.448 43.691H335.556L325.291 53.1509Z" fill="#A1EFFF"/>
<path d="M333.316 53.5279H324.339L335.423 43.3148H344.4L333.316 53.5279ZM326.243 52.7746H333.045L342.496 44.068H335.694L326.243 52.7746Z" fill="#4F3D51"/>
<path d="M345.826 34.2311L335.556 43.691H343.448L353.714 34.2311H345.826Z" fill="#A1EFFF"/>
<path d="M343.582 44.068H334.604L345.688 33.8549H354.666L343.582 44.068ZM336.509 43.3147H343.311L352.762 34.6081H345.96L336.509 43.3147Z" fill="#4F3D51"/>
<path d="M196.317 56.0908H124.311V156.667H196.317V56.0908Z" fill="#9CD3BF"/>
<path d="M196.317 53.8414H124.311V64.729H196.317V53.8414Z" fill="#F5F5F5"/>
<path d="M133.495 64.3723H132.819V156.696H133.495V64.3723Z" fill="#F5F5F5"/>
<path d="M142.791 64.3723H142.115V156.696H142.791V64.3723Z" fill="#F5F5F5"/>
<path d="M152.088 64.3723H151.412V156.696H152.088V64.3723Z" fill="#F5F5F5"/>
<path d="M161.385 64.3723H160.709V156.696H161.385V64.3723Z" fill="#F5F5F5"/>
<path d="M196.309 80.4508H124.304V81.1609H196.309V80.4508Z" fill="#F5F5F5"/>
<path d="M196.309 95.893H124.304V96.6032H196.309V95.893Z" fill="#F5F5F5"/>
<path d="M196.309 111.335H124.304V112.046H196.309V111.335Z" fill="#F5F5F5"/>
<path d="M196.309 126.775H124.304V127.485H196.309V126.775Z" fill="#F5F5F5"/>
<path d="M196.309 142.217H124.304V142.927H196.309V142.217Z" fill="#F5F5F5"/>
<path d="M170.681 64.3723H170.005V156.696H170.681V64.3723Z" fill="#F5F5F5"/>
<path d="M179.978 64.3723H179.302V156.696H179.978V64.3723Z" fill="#F5F5F5"/>
<path d="M189.274 64.3723H188.599V156.696H189.274V64.3723Z" fill="#F5F5F5"/>
<path d="M170.116 133.475H152.088V156.696H170.116V133.475Z" fill="#193F34"/>
<path d="M161.372 133.449H160.711V156.699H161.372V133.449Z" fill="#F5F5F5"/>
<path d="M174.462 64.9633L124.314 118.927V125.391L181.487 64.7264L174.689 64.6997L174.462 64.9633Z" fill="url(#paint0_linear_560_2)"/>
<path d="M124.314 135.86L124.326 132.717L189.395 64.713L192.999 64.7396L124.314 135.86Z" fill="url(#paint1_linear_560_2)"/>
<path d="M247.829 20.1491H247.241C247.244 20.0607 247.247 19.9691 247.247 19.8775C247.247 18.3819 246.753 17.171 246.144 17.171H240.567C239.958 17.171 239.464 18.3819 239.464 19.8775C239.464 19.9691 239.464 20.0607 239.47 20.1491H238.885C238.061 20.1491 237.395 21.7854 237.395 23.8014V62.2355C237.395 64.2547 238.064 65.891 238.885 65.891H247.832C248.656 65.891 249.322 64.2547 249.322 62.2355V23.8014C249.319 21.7854 248.653 20.1491 247.829 20.1491Z" fill="#FFE8C4"/>
<path d="M249.307 29.5808H237.404V32.8306H249.307V29.5808Z" fill="#3EB711"/>
<path d="M249.307 34.4539H237.404V35.873H249.307V34.4539Z" fill="#3EB711"/>
<path d="M263.846 20.1491H263.258C263.261 20.0607 263.264 19.9691 263.264 19.8775C263.264 18.3819 262.771 17.171 262.159 17.171H256.581C255.972 17.171 255.478 18.3819 255.478 19.8775C255.478 19.9691 255.481 20.0607 255.484 20.1491H254.9C254.076 20.1491 253.409 21.7854 253.409 23.8014V62.2355C253.409 64.2547 254.079 65.891 254.9 65.891H263.849C264.67 65.891 265.34 64.2547 265.34 62.2355V23.8014C265.337 21.7854 264.67 20.1491 263.846 20.1491Z" fill="#FFE8C4"/>
<path d="M265.324 29.5808H253.421V32.8306H265.324V29.5808Z" fill="#3EB711"/>
<path d="M265.324 34.4539H253.421V35.873H265.324V34.4539Z" fill="#3EB711"/>
<path d="M255.303 12.5139H243.863C243.066 12.5139 242.421 13.3189 242.421 14.3105V17.4261H243.227V14.3105C243.227 13.8753 243.512 13.5218 243.863 13.5218H255.269C255.281 13.1847 255.294 12.8509 255.303 12.5139Z" fill="#FFE8C4"/>
<path d="M245.293 12.406H244.744V13.5897H245.293V12.406Z" fill="#3EB711"/>
<path d="M245.811 12.406H245.581V13.5897H245.811V12.406Z" fill="#3EB711"/>
<path d="M243.372 17.0957H242.248V17.5273H243.372V17.0957Z" fill="#3EB711"/>
<path d="M246.71 12.5139H258.153C258.95 12.5139 259.595 13.3189 259.595 14.3105V17.4261H258.786V14.3105C258.786 13.8753 258.502 13.5218 258.15 13.5218H246.744C246.729 13.1847 246.717 12.8509 246.71 12.5139Z" fill="#FFE8C4"/>
<path d="M257.265 12.406H256.717V13.5897H257.265V12.406Z" fill="#3EB711"/>
<path d="M256.429 12.406H256.199V13.5897H256.429V12.406Z" fill="#3EB711"/>
<path d="M259.762 17.0957H258.635V17.5273H259.762V17.0957Z" fill="#3EB711"/>
<path d="M166.973 99.0004H130.733C128.216 99.0004 126.165 101.213 126.165 103.932V112.48H128.725V103.932C128.725 102.734 129.627 101.762 130.733 101.762H166.861C166.906 100.843 166.946 99.9233 166.973 99.0004Z" fill="#FFE8C4"/>
<path d="M135.272 98.706H133.536V101.962H135.272V98.706Z" fill="#3EB711"/>
<path d="M136.916 98.7059H136.186V101.962H136.916V98.7059Z" fill="#3EB711"/>
<path d="M129.194 111.581H125.628V112.764H129.194V111.581Z" fill="#3EB711"/>
<path d="M139.758 99.0003H175.995C178.516 99.0003 180.567 101.213 180.567 103.932V112.48H178.007V103.932C178.007 102.734 177.104 101.762 175.995 101.762H139.867C139.822 100.843 139.783 99.9232 139.758 99.0003Z" fill="#FFE8C4"/>
<path d="M173.195 98.7059H171.459V101.962H173.195V98.7059Z" fill="#3EB711"/>
<path d="M170.541 98.7059H169.811V101.962H170.541V98.7059Z" fill="#3EB711"/>
<path d="M181.103 111.581H177.537V112.764H181.103V111.581Z" fill="#3EB711"/>
<path d="M196.714 99.0003H232.954C235.471 99.0003 237.522 101.213 237.522 103.932V112.48H234.962V103.932C234.962 102.734 234.059 101.762 232.954 101.762H196.823C196.777 100.843 196.738 99.9232 196.714 99.0003Z" fill="#FFE8C4"/>
<path d="M230.151 98.7059H228.415V101.962H230.151V98.7059Z" fill="#3EB711"/>
<path d="M227.5 98.7059H226.77V101.962H227.5V98.7059Z" fill="#3EB711"/>
<path d="M238.058 111.581H234.493V112.764H238.058V111.581Z" fill="#3EB711"/>
<path d="M223.928 99.0004H187.689C185.168 99.0004 183.117 101.213 183.117 103.932V112.48H185.677V103.932C185.677 102.734 186.58 101.762 187.689 101.762H223.816C223.865 100.843 223.904 99.9233 223.928 99.0004Z" fill="#FFE8C4"/>
<path d="M192.227 98.706H190.491V101.962H192.227V98.706Z" fill="#3EB711"/>
<path d="M193.875 98.7059H193.142V101.962H193.875V98.7059Z" fill="#3EB711"/>
<path d="M186.15 111.581H182.584V112.764H186.15V111.581Z" fill="#3EB711"/>
<path d="M289.767 89.3755H253.53C251.01 89.3755 248.962 91.5878 248.962 94.3074V102.856H251.522V94.3074C251.522 93.1096 252.424 92.1376 253.53 92.1376H289.658C289.703 91.2147 289.743 90.2951 289.767 89.3755Z" fill="#ACACAA"/>
<path d="M258.066 89.0779H256.33V92.3309H258.066V89.0779Z" fill="#3EB711"/>
<path d="M259.71 89.0779H258.98V92.3309H259.71V89.0779Z" fill="#3EB711"/>
<path d="M251.988 101.953H248.425V103.136H251.988V101.953Z" fill="#3EB711"/>
<path d="M262.552 89.3755H298.792C301.309 89.3755 303.36 91.5878 303.36 94.3074V102.856H300.801V94.3074C300.801 93.1096 299.898 92.1376 298.792 92.1376H262.664C262.616 91.2147 262.58 90.2951 262.552 89.3755Z" fill="#FFE8C4"/>
<path d="M295.993 89.0779H294.254V92.3309H295.993V89.0779Z" fill="#3EB711"/>
<path d="M293.339 89.0779H292.609V92.3309H293.339V89.0779Z" fill="#3EB711"/>
<path d="M303.9 101.953H300.334V103.136H303.9V101.953Z" fill="#3EB711"/>
<path d="M314.331 117.566H350.568C353.089 117.566 355.137 115.354 355.137 112.634V104.086H352.577V112.634C352.577 113.829 351.674 114.804 350.565 114.804H314.443C314.395 115.724 314.356 116.643 314.331 117.566Z" fill="#ACACAA"/>
<path d="M347.768 114.605H346.032V117.858H347.768V114.605Z" fill="#3EB711"/>
<path d="M345.118 114.605H344.388V117.858H345.118V114.605Z" fill="#3EB711"/>
<path d="M355.673 103.805H352.11V104.989H355.673V103.805Z" fill="#3EB711"/>
<path d="M341.546 117.566H305.306C302.785 117.566 300.737 115.354 300.737 112.634V104.086H303.297V112.634C303.297 113.829 304.2 114.804 305.309 114.804H341.436C341.482 115.724 341.521 116.643 341.546 117.566Z" fill="#FFE8C4"/>
<path d="M309.845 114.605H308.109V117.858H309.845V114.605Z" fill="#3EB711"/>
<path d="M311.489 114.605H310.756V117.858H311.489V114.605Z" fill="#3EB711"/>
<path d="M303.764 103.805H300.201V104.989H303.764V103.805Z" fill="#3EB711"/>
<path d="M368.755 104.404H367.143C367.152 104.296 367.158 104.188 367.158 104.076C367.158 102.263 365.798 100.794 364.117 100.794H348.76C347.081 100.794 345.718 102.263 345.718 104.076C345.718 104.188 345.724 104.296 345.733 104.404H344.121C341.852 104.404 340.016 106.387 340.016 108.835V155.444C340.016 157.892 341.855 159.875 344.121 159.875H368.755C371.021 159.875 372.86 157.892 372.86 155.444V108.835C372.86 106.387 371.021 104.404 368.755 104.404Z" fill="#FFE8C4"/>
<path d="M372.821 115.842H340.053V119.782H372.821V115.842Z" fill="#3EB711"/>
<path d="M372.821 121.749H340.053V123.47H372.821V121.749Z" fill="#3EB711"/>
<path d="M412.85 104.404H411.238C411.247 104.296 411.253 104.188 411.253 104.076C411.253 102.263 409.893 100.794 408.212 100.794H392.855C391.177 100.794 389.813 102.263 389.813 104.076C389.813 104.188 389.819 104.296 389.828 104.404H388.217C385.947 104.404 384.112 106.387 384.112 108.835V155.444C384.112 157.892 385.947 159.875 388.217 159.875H412.85C415.119 159.875 416.955 157.892 416.955 155.444V108.835C416.955 106.387 415.119 104.404 412.85 104.404Z" fill="#FFE8C4"/>
<path d="M416.919 115.842H384.151V119.782H416.919V115.842Z" fill="#3EB711"/>
<path d="M416.919 121.749H384.151V123.47H416.919V121.749Z" fill="#3EB711"/>
<path d="M390.774 88.5735H359.272C357.082 88.5735 355.301 90.4978 355.301 92.8607V100.293H357.524V92.8607C357.524 91.82 358.309 90.9756 359.272 90.9756H390.677C390.719 90.1738 390.753 89.3753 390.774 88.5735Z" fill="#FFE8C4"/>
<path d="M363.217 88.3185H361.708V91.1493H363.217V88.3185Z" fill="#3EB711"/>
<path d="M364.647 88.3185H364.011V91.1493H364.647V88.3185Z" fill="#3EB711"/>
<path d="M357.93 99.5078H354.834V100.534H357.93V99.5078Z" fill="#3EB711"/>
<path d="M367.119 88.5735H398.621C400.808 88.5735 402.592 90.4978 402.592 92.8607V100.293H400.369V92.8607C400.369 91.82 399.584 90.9756 398.621 90.9756H367.213C367.174 90.1738 367.14 89.3753 367.119 88.5735Z" fill="#FFE8C4"/>
<path d="M396.181 88.3185H394.672V91.1493H396.181V88.3185Z" fill="#3EB711"/>
<path d="M393.879 88.3185H393.243V91.1493H393.879V88.3185Z" fill="#3EB711"/>
<path d="M403.056 99.5078H399.957V100.534H403.056V99.5078Z" fill="#3EB711"/>
<path d="M273.668 63.3646H231.009C230.994 64.6147 230.967 65.8649 230.927 67.1151C245.2 67.1151 259.475 67.1151 273.747 67.1151C273.711 65.8649 273.683 64.618 273.668 63.3646Z" fill="#3EB711"/>
<path d="M273.75 67.1151C259.478 67.1151 245.203 67.1151 230.931 67.1151C230.861 69.563 230.746 72.0044 230.6 74.4425H274.081C273.932 72.0044 273.817 69.5597 273.75 67.1151Z" fill="#FFE8C4"/>
<path d="M292.131 158.776C283.736 134.132 277.25 108.877 274.765 83.1281H229.916C227.428 108.877 220.945 134.132 212.55 158.776H292.131Z" fill="#FFE8C4"/>
<path d="M274.081 74.4393H230.597C230.422 77.3421 230.194 80.2384 229.913 83.1282H274.762C274.484 80.2384 274.256 77.3421 274.081 74.4393Z" fill="#3EB711"/>
<path d="M193.841 107.192H170.183C170.174 107.886 170.159 108.58 170.138 109.27C178.054 109.27 185.97 109.27 193.887 109.27C193.865 108.58 193.847 107.886 193.841 107.192Z" fill="#3EB711"/>
<path d="M193.884 109.273C185.968 109.273 178.051 109.273 170.135 109.273C170.096 110.632 170.032 111.983 169.95 113.338H194.066C193.987 111.983 193.923 110.628 193.884 109.273Z" fill="#FFE8C4"/>
<path d="M204.078 160.111C199.422 146.444 195.826 132.437 194.447 118.155H169.574C168.196 132.437 164.6 146.444 159.943 160.111H204.078Z" fill="#FFE8C4"/>
<path d="M194.068 113.335H169.953C169.856 114.945 169.729 116.552 169.574 118.155H194.447C194.293 116.552 194.165 114.945 194.068 113.335Z" fill="#3EB711"/>
<path d="M112.116 65.5326H111.71C111.713 65.4704 111.713 65.4082 111.713 65.346C111.713 64.3119 111.37 63.4741 110.949 63.4741H107.093C106.672 63.4741 106.329 64.3119 106.329 65.346C106.329 65.4082 106.329 65.4704 106.332 65.5326H105.926C105.357 65.5326 104.896 66.6649 104.896 68.0591V94.6363C104.896 96.0305 105.357 97.1628 105.926 97.1628H112.113C112.682 97.1628 113.143 96.0305 113.143 94.6363V68.0591C113.146 66.6649 112.685 65.5326 112.116 65.5326Z" fill="#FFE8C4"/>
<path d="M113.137 72.0551H104.908V74.3001H113.137V72.0551Z" fill="#3EB711"/>
<path d="M113.137 75.4259H104.908V76.4068H113.137V75.4259Z" fill="#3EB711"/>
<path d="M123.192 65.5326H122.786C122.789 65.4704 122.789 65.4082 122.789 65.346C122.789 64.3119 122.447 63.4741 122.026 63.4741H118.169C117.748 63.4741 117.405 64.3119 117.405 65.346C117.405 65.4082 117.408 65.4704 117.408 65.5326H117.002C116.433 65.5326 115.972 66.6649 115.972 68.0591V94.6363C115.972 96.0305 116.433 97.1628 117.002 97.1628H123.189C123.758 97.1628 124.219 96.0305 124.219 94.6363V68.0591C124.222 66.6649 123.761 65.5326 123.192 65.5326Z" fill="#FFE8C4"/>
<path d="M124.216 72.0551H115.985V74.3001H124.216V72.0551Z" fill="#3EB711"/>
<path d="M124.216 75.4259H115.985V76.4068H124.216V75.4259Z" fill="#3EB711"/>
<path d="M117.284 60.2538H109.374C108.822 60.2538 108.377 60.8101 108.377 61.4941V63.6475H108.934V61.4941C108.934 61.193 109.131 60.9476 109.374 60.9476H117.26C117.269 60.7185 117.278 60.4861 117.284 60.2538Z" fill="#FFE8C4"/>
<path d="M110.362 60.1785H109.983V60.9992H110.362V60.1785Z" fill="#3EB711"/>
<path d="M110.722 60.1784H110.562V60.9992H110.722V60.1784Z" fill="#3EB711"/>
<path d="M109.038 63.4217H108.259V63.7197H109.038V63.4217Z" fill="#3EB711"/>
<path d="M111.343 60.2537H119.256C119.808 60.2537 120.253 60.8101 120.253 61.4941V63.6475H119.696V61.4941C119.696 61.193 119.499 60.9475 119.256 60.9475H111.367C111.355 60.7184 111.346 60.4861 111.343 60.2537Z" fill="#FFE8C4"/>
<path d="M118.642 60.1784H118.263V60.9992H118.642V60.1784Z" fill="#3EB711"/>
<path d="M118.066 60.1784H117.905V60.9992H118.066V60.1784Z" fill="#3EB711"/>
<path d="M120.368 63.4216H119.59V63.7196H120.368V63.4216Z" fill="#3EB711"/>
<path d="M129.045 95.4153H99.5492C99.5371 96.2792 99.5189 97.1432 99.4946 98.0072C109.365 98.0072 119.232 98.0072 129.103 98.0072C129.075 97.1432 129.057 96.2825 129.045 95.4153Z" fill="#3EB711"/>
<path d="M129.102 98.0074C119.232 98.0074 109.362 98.0074 99.4944 98.0074C99.4459 99.6993 99.3672 101.388 99.2642 103.073H129.33C129.23 101.388 129.151 99.6993 129.102 98.0074Z" fill="#FFE8C4"/>
<path d="M141.812 161.389C136.007 144.348 131.523 126.885 129.803 109.082H98.7919C97.0742 126.889 92.5904 144.348 86.7827 161.389H141.812Z" fill="#FFE8C4"/>
<path d="M129.33 103.073H99.2644C99.1432 105.08 98.9856 107.082 98.7917 109.082H129.802C129.608 107.082 129.451 105.083 129.33 103.073Z" fill="#3EB711"/>
<path d="M347.414 133.27L347.125 133.3L283.947 133.27C283.947 133.27 271.999 131.779 271.977 150.088C271.977 150.103 271.977 150.103 271.977 150.127L272.266 150.088L277.158 150.093C277.289 145.34 280.893 141.533 285.329 141.538C289.764 141.538 293.36 145.35 293.5 150.093L320.471 150.103C320.606 145.35 324.206 141.543 328.651 141.553C333.082 141.548 336.682 145.36 336.813 150.113H338.34C338.34 150.113 347.392 151.604 347.41 133.29C347.405 133.28 347.41 133.28 347.414 133.27Z" fill="#F6FF8F"/>
<path d="M324.626 123.887C324.26 123.643 323.872 123.36 323.46 123.063H303.581C300.524 124.121 297.709 125.724 295.392 128.396C294.268 129.702 292.922 131.413 291.377 132.617V135.562L335.701 135.581V131.594C332.431 128.445 328.316 126.339 324.626 123.887Z" fill="#3EB711"/>
<path d="M342.509 136.658L286.553 136.634L288.997 133.334C295.42 124.623 304.083 121.635 310.226 120.669C310.538 120.625 313.14 120.24 314.536 120.245C315.769 120.245 318.511 120.625 318.822 120.664C324.992 121.639 333.656 124.642 340.074 133.349L342.509 136.658ZM294.81 132.573L334.266 132.583C329.062 127.416 322.892 125.432 318.303 124.701C317.562 124.598 315.371 124.321 314.54 124.321C313.564 124.321 311.478 124.593 310.755 124.706C306.179 125.432 300.018 127.416 294.81 132.573Z" fill="#F6FF8F"/>
<path d="M315.425 121.43H313.036L313.027 134.879L315.43 134.884L315.425 121.43Z" fill="#F6FF8F"/>
<path d="M275.256 145.677C276.444 145.672 277.402 144.648 277.402 143.366C277.406 142.099 276.449 141.055 275.265 141.055C275.193 141.055 274.222 141.065 273.327 141.07C272.867 142.372 272.496 143.888 272.252 145.647C273.147 145.672 275.166 145.672 275.256 145.677Z" fill="#E1D200"/>
<path d="M334.938 150.386C334.938 154.13 332.115 157.176 328.637 157.181C325.164 157.176 322.345 154.134 322.345 150.386C322.345 146.637 325.164 143.59 328.642 143.595C332.12 143.59 334.934 146.632 334.938 150.386Z" fill="#132800"/>
<path d="M291.625 150.366C291.625 154.12 288.807 157.162 285.329 157.162C281.855 157.167 279.037 154.12 279.037 150.366C279.041 146.618 281.86 143.576 285.333 143.571C288.811 143.576 291.625 146.618 291.625 150.366Z" fill="#132800"/>
<path d="M288.405 150.366C288.405 152.199 287.027 153.691 285.329 153.691C283.635 153.686 282.258 152.199 282.258 150.366C282.258 148.528 283.635 147.042 285.338 147.042C287.032 147.051 288.405 148.533 288.405 150.366Z" fill="#F5F5F5"/>
<path d="M331.718 150.381C331.718 152.219 330.344 153.705 328.646 153.705C326.939 153.705 325.566 152.219 325.561 150.381C325.566 148.548 326.939 147.056 328.646 147.056C330.354 147.056 331.718 148.543 331.718 150.381Z" fill="#F5F5F5"/>
<path d="M347.121 134.377C345.048 132.671 345.093 128.615 345.63 126.148C346.462 122.351 349.059 119.373 348.738 115.263C349.781 118.763 353.72 120.976 353.359 125.018C353.115 127.742 349.949 130.814 348.201 132.622C350.545 131.594 354 132.369 356.069 133.5C358.355 134.748 359.041 137.887 364.312 134.977C363.472 139.037 357.406 140.48 354.032 139.203C350.997 138.048 349.7 137.18 347.663 134.67" fill="#F6FF8F"/>
<path d="M64.5792 110.45L62.6766 109.507L62.2649 108.795C62.4985 108.416 62.6265 107.986 62.6265 107.542C62.6265 106.965 62.4234 106.424 62.0535 106L62.3928 104.741L63.2246 103.251L69.5084 87.2768L69.82 86.0147L68.1816 86.7539L60.7572 102.313L60.9296 104.519L60.5513 105.246C60.5124 105.243 60.4734 105.24 60.4317 105.24C59.4776 105.24 58.6431 105.892 58.3538 106.841L57.141 107.163L55.497 107.151L39.1961 109.414L38 109.759L39.4298 110.883L55.8975 109.864L55.9615 109.861L57.6917 108.602L58.479 108.581C58.6931 109.023 59.0381 109.384 59.4637 109.603L58.3482 156.743H58.2898C58.02 156.743 57.7696 156.894 57.6222 157.146C57.5387 157.293 57.4942 157.434 57.4942 157.579V157.813C57.4942 158.273 57.8503 158.648 58.2898 158.648H62.5736C63.0131 158.648 63.3664 158.273 63.3664 157.813V157.579C63.3664 157.431 63.3247 157.29 63.2385 157.146C63.0882 156.894 62.8407 156.743 62.5708 156.743H62.5124L61.4164 110.357L61.7586 110.727L62.5736 112.229L72.5906 125.937L73.4724 126.851L73.6838 124.988L64.5792 110.45Z" fill="#6BBACA"/>
<g clip-path="url(#clip0_560_2)">
<path d="M197.806 30.0022C200.422 28.584 204.782 28.8676 203.039 24.0455C202.169 21.4926 196.063 19.2233 200.133 15.8195C202.75 13.8339 205.947 17.2377 206.82 13.2666C207.401 10.43 203.623 9.01175 205.366 5.89154C206.528 3.06109 211.383 1.07245 214.827 1.20971C217.732 0.926051 221.647 2.21012 223.102 4.76302C224.848 8.45054 220.777 11.0034 222.81 14.4073C224.845 17.8112 229.788 16.9602 230.077 21.212C230.658 26.0341 226.007 24.6158 227.461 28.8676C228.623 32.2715 232.986 33.4061 232.113 38.2252C231.531 41.629 228.623 43.6146 225.134 43.8983C223.388 44.1789 221.937 42.7637 220.19 43.331C218.444 43.8983 217.863 45.8839 216.12 46.7348C212.05 49.0041 206.525 48.1531 202.458 46.7348C195.482 44.1819 189.957 34.8244 197.806 30.0022Z" fill="#193F34"/>
<path d="M213.942 11.0095H213.202V63.9554H213.942V11.0095Z" fill="#F5F5F5"/>
<path d="M218.63 19.2996C218.027 21.6908 215.794 23.2433 213.881 24.2681C213.501 24.4725 213.169 23.8503 213.549 23.6459C215.302 22.7065 217.443 21.3035 217.997 19.1074C218.109 18.6621 218.742 18.8512 218.63 19.2996Z" fill="#F5F5F5"/>
<path d="M213.54 28.34C211.666 28.6663 209.686 27.1992 208.031 26.4306C207.641 26.2507 207.976 25.6285 208.362 25.8084C209.22 26.208 210.057 26.6594 210.918 27.0467C211.654 27.3792 212.552 27.7848 213.364 27.6445C213.781 27.5744 213.957 28.2698 213.54 28.34Z" fill="#F5F5F5"/>
<path d="M213.498 34.9952C214.982 34.6566 216.229 33.641 217.294 32.4941C217.595 32.1678 218.061 32.6771 217.76 33.0035C216.622 34.2296 215.265 35.3276 213.674 35.6875C213.26 35.7821 213.084 35.0867 213.498 34.9952Z" fill="#F5F5F5"/>
<path d="M213.586 19.995C212.253 20.1017 210.468 19.5527 209.887 18.0887C209.719 17.6678 210.285 17.3018 210.452 17.7258C210.945 18.9671 212.463 19.3667 213.586 19.2752C214.009 19.2447 214.006 19.9645 213.586 19.995Z" fill="#F5F5F5"/>
<path d="M213.418 16.4447C214.085 15.9903 214.638 15.3772 215.192 14.7702C215.493 14.4408 215.956 14.9502 215.658 15.2796C215.067 15.9262 214.465 16.5789 213.753 17.0639C213.388 17.314 213.06 16.6887 213.418 16.4447Z" fill="#F5F5F5"/>
<path d="M213.367 37.9934C211.131 37.3742 208.487 36.572 206.914 34.5865C206.638 34.2387 207.1 33.7263 207.377 34.0771C208.877 35.9681 211.405 36.7062 213.537 37.298C213.951 37.4108 213.777 38.1093 213.367 37.9934Z" fill="#F5F5F5"/>
<path d="M201.794 26.6045C203.066 26.3971 205.186 26.3971 206.032 27.6384C207.73 29.9138 204.338 31.3595 204.547 33.4275C204.76 36.1146 209.847 36.5294 209.634 39.2165C209.421 41.4918 206.242 40.6652 207.726 44.5937C208.362 46.4542 211.118 48.7296 210.27 51.0049C208.785 54.5186 205.819 52.2432 203.699 52.2432C200.733 52.2432 193.949 55.5526 191.192 51.6241C188.859 48.1074 195.007 46.6616 195.856 44.1789C196.279 42.3184 194.797 41.2844 195.007 39.6282C195.43 37.7677 197.55 37.7677 197.763 36.1115C197.973 34.4584 196.279 33.8392 195.856 32.3904C195.433 30.3225 196.492 30.3225 197.341 28.8737C197.976 27.2206 196.069 27.0132 198.825 26.1866C199.674 25.9792 200.946 26.394 201.368 26.6014" fill="#1D543A"/>
<path d="M201.414 29.2916H200.836V63.8212H201.414V29.2916Z" fill="#F5F5F5"/>
<path d="M205.703 44.5602C204.739 46.0974 202.941 46.7257 201.253 47.1985C200.815 47.3205 200.629 46.6555 201.064 46.5335C202.564 46.1096 204.231 45.5819 205.092 44.2094C205.329 43.8342 205.941 44.1819 205.703 44.5602Z" fill="#F5F5F5"/>
<path d="M200.781 43.2029C199.424 42.7301 198.469 41.6626 198.201 40.2748C198.119 39.8387 198.798 39.6557 198.883 40.0918C199.102 41.2356 199.832 42.1415 200.967 42.538C201.396 42.6874 201.213 43.3523 200.781 43.2029Z" fill="#F5F5F5"/>
<path d="M201.159 38.4601C202.534 38.4235 203.498 37.6274 204.246 36.5629C204.502 36.2 205.113 36.5416 204.858 36.9106C203.963 38.1825 202.795 39.1067 201.162 39.1494C200.702 39.1585 200.705 38.4723 201.159 38.4601Z" fill="#F5F5F5"/>
<path d="M200.736 32.9455C199.558 32.9272 198.573 32.4087 198.098 31.329C197.922 30.9264 198.53 30.5726 198.707 30.9813C199.084 31.8475 199.78 32.244 200.733 32.2562C201.189 32.2623 201.192 32.9516 200.736 32.9455Z" fill="#F5F5F5"/>
<path d="M200.875 50.6603C199.169 50.6298 197.517 49.9618 196.385 48.6991C196.087 48.3666 196.583 47.8756 196.884 48.2111C197.897 49.3426 199.342 49.9435 200.872 49.971C201.332 49.9771 201.332 50.6664 200.875 50.6603Z" fill="#F5F5F5"/>
</g>
<path d="M151.203 58.1526H149.631V63.1181H151.203V58.1526Z" fill="#4F3D51"/>
<path d="M176.119 40.6612H174.547V63.1121H176.119V40.6612Z" fill="#4F3D51"/>
<path d="M166.267 35.7666H160.282L150.2 47.0512H156.185L166.267 35.7666Z" fill="#A1EFFF"/>
<path d="M156.317 47.5004H149.261L160.147 35.3173H167.198L156.317 47.5004ZM151.136 46.6019H156.05L165.332 36.2158H160.418L151.136 46.6019Z" fill="#4F3D51"/>
<path d="M150.2 47.0511L140.114 58.3357H146.099L156.185 47.0511H150.2Z" fill="#A1EFFF"/>
<path d="M146.235 58.7851H139.179L150.065 46.602H157.12L146.235 58.7851ZM141.049 57.8866H145.964L155.246 47.5005H150.327L141.049 57.8866Z" fill="#4F3D51"/>
<path d="M162.618 47.0512L172.704 35.7666H166.267L156.186 47.0512H162.618Z" fill="#A1EFFF"/>
<path d="M162.753 47.5004H155.25L166.136 35.3173H173.639L162.753 47.5004ZM157.121 46.6019H162.487L171.769 36.2158H166.403L157.121 46.6019Z" fill="#4F3D51"/>
<path d="M156.185 47.0511L146.099 58.3357H152.536L162.618 47.0511H156.185Z" fill="#A1EFFF"/>
<path d="M152.667 58.7851H145.164L156.05 46.602H163.553L152.667 58.7851ZM147.034 57.8866H152.4L161.683 47.5005H156.317L147.034 57.8866Z" fill="#4F3D51"/>
<path d="M152.536 58.3357H160.282L170.368 47.0511H162.617L152.536 58.3357Z" fill="#A1EFFF"/>
<path d="M160.418 58.7851H151.601L162.486 46.602H171.303L160.418 58.7851ZM153.471 57.8866H160.151L169.433 47.5005H162.753L153.471 57.8866Z" fill="#4F3D51"/>
<path d="M172.704 35.7666L162.617 47.0512H170.368L180.45 35.7666H172.704Z" fill="#A1EFFF"/>
<path d="M170.499 47.5004H161.682L172.568 35.3173H181.385L170.499 47.5004ZM163.552 46.6019H170.233L179.515 36.2158H172.835L163.552 46.6019Z" fill="#4F3D51"/>
<g filter="url(#filter0_bd_560_2)">
<rect x="45.2947" y="148.815" width="392.705" height="49.6203" rx="20" fill="url(#paint2_linear_560_2)"/>
</g>
<path d="M85.44 182.14C83.8 182.14 82.4533 181.753 81.4 180.98C80.3467 180.193 79.78 179.073 79.7 177.62H83.88C83.92 178.113 84.0667 178.473 84.32 178.7C84.5733 178.927 84.9 179.04 85.3 179.04C85.66 179.04 85.9533 178.953 86.18 178.78C86.42 178.593 86.54 178.34 86.54 178.02C86.54 177.607 86.3467 177.287 85.96 177.06C85.5733 176.833 84.9467 176.58 84.08 176.3C83.16 175.993 82.4133 175.7 81.84 175.42C81.28 175.127 80.7867 174.707 80.36 174.16C79.9467 173.6 79.74 172.873 79.74 171.98C79.74 171.073 79.9667 170.3 80.42 169.66C80.8733 169.007 81.5 168.513 82.3 168.18C83.1 167.847 84.0067 167.68 85.02 167.68C86.66 167.68 87.9667 168.067 88.94 168.84C89.9267 169.6 90.4533 170.673 90.52 172.06H86.26C86.2467 171.633 86.1133 171.313 85.86 171.1C85.62 170.887 85.3067 170.78 84.92 170.78C84.6267 170.78 84.3867 170.867 84.2 171.04C84.0133 171.213 83.92 171.46 83.92 171.78C83.92 172.047 84.02 172.28 84.22 172.48C84.4333 172.667 84.6933 172.833 85 172.98C85.3067 173.113 85.76 173.287 86.36 173.5C87.2533 173.807 87.9867 174.113 88.56 174.42C89.1467 174.713 89.6467 175.133 90.06 175.68C90.4867 176.213 90.7 176.893 90.7 177.72C90.7 178.56 90.4867 179.313 90.06 179.98C89.6467 180.647 89.04 181.173 88.24 181.56C87.4533 181.947 86.52 182.14 85.44 182.14ZM99.2823 182.14C97.9623 182.14 96.749 181.833 95.6423 181.22C94.5357 180.593 93.6557 179.733 93.0023 178.64C92.3623 177.533 92.0423 176.287 92.0423 174.9C92.0423 173.513 92.3623 172.273 93.0023 171.18C93.6557 170.073 94.5357 169.213 95.6423 168.6C96.749 167.987 97.9623 167.68 99.2823 167.68C100.616 167.68 101.829 167.987 102.922 168.6C104.029 169.213 104.902 170.073 105.542 171.18C106.182 172.273 106.502 173.513 106.502 174.9C106.502 176.287 106.182 177.533 105.542 178.64C104.902 179.733 104.029 180.593 102.922 181.22C101.816 181.833 100.602 182.14 99.2823 182.14ZM99.2823 178.5C100.282 178.5 101.069 178.173 101.642 177.52C102.229 176.867 102.522 175.993 102.522 174.9C102.522 173.78 102.229 172.9 101.642 172.26C101.069 171.607 100.282 171.28 99.2823 171.28C98.269 171.28 97.4757 171.607 96.9023 172.26C96.329 172.9 96.0423 173.78 96.0423 174.9C96.0423 176.007 96.329 176.887 96.9023 177.54C97.4757 178.18 98.269 178.5 99.2823 178.5ZM107.785 174.92C107.785 173.533 108.071 172.3 108.645 171.22C109.231 170.127 110.058 169.28 111.125 168.68C112.191 168.067 113.418 167.76 114.805 167.76C116.565 167.76 118.045 168.233 119.245 169.18C120.445 170.113 121.218 171.387 121.565 173H117.345C117.091 172.467 116.738 172.06 116.285 171.78C115.845 171.5 115.331 171.36 114.745 171.36C113.838 171.36 113.111 171.687 112.565 172.34C112.031 172.98 111.765 173.84 111.765 174.92C111.765 176.013 112.031 176.887 112.565 177.54C113.111 178.18 113.838 178.5 114.745 178.5C115.331 178.5 115.845 178.36 116.285 178.08C116.738 177.8 117.091 177.393 117.345 176.86H121.565C121.218 178.473 120.445 179.753 119.245 180.7C118.045 181.633 116.565 182.1 114.805 182.1C113.418 182.1 112.191 181.8 111.125 181.2C110.058 180.587 109.231 179.74 108.645 178.66C108.071 177.567 107.785 176.32 107.785 174.92ZM127.341 167.9V182H123.421V167.9H127.341ZM133.493 171.04V173.34H137.993V176.32H133.493V178.86H138.593V182H129.573V167.9H138.593V171.04H133.493ZM151.15 167.9V171.02H147.39V182H143.47V171.02H139.75V167.9H151.15ZM165.42 167.9L160.46 177.52V182H156.52V177.52L151.56 167.9H156.04L158.52 173.34L161 167.9H165.42ZM177.212 182.14C175.892 182.14 174.679 181.833 173.572 181.22C172.465 180.593 171.585 179.733 170.932 178.64C170.292 177.533 169.972 176.287 169.972 174.9C169.972 173.513 170.292 172.273 170.932 171.18C171.585 170.073 172.465 169.213 173.572 168.6C174.679 167.987 175.892 167.68 177.212 167.68C178.545 167.68 179.759 167.987 180.852 168.6C181.959 169.213 182.832 170.073 183.472 171.18C184.112 172.273 184.432 173.513 184.432 174.9C184.432 176.287 184.112 177.533 183.472 178.64C182.832 179.733 181.959 180.593 180.852 181.22C179.745 181.833 178.532 182.14 177.212 182.14ZM177.212 178.5C178.212 178.5 178.999 178.173 179.572 177.52C180.159 176.867 180.452 175.993 180.452 174.9C180.452 173.78 180.159 172.9 179.572 172.26C178.999 171.607 178.212 171.28 177.212 171.28C176.199 171.28 175.405 171.607 174.832 172.26C174.259 172.9 173.972 173.78 173.972 174.9C173.972 176.007 174.259 176.887 174.832 177.54C175.405 178.18 176.199 178.5 177.212 178.5ZM195.754 167.9V171.02H190.114V173.5H194.274V176.48H190.114V182H186.194V167.9H195.754ZM208.373 182L205.573 176.8H205.153V182H201.233V167.9H207.413C208.547 167.9 209.507 168.1 210.293 168.5C211.08 168.887 211.673 169.427 212.073 170.12C212.473 170.8 212.673 171.567 212.673 172.42C212.673 173.38 212.407 174.227 211.873 174.96C211.353 175.68 210.587 176.193 209.573 176.5L212.753 182H208.373ZM205.153 174.12H207.093C207.627 174.12 208.027 173.993 208.293 173.74C208.56 173.487 208.693 173.12 208.693 172.64C208.693 172.187 208.553 171.833 208.273 171.58C208.007 171.313 207.613 171.18 207.093 171.18H205.153V174.12ZM218.376 171.04V173.34H222.876V176.32H218.376V178.86H223.476V182H214.456V167.9H223.476V171.04H218.376ZM238.473 182H234.553L229.333 174.12V182H225.413V167.9H229.333L234.553 175.88V167.9H238.473V182ZM244.626 171.04V173.34H249.126V176.32H244.626V178.86H249.726V182H240.706V167.9H249.726V171.04H244.626ZM271.523 167.9L268.063 182H263.243L261.303 173.36L259.323 182H254.503L251.083 167.9H255.323L256.963 177.54L259.183 167.9H263.483L265.643 177.46L267.283 167.9H271.523ZM282.106 179.7H277.106L276.346 182H272.226L277.366 167.9H281.886L287.006 182H282.866L282.106 179.7ZM281.126 176.7L279.606 172.14L278.106 176.7H281.126ZM297.284 174.76C298.111 174.947 298.764 175.36 299.244 176C299.737 176.627 299.984 177.347 299.984 178.16C299.984 179.36 299.571 180.3 298.744 180.98C297.917 181.66 296.757 182 295.264 182H288.284V167.9H295.044C296.484 167.9 297.611 168.22 298.424 168.86C299.251 169.5 299.664 170.4 299.664 171.56C299.664 172.387 299.444 173.08 299.004 173.64C298.577 174.187 298.004 174.56 297.284 174.76ZM292.204 173.5H294.184C295.171 173.5 295.664 173.093 295.664 172.28C295.664 171.44 295.171 171.02 294.184 171.02H292.204V173.5ZM294.484 178.84C295.471 178.84 295.964 178.427 295.964 177.6C295.964 177.173 295.831 176.847 295.564 176.62C295.311 176.393 294.944 176.28 294.464 176.28H292.204V178.84H294.484ZM305.622 179H310.002V182H301.702V167.9H305.622V179ZM315.446 171.04V173.34H319.946V176.32H315.446V178.86H320.546V182H311.526V167.9H320.546V171.04H315.446ZM330.231 171.04V173.34H334.731V176.32H330.231V178.86H335.331V182H326.311V167.9H335.331V171.04H330.231ZM350.328 182H346.408L341.188 174.12V182H337.268V167.9H341.188L346.408 175.88V167.9H350.328V182ZM356.481 171.04V173.34H360.981V176.32H356.481V178.86H361.581V182H352.561V167.9H361.581V171.04H356.481ZM370.658 182L367.858 176.8H367.438V182H363.518V167.9H369.698C370.832 167.9 371.792 168.1 372.578 168.5C373.365 168.887 373.958 169.427 374.358 170.12C374.758 170.8 374.958 171.567 374.958 172.42C374.958 173.38 374.692 174.227 374.158 174.96C373.638 175.68 372.872 176.193 371.858 176.5L375.038 182H370.658ZM367.438 174.12H369.378C369.912 174.12 370.312 173.993 370.578 173.74C370.845 173.487 370.978 173.12 370.978 172.64C370.978 172.187 370.838 171.833 370.558 171.58C370.292 171.313 369.898 171.18 369.378 171.18H367.438V174.12ZM385.741 172.54C385.514 172.167 385.201 171.88 384.801 171.68C384.414 171.48 383.954 171.38 383.421 171.38C382.434 171.38 381.654 171.7 381.081 172.34C380.521 172.98 380.241 173.84 380.241 174.92C380.241 176.133 380.541 177.06 381.141 177.7C381.754 178.327 382.641 178.64 383.801 178.64C385.174 178.64 386.154 178.02 386.741 176.78H382.801V173.96H390.121V177.76C389.814 178.507 389.361 179.207 388.761 179.86C388.174 180.513 387.428 181.053 386.521 181.48C385.614 181.893 384.581 182.1 383.421 182.1C382.008 182.1 380.754 181.8 379.661 181.2C378.581 180.587 377.741 179.74 377.141 178.66C376.554 177.567 376.261 176.32 376.261 174.92C376.261 173.533 376.554 172.3 377.141 171.22C377.741 170.127 378.581 169.28 379.661 168.68C380.741 168.067 381.988 167.76 383.401 167.76C385.174 167.76 386.641 168.187 387.801 169.04C388.961 169.893 389.681 171.06 389.961 172.54H385.741ZM404.698 167.9L399.738 177.52V182H395.798V177.52L390.838 167.9H395.318L397.798 173.34L400.278 167.9H404.698Z" fill="#F5F5F5"/>
<defs>
<filter id="filter0_bd_560_2" x="0.294678" y="128.815" width="482.705" height="144.62" filterUnits="userSpaceOnUse" color-interpolation-filters="sRGB">
<feFlood flood-opacity="0" result="BackgroundImageFix"/>
<feGaussianBlur in="BackgroundImageFix" stdDeviation="10"/>
<feComposite in2="SourceAlpha" operator="in" result="effect1_backgroundBlur_560_2"/>
<feColorMatrix in="SourceAlpha" type="matrix" values="0 0 0 0 0 0 0 0 0 0 0 0 0 0 0 0 0 0 127 0" result="hardAlpha"/>
<feMorphology radius="15" operator="erode" in="SourceAlpha" result="effect2_dropShadow_560_2"/>
<feOffset dy="30"/>
<feGaussianBlur stdDeviation="30"/>
<feComposite in2="hardAlpha" operator="out"/>
<feColorMatrix type="matrix" values="0 0 0 0 0.5605 0 0 0 0 0.564817 0 0 0 0 0.7375 0 0 0 0.15 0"/>
<feBlend mode="normal" in2="effect1_backgroundBlur_560_2" result="effect2_dropShadow_560_2"/>
<feBlend mode="normal" in="SourceGraphic" in2="effect2_dropShadow_560_2" result="shape"/>
</filter>
<linearGradient id="paint0_linear_560_2" x1="123.985" y1="123.155" x2="182.117" y2="69.078" gradientUnits="userSpaceOnUse">
<stop stop-color="white" stop-opacity="0"/>
<stop offset="1" stop-color="#BCBEC0"/>
</linearGradient>
<linearGradient id="paint1_linear_560_2" x1="191.366" y1="63.4334" x2="123.73" y2="126.105" gradientUnits="userSpaceOnUse">
<stop stop-color="white" stop-opacity="0"/>
<stop offset="1" stop-color="#BCBEC0"/>
</linearGradient>
<linearGradient id="paint2_linear_560_2" x1="49.1761" y1="159.659" x2="433.871" y2="186.28" gradientUnits="userSpaceOnUse">
<stop stop-color="#417741"/>
<stop offset="1" stop-color="#A2B71D"/>
</linearGradient>
<clipPath id="clip0_560_2">
<rect width="41.5558" height="62.7854" fill="white" transform="translate(190.672 1.17004)"/>
</clipPath>
</defs>
</svg>