<svg width="74" height="168" viewBox="0 0 74 168" fill="none" xmlns="http://www.w3.org/2000/svg">
<path d="M23.3757 147.864V148.862C23.8078 149.12 24.1415 149.551 24.3069 150.069H25.2947L26.3317 152.919V157.697H26.7876V161.006H25.1323V166.757C25.1323 167.354 24.6943 167.839 24.1549 167.839C23.6156 167.839 23.1791 167.354 23.1791 166.757V161.008H21.4284V166.758C21.4284 167.356 20.9904 167.841 20.451 167.841C19.9117 167.841 19.4737 167.356 19.4737 166.758V161.008H18.0717V157.699H18.5276V152.92L19.5646 150.07H20.5524C20.7177 149.552 21.0515 149.121 21.4835 148.864V147.866H23.3757V147.864ZM23.7497 166.593C23.7497 166.843 23.9315 167.044 24.1564 167.044C24.3814 167.044 24.5632 166.843 24.5632 166.593C24.5632 166.344 24.3814 166.143 24.1564 166.143C23.9315 166.143 23.7497 166.344 23.7497 166.593ZM20.0458 166.593C20.0458 166.843 20.2276 167.044 20.4525 167.044C20.6775 167.044 20.8593 166.843 20.8593 166.593C20.8593 166.344 20.6775 166.143 20.4525 166.143C20.2276 166.143 20.0458 166.344 20.0458 166.593ZM23.6767 154.778C23.6767 154.447 23.5709 154.141 23.3936 153.904L22.0333 156.087C22.1585 156.133 22.2911 156.159 22.4296 156.159C23.1195 156.159 23.6767 155.541 23.6767 154.778ZM21.1841 154.778C21.1841 155.121 21.2973 155.433 21.4835 155.674L22.8513 153.48C22.7202 153.427 22.5786 153.397 22.4311 153.397C21.7428 153.399 21.1841 154.018 21.1841 154.778Z" fill="#54732C"/>
<path d="M32.0893 106.141V109.122C32.0893 113.383 34.459 116.837 37.3828 116.837H62.3047C67.1065 116.837 71 122.51 71 129.51C71 136.508 67.1077 142.183 62.3047 142.183H27.6349C24.7111 142.183 22.3415 145.636 22.3415 149.898" stroke="#54732C" stroke-width="5" stroke-miterlimit="10" stroke-linecap="round" stroke-linejoin="round"/>
<path opacity="0.24" d="M63.5347 35.5903C63.5347 16.4872 49.5376 1 32.2673 1C14.9994 1 1 16.4872 1 35.5903C1 49.1777 8.08745 60.9308 18.3913 66.5857V78.7587H46.1434V66.5857C56.4472 60.9308 63.5347 49.1777 63.5347 35.5903Z" fill="url(#paint0_linear_511_1395)"/>
<path d="M32.3027 41.7543C13.2653 41.7543 4.91122 47.5771 4.52222 47.8579C7.23812 55.486 12.4446 61.7234 19.0387 65.3446V76.9508H45.498V65.342C52.1158 61.7076 57.3389 55.4361 60.0453 47.7686C59.8816 47.6506 51.6153 41.7543 32.3027 41.7543Z" fill="#754C29"/>
<path d="M52.8941 47.8866C54.4738 47.7029 56.0251 47.905 57.5787 48.0939C57.2348 47.8446 56.8814 47.6006 56.4924 47.3986C56.3761 47.3382 58.8762 47.682 60.0432 47.7922C59.8606 47.4038 59.6542 47.0181 59.4194 46.6402C55.6052 40.5262 44.9005 36.123 32.2911 36.123C19.6817 36.123 8.97703 40.5262 5.1629 46.6402C4.91147 47.0417 4.69562 47.4484 4.50586 47.863C5.45465 47.5508 7.59654 47.3225 7.53012 47.3828C7.22888 47.6662 6.93001 47.9496 6.63826 48.2383C7.45896 48.0362 9.29724 47.7056 9.18339 47.7712C8.82522 47.9811 8.48128 48.1936 8.17293 48.4429C9.19525 48.2251 11.4154 47.9732 11.3585 48.0362C11.2138 48.191 11.0691 48.3432 10.9197 48.4954C12.2575 48.0546 15.2817 47.9444 15.2699 48.01C15.2129 48.3537 15.0564 48.666 14.8832 48.9704C15.4999 48.7211 16.9492 48.3327 16.8899 48.4062C16.693 48.6502 16.4725 48.8785 16.2424 49.1016C17.12 48.9284 18.9725 48.5846 18.9108 48.6502C18.7922 48.7762 18.6689 48.8969 18.5432 49.0202C19.4943 48.7526 21.5508 48.1963 21.5271 48.2697C21.418 48.603 21.3208 48.9415 21.2449 49.2853C21.724 48.973 22.253 48.7132 22.7534 48.4167C22.8649 48.3511 22.6325 49.0596 22.4759 49.3062C22.872 49.0727 23.2587 48.8313 23.6595 48.6056C23.7188 48.5715 24.2739 49.2511 24.5229 49.5424C24.5988 49.2721 24.9238 48.6371 24.9878 48.6948C25.3294 49.0045 25.6828 49.301 26.0386 49.5975C26.0315 49.406 26.1714 48.8969 26.2568 48.9572C26.6008 49.1987 26.9637 49.4191 27.3385 49.629C27.6041 49.3351 28.3537 48.7447 28.375 48.8156C28.4533 49.0675 28.4723 49.3141 28.4723 49.566C28.681 49.2853 28.9561 48.9677 29.3001 49.0045C29.8717 49.0622 30.256 49.4663 30.7731 49.6395C30.7826 49.4243 30.7731 49.2118 30.766 48.994C30.7636 48.9179 31.7266 49.2931 32.1417 49.4479C32.0848 49.2958 32.035 49.1409 31.9946 48.9835C31.978 48.9074 33.2376 49.4138 33.7973 49.6552C33.7926 49.4716 33.7807 49.2879 33.7618 49.1042C33.7546 49.0412 34.7058 49.2485 35.1114 49.3377C35.0426 49.1829 34.9406 49.0517 34.7959 48.9153C34.7295 48.8549 36.8856 48.9914 37.8392 49.1934C38.1594 49.2616 38.4701 49.3482 38.7761 49.4453C38.6267 49.2485 38.4772 49.0517 38.2875 48.8785C38.2211 48.8182 39.9384 49.1645 40.7543 49.1908C40.6191 48.9992 40.1708 48.4902 40.3084 48.5217C41.9711 48.9021 43.6624 49.1672 45.3631 49.3719C45.2113 49.1803 44.9836 49.0386 44.7701 48.8759C44.6823 48.8077 46.6937 49.2328 47.5405 49.0832C47.3294 48.9048 46.7578 48.5007 46.8835 48.519C47.735 48.6397 48.6056 48.6266 49.4571 48.7473C50.2873 48.8654 51.1198 48.9782 51.95 49.0885C51.663 48.8129 50.8091 48.2619 50.9325 48.254C51.9832 48.1753 53.0032 48.4482 54.0469 48.477C53.7622 48.2251 52.7731 47.8998 52.8941 47.8866Z" fill="#9EC354"/>
<path opacity="0.5" d="M6.4436 45.5353C6.4436 45.5353 14.1027 35.6872 34.3712 36.2855C34.3712 36.2855 41.3685 36.6109 46.7837 38.7338C46.7837 38.7338 49.4237 39.6601 44.936 39.1694C40.4458 38.6787 32.1273 37.9177 35.958 39.4423C39.7864 40.9642 43.361 43.7615 36.9472 42.9795C23.6119 41.3473 20.0943 42.5492 21.8946 43.9583C23.2134 44.9922 20.3955 46.5613 18.5928 46.1887C17.2717 45.9158 17.4495 44.0659 13.6852 45.3726C10.9907 46.3068 9.08598 48.0387 8.29374 46.8421C7.5015 45.6455 8.03045 44.9922 6.4436 45.5353Z" fill="#9EC354"/>
<g opacity="0.6">
<path opacity="0.24" d="M12.9429 63.4578C13.505 63.8776 14.0814 64.2817 14.6673 64.6622V64.4838C14.0814 64.1637 13.5074 63.8199 12.9429 63.4578Z" fill="white"/>
<path d="M44.3194 77.9715V65.7985C54.6232 60.1436 61.7107 48.3905 61.7107 34.8031C61.7107 21.982 55.4036 10.7877 46.0343 4.81537C54.3457 11.0318 59.8107 21.5569 59.8107 33.4911C59.8107 47.0784 52.7233 58.8316 42.4194 64.4864V76.6594" fill="white"/>
</g>
<path d="M24.3969 16.2221C26.2779 15.0728 26.4463 11.7612 24.4633 10.6486C24.219 10.5122 23.8561 10.2996 23.5857 10.2576C23.4481 10.2366 22.5491 10.3626 22.561 10.5883C22.5278 9.82992 22.0178 9.18178 21.4248 8.79604C19.9376 7.82776 17.8123 8.33683 16.8185 9.90077C15.8246 11.4621 16.1116 13.8474 17.4399 15.0702C16.911 14.8078 16.235 14.9809 15.8649 15.4716C15.4949 15.9623 15.4617 16.7286 15.789 17.2586C15.0917 16.8125 14.0931 17.0854 13.6661 17.8412C12.6082 17.5893 11.4815 17.6916 10.4758 18.1351C10.2505 18.2348 10.0228 18.3581 9.87807 18.5707C9.73338 18.7832 9.70017 19.1138 9.86384 19.308C9.9682 19.434 10.1295 19.4812 10.2813 19.5153C10.8624 19.6439 11.4578 19.6465 12.0508 19.6491C14.8189 19.6649 17.587 19.678 20.3551 19.6938C20.635 19.6964 20.922 19.6938 21.1758 19.5678C21.4296 19.4418 21.6407 19.1506 21.6004 18.8462C22.006 19.2004 22.4827 19.476 22.9951 19.5363C23.5074 19.5993 24.0601 19.4235 24.4088 19.0036C26.0217 19.4865 27.7248 19.5993 29.3804 19.329C29.6532 19.2844 29.9331 19.2267 30.1608 19.0587C30.3909 18.8908 30.5593 18.5864 30.5095 18.2873C30.4573 17.9881 30.1987 17.7729 29.9307 17.7073C29.6603 17.6417 29.3804 17.6968 29.11 17.7572C29.2167 17.1747 28.8989 16.5711 28.4482 16.2457C27.9976 15.9204 27.4449 15.8259 26.9065 15.8075C26.0573 15.7787 25.2034 15.9204 24.3969 16.2221Z" fill="white"/>
<path d="M29.9307 17.7074C30.2011 17.773 30.4597 17.9882 30.5095 18.2873C30.5593 18.5864 30.3909 18.8908 30.1608 19.0588C29.9307 19.2267 29.6508 19.2844 29.3804 19.329C27.7272 19.5993 26.0241 19.4865 24.4088 19.0037C24.0601 19.4261 23.5098 19.5993 22.9951 19.5363C22.4827 19.4734 22.0036 19.2005 21.6004 18.8462C21.6383 19.1506 21.4296 19.4419 21.1758 19.5678C20.922 19.6938 20.6326 19.6964 20.3551 19.6938C17.587 19.678 14.8189 19.6649 12.0508 19.6492C11.4578 19.6466 10.8624 19.6413 10.2813 19.5154C10.1295 19.4812 9.97057 19.434 9.86384 19.3081C9.70017 19.1112 9.73338 18.7832 9.87807 18.5707C9.93262 18.492 9.99667 18.4237 10.0678 18.366C10.9099 18.6363 11.8373 18.5392 12.7126 18.366C13.0114 18.3083 13.3317 18.2269 13.5356 17.9803C13.5712 17.9383 13.5997 17.8858 13.6234 17.8333C13.6376 17.836 13.6495 17.8386 13.6637 17.8412C14.0931 17.0855 15.0893 16.8126 15.7866 17.2587C15.4593 16.7312 15.4925 15.965 15.8626 15.4717C16.2326 14.981 16.9086 14.8078 17.4375 15.0702C16.4461 14.157 16.0357 12.5957 16.3061 11.2102C16.4342 12.1627 16.7331 13.0917 17.2668 13.8448C17.8977 14.7369 18.8844 15.3536 19.9091 15.3247C20.0467 14.1597 20.7298 13.089 21.6763 12.5537C21.1639 12.9867 21.1497 13.9287 21.5885 14.4535C22.0273 14.9757 22.7935 15.0676 23.3746 14.7553C23.9557 14.443 24.3495 13.7923 24.5013 13.0995C24.7266 12.0683 24.4088 11.1997 23.9225 10.3679C24.1146 10.4519 24.3091 10.5647 24.4609 10.6487C26.4415 11.7613 26.2755 15.0728 24.3945 16.2222C24.5961 16.1461 24.8001 16.0805 25.0089 16.0254C25.6896 16.2248 26.4463 16.3481 27.1199 16.5528C27.8315 16.768 28.5479 17.2534 28.7637 18.0354C28.8728 17.9357 28.989 17.8412 29.11 17.7572C29.3828 17.6969 29.6627 17.6418 29.9307 17.7074Z" fill="#EAF4FE"/>
<path d="M24.3971 16.2222C26.278 15.0728 26.4465 11.7613 24.4635 10.6487C24.3141 10.5647 24.1172 10.4519 23.9251 10.3679C24.9165 10.9006 25.4289 12.1654 25.4479 13.3856C25.4573 14.018 25.3577 14.6871 24.9853 15.1647C24.6485 15.595 24.129 15.8102 23.6143 15.8469C23.102 15.881 22.5896 15.7525 22.0986 15.5871C22.6798 16.1933 23.6973 16.6499 24.3971 16.2222Z" fill="#D7E8FA"/>
<path d="M15.7916 17.256C15.4642 16.7286 15.4974 15.9624 15.8675 15.469C16.2375 14.9783 16.9135 14.8052 17.4425 15.0676C17.0535 14.9888 16.6811 15.3956 16.6028 15.8233C16.5245 16.2536 16.6858 16.6971 16.9206 17.0513C17.0179 17.1983 17.1317 17.3374 17.274 17.4266C17.4923 17.563 17.7556 17.5683 18.0046 17.5552C18.5763 17.5237 19.2238 17.3479 19.4871 16.7837C19.5369 17.2167 19.2689 17.6391 18.9226 17.8517C18.5763 18.0642 18.1683 18.1062 17.7722 18.1141C17.3974 18.122 17.0202 18.1036 16.6621 17.9829C16.3039 17.8648 16.0027 17.5971 15.7916 17.256Z" fill="#D7E8FA"/>
<path d="M9.88051 18.5655C9.73582 18.7806 9.70261 19.1086 9.86628 19.3028C9.97064 19.4288 10.1319 19.476 10.2837 19.5101C10.8649 19.6387 11.4602 19.6413 12.0532 19.644C14.8213 19.6597 17.5894 19.6728 20.3575 19.6886C20.6374 19.6912 20.9244 19.6886 21.1782 19.5626C21.432 19.4366 21.6431 19.1454 21.6028 18.841C21.164 19.1821 20.6398 19.2503 20.1037 19.2713C19.4538 19.2976 18.7968 19.2976 18.1658 19.1296C17.5349 18.9617 16.9253 18.6127 16.5244 18.0459C16.4746 18.5156 16.6857 19.0063 17.0462 19.2608C15.1724 19.0063 13.2772 19.2451 11.3891 19.2057C10.8388 19.1952 10.0821 19.1323 9.88051 18.5655Z" fill="#D7E8FA"/>
<path d="M21.603 18.8436C22.0086 19.1978 22.4854 19.4734 22.9977 19.5337C23.5101 19.5967 24.0628 19.4209 24.4114 19.001C26.0244 19.4839 27.7275 19.5967 29.3831 19.3264C29.6559 19.2818 29.9358 19.2241 30.1635 19.0561C30.3936 18.8882 30.562 18.5838 30.5122 18.2847C30.2916 18.757 29.7128 18.8593 29.2337 18.9039C28.6834 18.9564 28.1236 18.9118 27.5851 18.7727C27.8366 18.715 28.0714 18.5654 28.2469 18.3555C26.7716 18.7544 25.18 18.6074 23.7852 17.9462C23.8445 18.2453 23.6738 18.5602 23.4342 18.7098C23.1923 18.8593 22.8981 18.8672 22.6253 18.8095C21.7264 18.6179 21.0053 17.6733 20.9887 16.6604C20.844 17.4004 21.067 18.3713 21.603 18.8436Z" fill="#D7E8FA"/>
<path d="M46.0557 14.2174C47.0424 14.6005 47.9366 15.5583 48.1881 16.7732C48.7526 16.4846 49.3812 16.3219 49.9623 16.5475C50.5434 16.7732 51.0415 17.4738 51.0154 18.2611C51.5325 18.1167 52.0591 17.9724 52.5857 18.038C53.0909 18.101 53.6412 18.4054 53.9401 18.9617C54.035 19.1349 54.0919 19.3527 54.0611 19.56C54.4643 19.2031 55.0027 19.1191 55.4795 19.19C55.7546 19.232 56.0322 19.3369 56.2433 19.5705C56.4544 19.804 56.5825 20.1871 56.5066 20.5335C56.3761 21.1397 55.7831 21.2918 55.2992 21.3338C54.4074 21.4099 53.5155 21.4887 52.6236 21.5647C50.1497 21.7773 47.6615 21.9898 45.197 21.633C44.9954 21.6041 44.7606 21.5385 44.6775 21.2997C44.6016 21.0767 44.706 20.8038 44.8649 20.6726C45.0238 20.5414 45.2183 20.5125 45.4057 20.4889C44.2767 20.4915 43.1476 20.4941 42.0186 20.4941C41.1148 20.4968 40.2111 20.4968 39.3074 20.4836C38.3586 20.4705 37.3885 20.4338 36.499 20.0061C36.3258 19.9221 36.1337 19.7909 36.1029 19.5547C36.072 19.3264 36.2143 19.1086 36.3804 19.0299C36.5464 18.9512 36.7314 18.9801 36.907 19.0089C36.4587 18.9801 36.2997 18.0957 36.601 17.6602C36.9022 17.2246 37.424 17.1931 37.8605 17.3348C38.2969 17.4765 38.7049 17.7546 39.1508 17.8412C39.4758 17.0356 40.1376 16.4426 40.8397 16.3927C41.2595 16.3639 42.7349 16.705 42.8582 17.3925C42.621 16.0831 43.3231 14.6661 44.2957 14.2148C44.8388 13.9629 45.4627 13.9865 46.0557 14.2174Z" fill="white"/>
<path d="M53.9401 18.9617C54.035 19.1349 54.0919 19.3527 54.0611 19.56C54.4643 19.2031 55.0027 19.1191 55.4795 19.19C55.7546 19.2319 56.0322 19.3369 56.2433 19.5704C56.4544 19.804 56.5825 20.1871 56.5066 20.5335C56.3761 21.1396 55.7831 21.2918 55.2992 21.3338C54.4074 21.4099 53.5155 21.4886 52.6236 21.5647C50.1497 21.7773 47.6615 21.9898 45.197 21.633C44.9954 21.6041 44.7606 21.5385 44.6775 21.2997C44.6016 21.0767 44.706 20.8038 44.8649 20.6726C45.0238 20.5413 45.2183 20.5125 45.4057 20.4889C44.2767 20.4915 43.1476 20.4941 42.0186 20.4941C41.1148 20.4967 40.2111 20.4967 39.3074 20.4836C38.3586 20.4705 37.3885 20.4338 36.499 20.006C36.3258 19.9221 36.1337 19.7909 36.1029 19.5547C36.072 19.3264 36.2143 19.1086 36.3804 19.0299C36.5464 18.9512 36.7314 18.98 36.907 19.0089C36.4587 18.98 36.2997 18.0957 36.601 17.6601C36.9022 17.2245 37.424 17.1931 37.8605 17.3348C38.2969 17.4764 38.7049 17.7546 39.1508 17.8412C39.286 17.5053 39.4829 17.2062 39.713 16.9674C39.9929 17.689 40.4388 18.3004 40.9844 18.6888C41.741 19.2241 42.7752 19.2792 43.5864 18.9013C43.2425 18.4631 42.9816 17.9068 42.8369 17.3085C42.8464 17.3348 42.8559 17.3636 42.8606 17.3925C42.7728 16.907 42.8132 16.4058 42.9507 15.9466C43.0907 16.5948 43.2828 17.2219 43.6054 17.7415C44.03 18.4211 44.7274 18.8777 45.382 18.6678C45.6761 18.5733 45.9418 18.3529 46.1648 18.0879C46.8669 17.256 47.1681 15.8705 46.9001 14.7107C47.5192 15.2014 48.0102 15.923 48.1857 16.7758C48.1833 17.5998 47.92 18.4237 47.4527 18.9853C48.4442 19.3894 49.6017 19.3684 50.5837 18.9302C50.292 19.4366 49.8698 19.8171 49.4025 19.9955C50.3916 20.4495 51.5064 20.4206 52.479 19.9168C52.7494 19.7777 53.034 19.5678 53.1289 19.2083C53.2261 18.8462 53.0933 18.4316 52.8774 18.1666C52.8537 18.1377 52.8324 18.1115 52.8063 18.0879C53.2475 18.1981 53.6839 18.4893 53.9401 18.9617Z" fill="#EAF4FE"/>
<path d="M36.9092 19.0063C36.4609 18.9774 36.302 18.0931 36.6032 17.6575C36.9045 17.2219 37.4263 17.1904 37.8628 17.3321C37.7181 17.3321 37.5378 17.3557 37.4097 17.4449C37.2816 17.5342 37.1796 17.6942 37.1583 17.8805C37.1488 17.9802 37.1607 18.0826 37.1844 18.1797C37.2911 18.6074 37.5995 18.9039 37.9244 19.0587C38.4107 19.2923 38.9444 19.2687 39.4615 19.2424C38.6076 19.3946 37.7726 19.0587 36.9092 19.0063Z" fill="#D7E8FA"/>
<path d="M44.8675 20.6699C44.7085 20.8011 44.6042 21.074 44.6801 21.2971C44.7631 21.5385 44.9979 21.6015 45.1995 21.6303C47.664 21.9898 50.1522 21.7773 52.6262 21.5621C53.518 21.486 54.4099 21.4073 55.3018 21.3312C55.7833 21.2892 56.3786 21.137 56.5091 20.5308C56.5826 20.1845 56.4569 19.8014 56.2458 19.5678C56.3431 19.8171 56.26 20.1241 56.113 20.3288C55.9659 20.5335 55.7572 20.6437 55.5532 20.7303C54.6163 21.116 53.6129 21.0661 52.6309 21.0137C52.944 20.9586 53.231 20.6962 53.3781 20.334C52.1328 21.0557 50.731 21.116 49.3695 21.1632C48.5416 21.1921 47.7043 21.221 46.8979 20.9769C47.2845 20.9848 47.6711 20.8326 47.989 20.544C46.9358 20.8274 45.904 21.0294 44.8675 20.6699Z" fill="#D7E8FA"/>
<path d="M45.4077 20.4862C44.2786 20.4889 43.1496 20.4915 42.0205 20.4915C41.1168 20.4941 40.2131 20.4941 39.3093 20.481C38.3606 20.4679 37.3904 20.4311 36.5009 20.0034C36.3278 19.9194 36.1357 19.7882 36.1048 19.5521C36.074 19.3238 36.2163 19.106 36.3823 19.0273C36.3776 19.2083 36.4986 19.3579 36.6148 19.4524C36.731 19.5494 36.871 19.5888 37.0062 19.6229C38.5361 20.0165 40.1063 20.0087 41.6647 19.9982C42.2719 19.9955 42.9195 19.9745 43.4247 19.5311C44.0106 20.0874 44.6819 20.4705 45.4077 20.4862Z" fill="#D7E8FA"/>
<path d="M52.4362 37.414H10.8318V42.544H52.4362V37.414Z" fill="#889C5D"/>
<path d="M36.0269 17.9146L30.0258 14.3984L13.1089 24.7346V37.414H36.0269V17.9146Z" fill="#EBEAE6"/>
<path d="M16.3753 28.9041H14.2832V34.0657H16.3753V28.9041Z" fill="white"/>
<path d="M16.1331 29.1716H14.5249V33.8004H16.1331V29.1716Z" fill="#67A4BF"/>
<path opacity="0.2" d="M16.1331 29.1716H14.5249V29.8215H16.1331V29.1716Z" fill="#252F2F"/>
<path d="M16.1331 31.7592H14.5249V33.7981H16.1331V31.7592Z" fill="#253C46"/>
<path opacity="0.2" d="M16.1355 29.1716V29.6282L14.5249 33.3386V32.8059L16.0999 29.1716H16.1355Z" fill="white"/>
<path opacity="0.2" d="M16.1352 32.1816V32.7143L15.6632 33.8007H15.4331L16.1352 32.1816Z" fill="white"/>
<path d="M20.3789 28.9041H18.2869V34.0657H20.3789V28.9041Z" fill="white"/>
<path d="M20.1372 29.1716H18.5291V33.8004H20.1372V29.1716Z" fill="#67A4BF"/>
<path opacity="0.2" d="M20.1372 29.1716H18.5291V29.8215H20.1372V29.1716Z" fill="#252F2F"/>
<path d="M20.1372 31.7592H18.5291V33.7981H20.1372V31.7592Z" fill="#253C46"/>
<path opacity="0.2" d="M20.1396 29.1716V29.6282L18.5291 33.3386V32.8059L20.104 29.1716H20.1396Z" fill="white"/>
<path opacity="0.2" d="M20.1396 32.1816V32.7143L19.6676 33.8007H19.4375L20.1396 32.1816Z" fill="white"/>
<path d="M30.0259 14.401V37.3956H27.3811V16.1565L30.0259 14.401Z" fill="#67A4BF"/>
<path opacity="0.2" d="M30.0259 21.6697V22.4018L27.3811 28.5027V27.7732L30.0259 21.6697Z" fill="white"/>
<path opacity="0.2" d="M30.0259 27.7496V28.4817L27.3811 34.58V33.8532L30.0259 27.7496Z" fill="white"/>
<path d="M29.6961 21.7458V37.0309H27.7108V21.7458H29.6961ZM30.0259 21.381H27.3811V37.3957H30.0259V21.381Z" fill="#2C2A30"/>
<path d="M30.0258 14.3984V21.381H27.3787V16.1565L30.0258 14.3984Z" fill="#4D4233"/>
<path opacity="0.2" d="M30.0258 14.3984L13.1089 24.7346V28.2141L30.0258 17.8805L36.0269 21.3968V17.9146L30.0258 14.3984Z" fill="#252F2F"/>
<path d="M12.3999 25.897L11.8401 24.7792L30.0189 13.6742L36.2975 17.3505L35.7567 18.4788L30.0307 15.1253L12.3999 25.897Z" fill="#9F6255"/>
<path opacity="0.2" d="M30.0234 21.381H27.3787V23.2284H30.0234V21.381Z" fill="#252F2F"/>
<path d="M27.3787 25.9075H30.0258" stroke="#2C2A30" stroke-width="1.3914" stroke-miterlimit="10"/>
<path d="M27.3787 31.0664H30.0258" stroke="#2C2A30" stroke-width="1.3914" stroke-miterlimit="10"/>
<path opacity="0.1" d="M30.7732 20.4311L23.7522 37.414H32.0446V20.376L30.7732 20.4311Z" fill="#252F2F"/>
<path opacity="0.2" d="M30.026 32.9846V33.714L28.4297 37.3956H28.1118L30.026 32.9846Z" fill="white"/>
<path d="M36.0245 35.8868H13.1089V37.414H36.0245V35.8868Z" fill="#7C7773"/>
<path d="M38.458 16.411L32.0442 20.376V37.414H49.9715V23.3936L38.458 16.411Z" fill="#D8D6D4"/>
<path d="M49.9692 23.3937V30.4025H32.0442V20.376L35.6259 18.1613L36.0599 17.8937L38.458 16.4084L42.5212 18.8751L42.7726 19.0273L46.7077 21.4125L46.9591 21.5673L48.5911 22.5566L48.8401 22.7088L49.9692 23.3937Z" fill="#67A4BF"/>
<path opacity="0.2" d="M36.0599 17.8936L32.0442 27.1539V26.4271L35.6259 18.1613L36.0599 17.8936Z" fill="white"/>
<path opacity="0.2" d="M42.7729 19.0272L37.8392 30.4025H37.5261L42.5215 18.875L42.7729 19.0272Z" fill="white"/>
<path opacity="0.2" d="M46.9594 21.5673L43.1263 30.4025H42.8108L46.7079 21.4125L46.9594 21.5673Z" fill="white"/>
<path opacity="0.2" d="M48.8402 22.7087L45.5052 30.4025H45.1897L48.5911 22.5565L48.8402 22.7087Z" fill="white"/>
<path opacity="0.2" d="M38.4582 16.411L36.2974 17.7467L48.4253 25.1019V30.4025H49.9718V23.3936L38.4582 16.411Z" fill="#252F2F"/>
<path d="M36.634 17.1432V25.9075" stroke="#2C2A30" stroke-width="1.3914" stroke-miterlimit="10"/>
<path d="M38.4604 17.5604L49.6418 24.341V30.0378H32.3763V21.3233L38.4604 17.5604ZM38.458 17.1432L32.0442 21.1081V30.4026H49.9692V24.1258L38.458 17.1432Z" fill="#2C2A30"/>
<path d="M50.6833 24.5535L38.4605 17.1405L31.3375 21.5463L30.7729 20.4311L38.4558 15.6789L51.2383 23.433L50.6833 24.5535Z" fill="#A76759"/>
<path d="M49.9714 25.897H35.9602V30.4025H49.9714V25.897Z" fill="#EBEAE6"/>
<path d="M49.9714 25.897H35.9602V26.5417H49.9714V25.897Z" fill="white"/>
<path d="M32.0442 23.7715H36.634" stroke="#2C2A30" stroke-width="1.3914" stroke-miterlimit="10"/>
<path d="M36.2974 25.9013C36.2974 25.9013 36.3353 25.7256 36.4302 25.6601C36.5251 25.5946 36.869 25.7047 36.869 25.7047C36.869 25.7047 36.6342 25.2223 36.9473 25.1646C37.2604 25.1069 37.9056 25.5002 37.9056 25.5002C37.9056 25.5002 37.9838 25.1751 38.1878 25.1593C38.3918 25.1436 38.7144 25.4294 38.7144 25.4294C38.7144 25.4294 39.4924 24.7634 40.0261 24.7792C40.5598 24.7949 40.3558 25.4661 40.3558 25.4661C40.3558 25.4661 41.0627 25.2091 41.3141 25.2091C41.5655 25.2091 41.3141 25.5605 41.3141 25.5605C41.3141 25.5605 41.8478 25.1724 42.1466 25.1515C42.4455 25.1305 42.7444 25.6549 42.7444 25.6549C42.7444 25.6549 43.0741 25.4949 43.2472 25.5238C43.4204 25.5526 43.7359 25.8987 43.7359 25.8987L36.2974 25.9013Z" fill="#6E7F4A"/>
<path d="M49.6633 25.9005C49.6633 25.9005 49.6325 25.7669 49.5542 25.7171C49.4759 25.6674 49.1913 25.7512 49.1913 25.7512C49.1913 25.7512 49.3858 25.3819 49.1272 25.3374C48.8687 25.2928 48.3374 25.594 48.3374 25.594C48.3374 25.594 48.2733 25.3452 48.1049 25.3321C47.9365 25.319 47.6708 25.5364 47.6708 25.5364C47.6708 25.5364 47.6756 24.9314 47.2368 24.9445C46.7979 24.955 46.3188 25.5652 46.3188 25.5652C46.3188 25.5652 45.9203 25.1959 45.7116 25.1959C45.5052 25.1959 45.5289 25.6359 45.5289 25.6359C45.5289 25.6359 44.8434 25.3243 44.5968 25.3059C44.3501 25.2902 44.3501 25.7067 44.3501 25.7067C44.3501 25.7067 44.0773 25.5836 43.9374 25.6071C43.795 25.6307 42.9648 25.8926 42.9648 25.8926L49.6633 25.9005Z" fill="#6E7F4A"/>
<path d="M36.876 30.4026H49.9716V37.414H36.9376L36.876 30.4026Z" fill="white"/>
<path d="M48.0792 31.1032H44.3955V37.414H48.0792V31.1032Z" fill="#2C2A30"/>
<path d="M47.7325 31.4863H44.7415V37.414H47.7325V31.4863Z" fill="#9F6255"/>
<path d="M47.3626 35.6795H45.1282V36.9443H47.3626V35.6795Z" stroke="#A76759" stroke-width="0.1739" stroke-miterlimit="10"/>
<path d="M47.3626 33.9162H46.3711V35.3174H47.3626V33.9162Z" fill="#253C46"/>
<path d="M46.1197 32.1161H45.1282V33.5173H46.1197V32.1161Z" fill="#253C46"/>
<path d="M46.1197 33.9162H45.1282V35.3174H46.1197V33.9162Z" fill="#253C46"/>
<path d="M47.3626 32.1161H46.3711V33.5173H47.3626V32.1161Z" fill="#253C46"/>
<path opacity="0.2" d="M49.9692 30.4026H32.0442V31.7592H49.9692V30.4026Z" fill="#252F2F"/>
<path d="M43.1761 32.3994H37.7419V34.2782H43.1761V32.3994Z" fill="#2C2A30"/>
<path d="M42.927 32.6747H37.991V34.0025H42.927V32.6747Z" fill="#67A4BF"/>
<path d="M42.9249 32.6747H40.458V34.0025H42.9249V32.6747Z" fill="#253C46"/>
<path opacity="0.2" d="M39.1202 32.6747L38.5438 34.0025H38.2307L38.8047 32.6747H39.1202Z" fill="white"/>
<path opacity="0.2" d="M42.3696 32.6747L41.7933 34.0025H41.4778L42.0542 32.6747H42.3696Z" fill="white"/>
<path d="M44.3952 37.414V39.9777H10.8318V42.544H52.4362V39.9777H47.9579V37.414H44.3952Z" fill="#FBFBFB"/>
<path opacity="0.1" d="M58.646 35.5902C58.646 17.3976 45.9489 2.48511 29.8242 1.10486C13.6972 2.48249 1 17.3976 1 35.5902C1 49.1776 8.08745 60.9307 18.3913 66.5856V78.7586H41.2571V66.5856C51.5609 60.9307 58.646 49.1776 58.646 35.5902Z" fill="url(#paint1_linear_511_1395)"/>
<path opacity="0.5" d="M46.1433 72.991C42.6968 73.8517 38.9349 73.5552 35.0472 71.7761C29.8811 69.4092 25.6684 59.8261 25.6684 59.8261C25.6684 59.8261 17.5871 54.0086 14.8855 48.5427C9.63866 37.9283 8.20836 25.3827 14.4941 14.8603C17.6678 9.54653 21.8472 5.09613 26.6101 1.57465C24.416 2.01811 22.3026 2.71611 20.2936 3.63716C0.556381 12.6928 -3.16524 42.1951 13.5453 56.9265C15.0444 58.249 16.7166 59.4404 18.5834 60.4349C20.7585 61.5947 22.1508 64.0193 22.1508 66.6906V78.7587H46.1433V72.991Z" fill="white"/>
<path d="M63.5347 35.5903C63.5347 16.4872 49.5376 1 32.2673 1C14.9994 1 1 16.4872 1 35.5903C1 49.1777 8.08745 60.9308 18.3913 66.5857V78.7587H46.1434V66.5857C56.4472 60.9308 63.5347 49.1777 63.5347 35.5903Z" stroke="white" stroke-miterlimit="10"/>
<path opacity="0.6" d="M31.634 5.0935C32.1725 11.8478 38.6053 19.9955 42.2249 23.5747C46.6178 27.9149 53.1573 32.3575 59.277 32.4283C58.0198 17.0933 46.3735 5.07776 32.1843 5.07776C31.9993 5.07776 31.819 5.08825 31.634 5.0935Z" fill="white"/>
<path d="M22.1509 94.8022C22.1509 100.921 26.6339 105.884 32.1677 105.884C37.6991 105.884 42.1869 100.921 42.1869 94.8022H22.1509Z" fill="#332E34"/>
<path d="M29.2998 104.858C29.2998 106.608 30.583 108.03 32.1651 108.03C33.7496 108.03 35.0352 106.61 35.0352 104.858H29.2998Z" fill="#332E34"/>
<path d="M19.0554 95.6524C19.1432 97.5916 20.5782 99.1372 22.3501 99.1372H41.9829C43.7571 99.1372 45.1945 97.5916 45.2799 95.6524H19.0554Z" fill="#332E34"/>
<path d="M46.1432 79.4305H18.3508V92.7922H46.1432V79.4305Z" fill="#332E34"/>
<path d="M47.5975 77.9557C47.5975 79.4357 46.5135 80.6375 45.1733 80.6375H18.9962C17.6585 80.6375 16.5745 79.4383 16.5745 77.9557C16.5745 76.4758 17.6585 75.274 18.9962 75.274H45.1733C46.5135 75.274 47.5975 76.4732 47.5975 77.9557Z" fill="#332E34"/>
<path d="M16.5977 78.2234C16.721 79.5775 17.7409 80.6376 18.9981 80.6376H45.1752C46.4323 80.6376 47.4523 79.5775 47.5756 78.2234H16.5977Z" fill="#B1B1B1"/>
<path d="M46.1435 76.189C46.1435 76.4143 45.8114 76.5976 45.4011 76.5976H18.325C17.917 76.5976 17.585 76.4143 17.585 76.189C17.585 75.9638 17.917 75.7804 18.325 75.7804H45.4034C45.8114 75.7778 46.1435 75.9611 46.1435 76.189Z" fill="white"/>
<path d="M47.5975 85.6416C47.5975 87.1216 46.5135 88.3234 45.1733 88.3234H18.9962C17.6585 88.3234 16.5745 87.1242 16.5745 85.6416C16.5745 84.159 17.6585 82.9598 18.9962 82.9598H45.1733C46.5135 82.9598 47.5975 84.1616 47.5975 85.6416Z" fill="#332E34"/>
<path d="M16.5977 85.9091C16.721 87.2632 17.7409 88.3233 18.9981 88.3233H45.1752C46.4323 88.3233 47.4523 87.2632 47.5756 85.9091H16.5977Z" fill="#B1B1B1"/>
<path d="M46.1435 83.8748C46.1435 84.1001 45.8114 84.2834 45.4011 84.2834H18.325C17.917 84.2834 17.585 84.1001 17.585 83.8748C17.585 83.6496 17.917 83.4662 18.325 83.4662H45.4034C45.8114 83.4662 46.1435 83.6496 46.1435 83.8748Z" fill="white"/>
<path d="M47.5975 93.3275C47.5975 94.8075 46.5135 96.0093 45.1733 96.0093H18.9962C17.6585 96.0093 16.5745 94.8101 16.5745 93.3275C16.5745 91.8475 17.6585 90.6457 18.9962 90.6457H45.1733C46.5135 90.6457 47.5975 91.8475 47.5975 93.3275Z" fill="#332E34"/>
<path d="M16.5977 93.595C16.721 94.949 17.7409 96.0091 18.9981 96.0091H45.1752C46.4323 96.0091 47.4523 94.949 47.5756 93.595H16.5977Z" fill="#B1B1B1"/>
<path d="M46.1435 91.5607C46.1435 91.786 45.8114 91.9693 45.4011 91.9693H18.325C17.917 91.9693 17.585 91.786 17.585 91.5607C17.585 91.3355 17.917 91.1521 18.325 91.1521H45.4034C45.8114 91.1521 46.1435 91.3355 46.1435 91.5607Z" fill="white"/>
<defs>
<linearGradient id="paint0_linear_511_1395" x1="1" y1="39.8794" x2="63.5343" y2="39.8794" gradientUnits="userSpaceOnUse">
<stop stop-color="white"/>
<stop offset="1" stop-color="#88BBE5"/>
</linearGradient>
<linearGradient id="paint1_linear_511_1395" x1="1.00002" y1="39.9316" x2="58.647" y2="39.9316" gradientUnits="userSpaceOnUse">
<stop stop-color="#939598"/>
<stop offset="1" stop-color="white"/>
</linearGradient>
</defs>
</svg>
